<svg width="24" height="24" viewBox="0 0 24 24" fill="none" xmlns="http://www.w3.org/2000/svg">
    <path d="M14.728 9.999c-.58.39-1.116.84-1.6 1.345-.07-2.358-.637-5.408-3.762-6.901-.618-3.364-7.83-1.655-7.183-1.329 1.285.65 1.97 2.305 2.796 3.175 1.474 1.552 3.113 1.647 3.928.433 1.927 1.252 2.054 3.627 1.995 6.166-.006.28-.013.542-.013.78v7.776c0 .614 2.223.614 2.223 0v-6.383c.3-.53 1.179-1.947 2.46-2.941.881.774 2.301.527 3.59-.83.829-.871 1.275-2.525 2.56-3.176.68-.342-7.11-2.218-6.993 1.885" fill="#77B255"/>
</svg>
