<svg xmlns="http://www.w3.org/2000/svg" viewBox="0 0 44 44" width="24" height="24">
    <g transform="translate(4 4)">
        <path fill="#31373D" d="M34.074 18l-4.832 3H28v-4c0-.088-.02-.169-.026-.256C31.436 15.864 34 12.735 34 9a8 8 0 00-16.001 0c0 1.463.412 2.822 1.099 4H14.92c.047-.328.08-.66.08-1a7 7 0 10-14 0 6.995 6.995 0 004 6.317V29a4 4 0 004 4h15a4 4 0 004-4v-3h1.242l4.832 3H35V18h-.926zM28.727 3.977a5.713 5.713 0 012.984 4.961L28.18 8.35a2.276 2.276 0 00-.583-.982l1.13-3.391zm-.9 6.342l3.552.592a5.713 5.713 0 01-4.214 3.669 3.985 3.985 0 00-1.392-1.148l.625-2.19a2.425 2.425 0 001.429-.923zM26 3.285c.282 0 .557.027.828.067l-1.131 3.392c-.404.054-.772.21-1.081.446L21.42 5.592A5.703 5.703 0 0126 3.285zM20.285 9c0-.563.085-1.106.236-1.62l3.194 1.597-.002.023c0 .657.313 1.245.771 1.662L23.816 13h-1.871a5.665 5.665 0 01-1.66-4zm-9.088-.385A4.64 4.64 0 0112.667 12c0 .344-.043.677-.113 1H10.1c.145-.304.233-.641.233-1a2.32 2.32 0 00-.392-1.292l1.256-2.093zM8 7.333c.519 0 1.01.105 1.476.261L8.22 9.688c-.073-.007-.145-.022-.22-.022a2.32 2.32 0 00-1.292.392L4.615 8.803A4.64 4.64 0 018 7.333zM3.333 12c0-.519.105-1.01.261-1.477l2.095 1.257c-.007.073-.022.144-.022.22 0 .75.36 1.41.91 1.837a3.987 3.987 0 00-1.353 1.895C4.083 14.881 3.333 13.533 3.333 12z"/>
        <circle fill="#8899A6" cx="24" cy="19" r="2"/>
        <circle fill="#8899A6" cx="9" cy="19" r="2"/>
        <path fill="#8899A6" d="M24 27a2 2 0 00-2-2H11a2 2 0 00-2 2v6a2 2 0 002 2h11a2 2 0 002-2v-6z"/>
    </g>
</svg>
