<svg xmlns="http://www.w3.org/2000/svg" viewBox="0 0 44 44" width="24" height="24">
    <g class="nc-icon-wrapper">
        <path fill="#FFAC33" d="M38.724 33.656c-1.239-.01-1.241 1.205-1.241 1.205H22.5c-5.246 0-9.5-4.254-9.5-9.5s4.254-9.5 9.5-9.5 9.5 4.254 9.5 9.5c0 3.062-1.6 5.897-3.852 7.633h5.434C35.022 30.849 36 28.139 36 25.361c0-7.456-6.045-13.5-13.5-13.5-7.456 0-13.5 6.044-13.5 13.5 0 7.455 6.044 13.5 13.5 13.5h14.982s-.003 1.127 1.241 1.139c1.238.012 1.228-1.245 1.228-1.245l.014-3.821s.001-1.267-1.241-1.278zM9 18.26a16.047 16.047 0 014-4.739V13c0-5 5-7 5-8s-1-1-1-1H5C4 4 4 5 4 5c0 1 5 3.333 5 7.69v5.57z"/>
        <path fill="#BE1931" d="M17.091 33.166a9.487 9.487 0 01-4.045-8.72l-3.977-.461c-.046.452-.069.911-.069 1.376 0 4.573 2.28 8.608 5.76 11.051l2.331-3.246z"/>
        <path fill="#BE1931" d="M10 29.924s-5.188-.812-5 1 5-1 5-1zm0 .312s-4.125 2.688-2.938 3.75S10 30.236 10 30.236z"/>
    </g>
</svg>
