<svg xmlns="http://www.w3.org/2000/svg" viewBox="0 0 44 44" width="24" height="24"><g class="nc-icon-wrapper"><g transform="translate(4 4)"><path fill="#FFAC33" d="M34.724 29.656c-1.239-.01-1.241 1.205-1.241 1.205H18.5c-5.246 0-9.5-4.254-9.5-9.5s4.254-9.5 9.5-9.5 9.5 4.254 9.5 9.5c0 3.062-1.6 5.897-3.852 7.633h5.434C31.022 26.849 32 24.139 32 21.361c0-7.456-6.045-13.5-13.5-13.5-7.456 0-13.5 6.044-13.5 13.5 0 7.455 6.044 13.5 13.5 13.5h14.982s-.003 1.127 1.241 1.139c1.238.012 1.228-1.245 1.228-1.245l.014-3.821s.001-1.267-1.241-1.278zM5 14.26a16.047 16.047 0 0 1 4-4.739V9c0-5 5-7 5-8s-1-1-1-1H1C0 0 0 1 0 1c0 1 5 3.333 5 7.69v5.57z"/><path fill="#BE1931" d="M13.091 29.166a9.487 9.487 0 0 1-4.045-8.72l-3.977-.461c-.046.452-.069.911-.069 1.376 0 4.573 2.28 8.608 5.76 11.051l2.331-3.246z"/><path fill="#BE1931" d="M6 25.924s-5.188-.812-5 1 5-1 5-1zm0 .312s-4.125 2.688-2.938 3.75S6 26.236 6 26.236z"/></g></g></svg>