<svg width="24" height="24" viewBox="0 0 24 24" fill="none" xmlns="http://www.w3.org/2000/svg">
    <path d="M12 16.444a4.444 4.444 0 110-8.889 4.444 4.444 0 010 8.89zm8.889-6.11H19.02a7.16 7.16 0 00-.879-2.12l1.322-1.32a1.112 1.112 0 000-1.572l-.786-.786a1.11 1.11 0 00-1.571 0l-1.321 1.322a7.167 7.167 0 00-2.12-.88V3.112A1.111 1.111 0 0012.557 2h-1.112a1.11 1.11 0 00-1.11 1.111V4.98a7.167 7.167 0 00-2.12.879l-1.32-1.322a1.111 1.111 0 00-1.572 0l-.786.786a1.112 1.112 0 000 1.571l1.322 1.321a7.172 7.172 0 00-.88 2.12H3.112A1.111 1.111 0 002 11.443v1.112a1.11 1.11 0 001.111 1.11H4.98c.18.76.48 1.473.879 2.119l-1.322 1.322a1.112 1.112 0 000 1.571l.786.786a1.113 1.113 0 001.571 0l1.321-1.322c.655.405 1.37.702 2.12.88v1.867A1.111 1.111 0 0011.443 22h1.112a1.111 1.111 0 001.11-1.111V19.02c.76-.18 1.473-.48 2.119-.879l1.322 1.322a1.108 1.108 0 001.571 0l.786-.786a1.111 1.111 0 000-1.571l-1.322-1.321a7.16 7.16 0 00.88-2.12h1.867A1.111 1.111 0 0022 12.557v-1.112a1.111 1.111 0 00-1.111-1.11z" fill="#66757F"/>
</svg>
