<svg width="24" height="24" viewBox="0 0 24 24" fill="none" xmlns="http://www.w3.org/2000/svg">
    <path d="M3.667 16.444H8.11V22H3.667v-5.556zm12.222 0h4.444V22H15.89v-5.556z" fill="#FFDC5D"/>
    <path d="M20.333 17.956s-1.666 1.11-4.444.555v-2.778h4.444v2.223zm-16.666 0s1.666 1.11 4.444.555v-2.778H3.667v2.223z" fill="#F9CA55"/>
    <path d="M4.213 12.336h4.444v4.444H4.213v-4.444zm11.124-.278h4.444v4.444h-4.444v-4.444z" fill="#EF9645"/>
    <path d="M2.207 8.575s.002-.68.682-.679c.681.002.679.683.679.683l-.01 3.158c.108-.05.22-.095.34-.134l.014-4.383s.002-.68.681-.678c.68.001.679.682.679.682l-.012 4.123c.11-.01.224-.018.339-.024l.015-4.779s.002-.68.683-.677c.68.002.677.682.677.682l-.015 4.778c.117.007.229.019.341.03l.014-4.467s.002-.68.682-.678c.68.002.677.682.677.682l-.014 4.723-.001.378v.34c-2.041-.006-3.407 1.69-3.414 3.39 0 .34.34.343.34.343.006-2.044 1.371-3.397 3.413-3.391l1-2.327s.22-.644.865-.423c.643.217.425.862.425.862l-.496 1.725c-.197.686-.381 1.376-.478 2.08a4.085 4.085 0 0 1-4.055 3.517 4.084 4.084 0 0 1-4.067-4.094c0-.12.007-.233.018-.34l-.017-.001.015-5.101zm19.58 0s-.001-.68-.681-.679c-.682.002-.68.683-.68.683l.01 3.158a3.142 3.142 0 0 0-.34-.134l-.013-4.383s-.002-.68-.682-.678c-.68.001-.679.682-.679.682l.012 4.123a8.12 8.12 0 0 0-.338-.024l-.015-4.779s-.003-.68-.683-.677c-.68.002-.678.682-.678.682l.016 4.778c-.117.007-.23.019-.342.03l-.013-4.467s-.003-.68-.683-.678c-.68.002-.677.682-.677.682l.013 4.723.002.378v.34c2.041-.006 3.407 1.69 3.414 3.39 0 .34-.34.343-.34.343-.006-2.044-1.371-3.397-3.412-3.391l-1-2.327s-.22-.644-.865-.423c-.643.217-.425.862-.425.862l.496 1.725c.197.686.38 1.376.477 2.08a4.085 4.085 0 0 0 4.055 3.517 4.084 4.084 0 0 0 4.068-4.094c0-.12-.008-.233-.019-.34l.018-.001-.016-5.101z" fill="#FFDC5D"/>
    <path d="M15.078 5.588a.553.553 0 0 1-.439-.895l1.655-2.142a.554.554 0 1 1 .88.68l-1.656 2.141a.553.553 0 0 1-.44.216zm-6.122 0a.555.555 0 0 1-.44-.216L6.861 3.23a.556.556 0 0 1 .88-.68l1.655 2.142a.556.556 0 0 1-.44.895zM12 5.333a.556.556 0 0 1-.556-.555V2.556a.556.556 0 0 1 1.112 0v2.222a.555.555 0 0 1-.556.555z" fill="#5DADEC"/>
</svg>
