<svg xmlns="http://www.w3.org/2000/svg" viewBox="0 0 44 44" width="24" height="24">
    <g class="nc-icon-wrapper">
        <path fill="#FFD983" d="M36 4H14a4 4 0 00-4 4v24H8a4 4 0 000 8h24a4 4 0 004-4V12a4 4 0 000-8z"/>
        <path fill="#E39F3D" d="M12 14h24v-2H14l-2-1z"/>
        <path fill="#FFE8B6" d="M14 4a4 4 0 00-4 4v24.555A3.955 3.955 0 008 32a4 4 0 104 4V11.445c.59.344 1.268.555 2 .555a4 4 0 000-8z"/>
        <path fill="#C1694F" d="M16 8a2 2 0 11-4.001-.001A2 2 0 0116 8m-6 28a2 2 0 11-4.001-.001A2 2 0 0110 36m24-17a1 1 0 01-1 1H15a1 1 0 010-2h18a1 1 0 011 1m0 4a1 1 0 01-1 1H15a1 1 0 110-2h18a1 1 0 011 1m0 4a1 1 0 01-1 1H15a1 1 0 110-2h18a1 1 0 011 1m0 4a1 1 0 01-1 1H15a1 1 0 110-2h18a1 1 0 011 1"/>
    </g>
</svg>
