<svg width="24" height="24" viewBox="0 0 24 24" fill="none" xmlns="http://www.w3.org/2000/svg">
    <path d="M14.222 20.333c0 1.228-4.444 1.228-4.444 0v-5.555a2.222 2.222 0 114.444 0v5.555z" fill="#C1694F"/>
    <path d="M16.444 3.667H7.556v11.11h13.333V8.112a4.444 4.444 0 00-4.445-4.444z" fill="#99AAB5"/>
    <path d="M7.556 3.667A4.444 4.444 0 003.11 8.11v6.667H12V8.11a4.445 4.445 0 00-4.444-4.444" fill="#292F33"/>
    <path d="M20.889 9.222h-6.667a1.111 1.111 0 000 2.222h4.445v1.112a1.11 1.11 0 001.11 1.11h1.112A1.111 1.111 0 0022 12.557v-2.223a1.111 1.111 0 00-1.111-1.11z" fill="#DD2E44"/>
</svg>
