<svg width="24" height="24" viewBox="0 0 24 24" fill="none" xmlns="http://www.w3.org/2000/svg">
    <path d="M20.889 9.222a1.111 1.111 0 01-1.111 1.111h-3.334a1.111 1.111 0 01-1.11-1.11V8.11A1.111 1.111 0 0116.443 7h3.334a1.11 1.11 0 011.11 1.111v1.111zm-12.222 0a1.111 1.111 0 01-1.111 1.111H4.222a1.111 1.111 0 01-1.11-1.11V8.11A1.111 1.111 0 014.221 7h3.334a1.111 1.111 0 011.11 1.111v1.111z" fill="#DAC8B1"/>
    <path d="M22 20.889A1.111 1.111 0 0120.889 22H3.11A1.111 1.111 0 012 20.889V9.222a1.111 1.111 0 011.111-1.11H20.89A1.111 1.111 0 0122 9.221V20.89z" fill="#F1DCC1"/>
    <path d="M14.222 7V5.889c0-.41-.224-.765-.555-.957v-.154a1.111 1.111 0 00-1.111-1.111h-1.112a1.11 1.11 0 00-1.11 1.11v.155a1.106 1.106 0 00-.556.957V7h-.556v15h5.556V7h-.556z" fill="#DAC8B1"/>
    <path d="M10.889 7H9.778V5.889h1.11V7zm2.222 0h1.111V5.889h-1.11V7zm-.555 0h-1.112V5.889h1.112V7z" fill="#55ACEE"/>
    <path d="M11.444 18.111h-1.11v-7.778h1.11v7.778zm2.223 0h-1.111v-7.778h1.11v7.778z" fill="#3B88C3"/>
    <path d="M16.444 18.111h-1.11v-6.667h1.11v6.667zm2.223 0h-1.111v-6.667h1.11v6.667zm2.222 0h-1.111v-6.667h1.11v6.667zm-16.667 0h-1.11v-6.667h1.11v6.667zm2.222 0h-1.11v-6.667h1.11v6.667zm2.223 0H7.556v-6.667h1.11v6.667zm-4.445 1.667h-1.11v-1.111h1.11v1.11zm2.222 0h-1.11v-1.111h1.11v1.11zm2.223 0H7.556v-1.111h1.11v1.11z" fill="#55ACEE"/>
    <path d="M11.444 19.778h-1.11v-1.111h1.11v1.11zm2.223 0h-1.111v-1.111h1.11v1.11z" fill="#3B88C3"/>
    <path d="M16.444 19.778h-1.11v-1.111h1.11v1.11zm2.223 0h-1.111v-1.111h1.11v1.11zm2.222 0h-1.111v-1.111h1.11v1.11z" fill="#55ACEE"/>
    <path d="M4.222 22h-1.11v-1.667h1.11V22zm2.222 0h-1.11v-1.667h1.11V22zm2.223 0H7.556v-1.667h1.11V22zm2.777 0h-1.11v-1.667h1.11V22zm2.223 0h-1.111v-1.667h1.11V22zm2.777 0h-1.11v-1.667h1.11V22zm1.112 0h1.11v-1.667h-1.11V22zm3.333 0h-1.111v-1.667h1.11V22z" fill="#66757F"/>
</svg>
