<svg width="24" height="24" viewBox="0 0 24 24" fill="none" xmlns="http://www.w3.org/2000/svg">
    <path d="M22 12c0 5.523-4.477 10-10 10S2 17.523 2 12 6.477 2 12 2s10 4.477 10 10z" fill="#FFCC4D"/>
    <path d="M7.842 15.123c.025.1.649 2.433 4.158 2.433 3.51 0 4.133-2.333 4.158-2.433a.277.277 0 00-.464-.265c-.011.01-1.086 1.03-3.695 1.03-2.607 0-3.683-1.02-3.692-1.03a.28.28 0 00-.452.087.278.278 0 00-.014.178zM10.056 9.5c0 1.074-.622 1.944-1.39 1.944-.767 0-1.388-.87-1.388-1.944 0-1.074.621-1.944 1.389-1.944.767 0 1.389.87 1.389 1.944zm6.666 0c0 1.074-.621 1.944-1.389 1.944-.767 0-1.389-.87-1.389-1.944 0-1.074.622-1.944 1.39-1.944.767 0 1.388.87 1.388 1.944z" fill="#664500"/>
</svg>
