<svg xmlns="http://www.w3.org/2000/svg" viewBox="0 0 36 36">
    <path fill="#DD2E44" d="M35.885 11.833c0-5.45-4.418-9.868-9.867-9.868-3.308 0-6.227 1.633-8.018 4.129-1.791-2.496-4.71-4.129-8.017-4.129-5.45 0-9.868 4.417-9.868 9.868 0 .772.098 1.52.266 2.241C1.751 22.587 11.216 31.568 18 34.034c6.783-2.466 16.249-11.447 17.617-19.959.17-.721.268-1.469.268-2.242z"/>
    <path fill="#FDCB58" d="m34.347 23.894-3.824-1.416-1.416-3.824a1 1 0 0 0-1.876-.001l-1.416 3.824-3.824 1.416a1.001 1.001 0 0 0 0 1.876l3.824 1.416 1.416 3.824a1 1 0 0 0 1.876 0l1.416-3.824 3.824-1.416a1.001 1.001 0 0 0 0-1.875zm-23-16.001-2.365-.875-.875-2.365a1 1 0 0 0-1.876 0l-.876 2.365-2.364.875a1 1 0 0 0 0 1.876l2.365.875.875 2.365a1 1 0 0 0 1.876 0l.875-2.365 2.365-.875a1 1 0 0 0 0-1.876z"/>
</svg>
