<svg width="24" height="24" viewBox="0 0 24 24" fill="none" xmlns="http://www.w3.org/2000/svg">
    <g clip-path="url(#a)">
        <path d="M22 12c0 5.523-4.477 10-10 10-5.522 0-10-4.477-10-10C2 6.478 6.478 2 12 2c5.523 0 10 4.478 10 10z" fill="#FFCB4C"/>
        <path d="M8.764 12.231c.813 0 1.471-.922 1.471-2.059s-.658-2.059-1.47-2.059c-.813 0-1.471.922-1.471 2.06 0 1.136.658 2.058 1.47 2.058z" fill="#65471B"/>
        <path d="M15.823 13.764a3.823 3.823 0 1 0 0-7.646 3.823 3.823 0 0 0 0 7.646z" fill="#F4F7F9"/>
        <path d="M10.236 7.526a.588.588 0 0 1-.471-.235c-.55-.734-1.127-1.128-1.713-1.17-.772-.052-1.401.527-1.519.644a.587.587 0 1 1-.831-.832c.254-.254 1.182-1.075 2.434-.985.941.067 1.806.618 2.57 1.636a.588.588 0 0 1-.47.942z" fill="#65471B"/>
        <path d="M20.236 22a.588.588 0 0 1-.589-.588V10.236a.588.588 0 1 1 1.177 0v11.176a.588.588 0 0 1-.588.588z" fill="#292F33"/>
        <path d="M20.236 9.059c-.03 0-.059.007-.088.009a4.42 4.42 0 0 0-4.325-3.539 4.416 4.416 0 0 0-4.411 4.412 4.416 4.416 0 0 0 4.411 4.412 4.416 4.416 0 0 0 4.165-2.969 1.177 1.177 0 1 0 .248-2.326zm-4.413 4.118a3.239 3.239 0 0 1-3.235-3.236 3.239 3.239 0 0 1 3.235-3.235A3.24 3.24 0 0 1 19.06 9.94a3.24 3.24 0 0 1-3.236 3.236z" fill="#67757F"/>
        <path d="M13.764 17.882a.587.587 0 0 1-.263-.062c-1.01-.506-1.993-.506-3.003 0a.588.588 0 1 1-.526-1.053c1.345-.672 2.71-.672 4.055 0a.589.589 0 0 1-.263 1.115z" fill="#65471B"/>
        <path d="M17.583 7.228a3.236 3.236 0 0 0-4.473 4.473l4.473-4.473zm-3.14 5.636c.42.198.886.313 1.38.313A3.236 3.236 0 0 0 19.06 9.94c0-.494-.115-.962-.313-1.38l-4.303 4.303z" fill="#BDDDF4"/>
    </g>
    <defs>
        <clipPath id="a">
            <path fill="#fff" transform="translate(2 2)" d="M0 0h20v20H0z"/>
        </clipPath>
    </defs>
</svg>
