<svg xmlns="http://www.w3.org/2000/svg" viewBox="0 0 44 44" width="24" height="24">
    <g class="nc-icon-wrapper">
        <path fill="#FFD983" d="M36.017 24.181L21.345 9.746C20.687 9.087 19.823 9 18.96 9H8.883C7.029 9 6 10.029 6 11.883v10.082c0 .861.089 1.723.746 2.38L21.3 39.017a3.287 3.287 0 004.688 0l10.059-10.088c1.31-1.312 1.28-3.438-.03-4.748zm-23.596-8.76a1.497 1.497 0 11-2.118-2.117 1.497 1.497 0 012.118 2.117z"/>
        <path fill="#D99E82" d="M13.952 11.772a3.66 3.66 0 00-5.179 0 3.663 3.663 0 105.18 5.18 3.664 3.664 0 00-.001-5.18zm-1.53 3.65a1.499 1.499 0 11-2.119-2.12 1.499 1.499 0 012.119 2.12z"/>
        <path fill="#C1694F" d="M12.507 14.501a1 1 0 11-1.415-1.414l8.485-8.485a1 1 0 111.415 1.414l-8.485 8.485z"/>
    </g>
</svg>
