<svg width="24" height="24" viewBox="0 0 24 24" fill="none" xmlns="http://www.w3.org/2000/svg">
    <path d="M12 20.899a9.444 9.444 0 0 0 9.444-9.445 9.444 9.444 0 0 0-18.888 0A9.444 9.444 0 0 0 12 20.9z" fill="#FFCB4C"/>
    <path d="M10.069 13.687a.508.508 0 0 1-.173-.258.444.444 0 0 1 .327-.567c2.516-.568 4.21.757 4.281.814.214.17.255.469.097.669-.16.199-.46.223-.673.054-.061-.047-1.402-1.068-3.435-.61a.506.506 0 0 1-.424-.102zM9.288 9.683c.652 0 1.18-.66 1.18-1.475 0-.815-.528-1.476-1.18-1.476-.652 0-1.18.66-1.18 1.476 0 .815.528 1.475 1.18 1.475zM15.542 10.273c.652 0 1.18-.66 1.18-1.475 0-.815-.528-1.476-1.18-1.476-.652 0-1.18.66-1.18 1.476 0 .815.528 1.475 1.18 1.475z" fill="#65471B"/>
    <path d="M11.598 21.527s.703-.228.794-.75c.096-.54-.347-.65-.347-.65s.578-.115.651-.764c.068-.611-.478-.757-.478-.757s.539-.222.564-.855c.021-.533-.553-.793-.553-.793s2.8-.679 3.087-.745c.287-.067.733-.342.594-.941-.138-.6-.669-.621-.943-.558-.274.064-3.746.87-4.944 1.15l-.8.185c-.3.07-.436-.061-.224-.285.282-.297.463-.627.525-1.173.067-.575-.128-1.285-.24-1.561-.208-.512-.558-.916-.963-1.055-.632-.217-1.081.178-.857.867.335 1.03.115 1.875-.463 2.385-1.36 1.199-1.993 2.053-1.572 3.874.46 1.986 2.432 3.265 4.418 2.805l1.75-.379z" fill="#F19020"/>
    <path d="M7.164 5.528a.514.514 0 0 1-.217-.221.444.444 0 0 1 .219-.618c2.37-1.017 4.277-.024 4.357.019.24.128.338.415.217.64-.12.226-.411.304-.652.178-.068-.035-1.573-.796-3.487.026a.508.508 0 0 1-.437-.024zm6.742 2.084a.513.513 0 0 1-.201-.236.445.445 0 0 1 .26-.602c2.434-.853 4.27.267 4.346.315.23.144.308.437.173.654-.134.217-.43.275-.661.133-.067-.04-1.515-.901-3.482-.211a.514.514 0 0 1-.435-.053z" fill="#65471B"/>
</svg>
