<svg width="24" height="24" viewBox="0 0 24 24" fill="none" xmlns="http://www.w3.org/2000/svg">
    <path d="M21.42 12.047c0 .28-.067.541-.178.78-.745 2.403-4.233 2.227-9.194 2.345-.83.02-.355.999-.064 3.149.19 1.398-.712 3.545-2.228 3.545-2.499 0-.095-1.971-2.304-6.845-1.18-2.605-3.82-1.146-3.82-3.762V5.304c0-1.018.1-1.997 1.532-2.158C6.553 2.99 6.241 2 8.244 2h10.024c1.02 0 1.851.831 1.851 1.852 0 .424-.148.81-.387 1.121.566.318.955.916.955 1.61 0 .423-.148.809-.386 1.12.568.317.958.916.958 1.612 0 .505-.205.963-.534 1.298.42.34.695.853.695 1.434z" fill="#FFDB5E"/>
    <path d="M14.789 10.195h4.78c.65 0 1.26.348 1.592.907a.486.486 0 0 1-.837.496.882.882 0 0 0-.756-.43h-4.894a.88.88 0 0 0 0 1.758h3.27a.486.486 0 0 1 0 .972h-3.27a1.854 1.854 0 0 1-1.852-1.851c0-.57.264-1.074.67-1.414a1.845 1.845 0 0 1-.555-1.318c0-.571.265-1.077.673-1.416a1.843 1.843 0 0 1 .233-2.822 1.837 1.837 0 0 1-.474-1.225c0-1.02.831-1.851 1.852-1.851h3.047c.65 0 1.26.347 1.593.906a.486.486 0 0 1-.836.497.886.886 0 0 0-.757-.431H15.22a.88.88 0 0 0 0 1.759h3.615c.65 0 1.26.347 1.592.907a.486.486 0 1 1-.835.497.873.873 0 0 0-.757-.432h-3.924a.88.88 0 0 0 0 1.76h4.495c.65 0 1.26.347 1.592.906a.486.486 0 0 1-.835.497.874.874 0 0 0-.757-.431h-4.618a.88.88 0 0 0 0 1.759z" fill="#EE9547"/>
</svg>
