<svg width="24" height="24" viewBox="0 0 24 24" fill="none" xmlns="http://www.w3.org/2000/svg">
    <path d="M12.38 6.615c.901 0 2.033-.61 2.707-1.423.61-.738 1.056-1.768 1.056-2.798 0-.14-.013-.28-.04-.394-1.004.038-2.21.673-2.936 1.525-.572.65-1.094 1.667-1.094 2.71 0 .152.026.304.038.354.064.013.166.026.267.026h.001ZM9.2 22c1.234 0 1.78-.827 3.319-.827 1.564 0 1.906.802 3.28.802 1.348 0 2.25-1.246 3.102-2.467.954-1.4 1.349-2.772 1.373-2.836-.089-.025-2.67-1.08-2.67-4.042 0-2.569 2.034-3.726 2.149-3.815-1.348-1.933-3.395-1.983-3.954-1.983-1.514 0-2.746.915-3.522.915-.84 0-1.946-.865-3.255-.865C6.529 6.882 4 8.942 4 12.832c0 2.416.94 4.972 2.097 6.625C7.088 20.857 7.954 22 9.2 22Z" fill="#000"/>
</svg>
