<svg width="24" height="24" viewBox="0 0 24 24" xmlns="http://www.w3.org/2000/svg">
    <path d="M7.443 5.35c.639 0 1.23.05 1.77.198.49.09.958.275 1.377.544.394.247.689.594.885 1.039.197.445.295.99.295 1.583 0 .693-.147 1.286-.491 1.731-.295.446-.787.841-1.377 1.138.836.248 1.475.693 1.868 1.286.394.594.64 1.336.64 2.177 0 .693-.148 1.286-.394 1.781-.246.495-.639.94-1.082 1.237a5.079 5.079 0 01-1.573.692c-.59.149-1.18.248-1.77.248H1V5.35h6.443zm-.394 5.54c.541 0 .984-.148 1.328-.395.344-.247.492-.693.492-1.237 0-.297-.05-.594-.148-.791-.098-.198-.246-.347-.442-.495-.197-.099-.394-.198-.64-.247-.246-.05-.491-.05-.787-.05H4v3.216h3.05l-.001-.001zm.148 5.838c.295 0 .59-.05.836-.099.248-.047.483-.149.688-.297.2-.145.368-.33.492-.544.098-.247.197-.544.197-.89 0-.693-.197-1.188-.59-1.534-.394-.297-.935-.445-1.574-.445H4v3.81h3.197v-.001zm9.492-.05c.393.396.983.594 1.77.594.541 0 1.033-.148 1.426-.395.394-.297.64-.594.738-.891h2.41c-.394 1.187-.984 2.028-1.77 2.572-.788.495-1.722.792-2.853.792a5.754 5.754 0 01-2.115-.396 3.93 3.93 0 01-1.574-1.088 3.93 3.93 0 01-.983-1.633c-.246-.643-.345-1.335-.345-2.127 0-.742.099-1.434.345-2.078a5.34 5.34 0 011.032-1.682c.443-.445.984-.84 1.574-1.088a5.49 5.49 0 012.066-.396c.836 0 1.574.149 2.213.495.64.346 1.131.742 1.525 1.336a6.01 6.01 0 01.885 1.88c.098.692.147 1.385.098 2.176H16c0 .792.295 1.534.689 1.93v-.001zm3.098-5.194c-.344-.346-.885-.544-1.525-.544a2.34 2.34 0 00-1.082.247c-.295.149-.491.347-.688.545-.181.191-.3.432-.344.692-.05.248-.099.445-.099.643h4.426c-.098-.742-.344-1.236-.688-1.583zM15.459 6.29h5.508v1.336H15.46V6.29h-.001z"/>
</svg>
