<svg xmlns="http://www.w3.org/2000/svg" viewBox="0 0 47.834 47.834"><path d="M46.878 41.834H.956L.96 40.83c.022-4.066 2.87-7.55 6.76-8.438V20.697c0-8.93 7.265-16.197 16.196-16.197 8.932 0 16.198 7.266 16.198 16.197v11.695c3.89.89 6.737 4.372 6.76 8.437l.004 1zm-43.836-2h41.75c-.458-2.908-2.804-5.24-5.8-5.61l-.878-.107v-13.42c0-7.828-6.37-14.197-14.198-14.197S9.72 12.87 9.72 20.697v13.42l-.878.106c-2.997.37-5.342 2.702-5.8 5.61z"/><path d="M21.125 5.988h-2V4.792C19.125 2.15 21.275 0 23.917 0s4.79 2.15 4.79 4.792v1.176h-2V4.792c0-1.54-1.25-2.792-2.79-2.792s-2.792 1.253-2.792 2.792v1.196zm2.778 41.846c-3.94 0-7.375-2.8-8.164-6.656l1.954-.4c.6 2.93 3.21 5.057 6.205 5.057 3.06 0 5.677-2.18 6.23-5.18l1.966.36c-.725 3.952-4.17 6.82-8.195 6.82zM8.72 32.23h3.682v2H8.72zm9.447 0h20.947v2H18.167z"/></svg>