<svg width="24" height="24" xmlns="http://www.w3.org/2000/svg"><path d="M23.52 20.99H.48l.002-.504a4.376 4.376 0 013.391-4.234v-5.868c0-4.48 3.646-8.126 8.127-8.126 4.481 0 8.127 3.645 8.127 8.126v5.868a4.378 4.378 0 013.391 4.233l.002.502v.003zM1.526 19.986h20.948a3.372 3.372 0 00-2.91-2.815l-.44-.053v-6.734c0-3.927-3.197-7.123-7.124-7.123-3.928 0-7.123 3.196-7.123 7.123v6.734l-.44.053a3.371 3.371 0 00-2.91 2.815z"/><path d="M10.6 3.004H9.595v-.6A2.407 2.407 0 0112 0a2.406 2.406 0 012.403 2.404v.59H13.4v-.59a1.401 1.401 0 00-2.8 0v.6zM11.992 24a4.195 4.195 0 01-4.096-3.34l.98-.2a3.188 3.188 0 003.114 2.537 3.176 3.176 0 003.125-2.599l.987.18A4.177 4.177 0 0111.99 24h.002zm-7.618-7.83h1.848v1.004H4.375v-1.003zm4.74 0h10.51v1.004H9.115v-1.003z" fill="#000"/></svg>