<svg width="24" height="24" viewBox="0 0 24 24" fill="none" xmlns="http://www.w3.org/2000/svg">
<path fill-rule="evenodd" clip-rule="evenodd" d="M23.8992 5.99448C22.7937 3.48158 20.921 1.38317 18.5496 0L17.5419 1.72761C19.5485 2.89799 21.1331 4.67356 22.0686 6.79987L23.8992 5.99448ZM1.93126 6.79987C2.8667 4.67356 4.45127 2.89799 6.45786 1.72761L5.45021 0C3.07878 1.38317 1.2061 3.48158 0.100586 5.99448L1.93126 6.79987ZM22 17H20V10C20 7.87827 19.1571 5.84344 17.6569 4.34315C16.1566 2.84285 14.1217 2 12 2C9.87827 2 7.84344 2.84285 6.34315 4.34315C4.84285 5.84344 4 7.87827 4 10V17H2V19H22V17ZM15 23V21H9V23H15Z" fill="#171717"/>
</svg>
