<?xml version='1.0' encoding='utf-8'?>
<svg version="1.1" xmlns="http://www.w3.org/2000/svg" viewBox="0 0 129 129" xmlns:xlink="http://www.w3.org/1999/xlink" enable-background="new 0 0 129 129">
  <g>
    <path d="m40.4,121.3l24.1-24.3 24.1,24.3c0.8,0.8 1.8,1.2 2.9,1.2 0.5,0 1-0.1 1.6-0.3 1.5-0.6 2.5-2.1 2.5-3.8v-107.8c0-2.3-1.8-4.1-4.1-4.1h-54c-2.3,0-4.1,1.8-4.1,4.1v107.8c0,1.7 1,3.1 2.5,3.8 1.6,0.6 3.4,0.3 4.5-0.9zm1.2-106.6h45.7v93.8l-20-20.2c-0.8-0.8-1.8-1.2-2.9-1.2-1.1,0-2.1,0.4-2.9,1.2l-20,20.2v-93.8z"/>
  </g>
</svg>
