<svg xmlns="http://www.w3.org/2000/svg" xmlns:xlink="http://www.w3.org/1999/xlink" viewBox="0 0 45.76 32.66"><defs><style>.cls-1,.cls-12,.cls-13{fill:none;}.cls-2{isolation:isolate;}.cls-3{clip-path:url(#clip-path);}.cls-4{clip-path:url(#clip-path-2);}.cls-5{clip-path:url(#clip-path-3);}.cls-6{clip-path:url(#clip-path-4);}.cls-7{clip-path:url(#clip-path-5);}.cls-8{clip-path:url(#clip-path-6);}.cls-9{clip-path:url(#clip-path-7);}.cls-10{clip-path:url(#clip-path-8);}.cls-11{fill:#fff;}.cls-12{stroke:#000;stroke-miterlimit:10;stroke-width:1.25px;}.cls-13{stroke:#5fcec0;stroke-linecap:round;stroke-linejoin:round;stroke-width:1.8px;}</style><clipPath id="clip-path"><path class="cls-1" d="M7,27.21l1.47.05a15.13,15.13,0,0,0-1.76,4.51l-1.47-.05A15.13,15.13,0,0,1,7,27.21Z"/></clipPath><clipPath id="clip-path-2"><path class="cls-1" d="M11.09,29l1.47.05c-4,3-5.4,3.53-6,3.51l-1.47-.05C5.69,32.58,7.07,32,11.09,29Z"/></clipPath><clipPath id="clip-path-3"><path class="cls-1" d="M14,1.25l1.47.05C8.42,1.35,2.73,7.52,2.77,15A13.88,13.88,0,0,0,8.65,26.46L7.17,26.4A13.88,13.88,0,0,1,1.3,15C1.25,7.47,6.95,1.3,14,1.25Z"/></clipPath><clipPath id="clip-path-4"><path class="cls-1" d="M11.1,28.19l1.47.05a12.18,12.18,0,0,0,2.54.36l-1.47-.05A12.18,12.18,0,0,1,11.1,28.19Z"/></clipPath><clipPath id="clip-path-5"><path class="cls-1" d="M15.08,29.43l-1.47-.05h.55l1.47.05Z"/></clipPath><clipPath id="clip-path-6"><path class="cls-1" d="M31.13,1.14l1.47.05h-.52l-1.47-.05Z"/></clipPath><clipPath id="clip-path-7"><path class="cls-1" d="M31.18.31l1.47.05a13,13,0,0,1,9.07,4.17,14.88,14.88,0,0,1,4,10.2l-1.47-.05a14.88,14.88,0,0,0-4-10.2A13,13,0,0,0,31.18.31Z"/></clipPath><clipPath id="clip-path-8"><path class="cls-1" d="M44.29,14.69l1.47.05A14.94,14.94,0,0,1,41.85,25a13.09,13.09,0,0,1-9.59,4.32l-1.47-.05A13.09,13.09,0,0,0,40.37,25,14.94,14.94,0,0,0,44.29,14.69Z"/></clipPath></defs><title>comment-bubble_1</title><g id="Layer_2" data-name="Layer 2"><g id="Layer_2-2" data-name="Layer 2"><g class="cls-2"><g class="cls-2"><g class="cls-3"><g class="cls-2"><path d="M7,27.21l1.47.05c-.36.69-.69,1.38-1,2l-1.47-.05c.27-.62.6-1.31,1-2"/><path d="M6.08,29.22l1.47.05a17.11,17.11,0,0,0-.63,1.65l-1.47-.05a17.11,17.11,0,0,1,.63-1.65"/><path d="M5.45,30.86l1.47.05a5.23,5.23,0,0,0-.14.51l-1.47-.05a5.23,5.23,0,0,1,.14-.51"/><path d="M5.31,31.38l1.47.05a2,2,0,0,0,0,.2l-1.47-.05a2,2,0,0,1,0-.2"/><path d="M5.28,31.58l1.47.05a1,1,0,0,0,0,.11l-1.47-.05a1,1,0,0,1,0-.11"/><path d="M5.28,31.69l1.47.05v0l-1.47-.05v0"/></g></g></g><polygon points="7.17 26.4 8.65 26.46 11.07 28.12 9.6 28.07 7.17 26.4"/><polygon points="10.92 28.15 12.39 28.2 12.58 28.24 11.1 28.19 10.92 28.15"/><g class="cls-2"><g class="cls-4"><g class="cls-2"><path d="M11.09,29l1.47.05c-4,3-5.4,3.53-6,3.51l-1.47-.05c.57,0,1.95-.51,6-3.51"/></g></g></g><g class="cls-2"><g class="cls-5"><g class="cls-2"><path d="M14,1.25l1.47.05A12.44,12.44,0,0,0,5.84,6.1L4.36,6A12.44,12.44,0,0,1,14,1.25"/><path d="M4.36,6l1.47.05A13.73,13.73,0,0,0,4.71,7.74L3.23,7.69A13.73,13.73,0,0,1,4.36,6"/><path d="M3.23,7.69l1.47.05A14,14,0,0,0,4,9.22L2.48,9.17a14,14,0,0,1,.75-1.48"/><path d="M2.48,9.17,4,9.22a14.13,14.13,0,0,0-.53,1.44L1.95,10.6a14.13,14.13,0,0,1,.53-1.44"/><path d="M1.95,10.6l1.47.05a14.28,14.28,0,0,0-.37,1.44L1.58,12a14.28,14.28,0,0,1,.37-1.44"/><path d="M1.58,12l1.47.05a14.45,14.45,0,0,0-.22,1.51l-1.47-.05A14.45,14.45,0,0,1,1.58,12"/><path d="M1.36,13.56l1.47.05q-.07.71-.06,1.44,0,.11,0,.21L1.3,15.21q0-.11,0-.21,0-.73.06-1.44"/><path d="M1.3,15.21l1.47.05a14.63,14.63,0,0,0,.16,1.86l-1.47-.05a14.63,14.63,0,0,1-.16-1.86"/><path d="M1.46,17.07l1.47.05a14.37,14.37,0,0,0,.58,2.43L2,19.5a14.37,14.37,0,0,1-.58-2.43"/><path d="M2,19.5l1.47.05A13.74,13.74,0,0,0,6.85,25l-1.47-.05A13.74,13.74,0,0,1,2,19.5"/><path d="M5.38,24.92,6.85,25a13.1,13.1,0,0,0,1.78,1.48L7.16,26.4a13.1,13.1,0,0,1-1.78-1.48"/><path d="M7.16,26.4l1.47.05h0L7.17,26.4h0"/></g></g></g><g class="cls-2"><g class="cls-6"><g class="cls-2"><path d="M11.1,28.19l1.47.05a12.2,12.2,0,0,0,1.21.24l-1.47-.05a12.2,12.2,0,0,1-1.21-.24"/><path d="M12.31,28.43l1.47.05a12.09,12.09,0,0,0,1.33.12l-1.47-.05a12.09,12.09,0,0,1-1.33-.12"/><polyline points="13.64 28.55 15.12 28.6 15.12 28.6 13.64 28.55 13.64 28.55"/></g></g></g><g class="cls-2"><g class="cls-7"><g class="cls-2"><path d="M14.16,29.39l1.47.05h-.55l-1.47-.05h.55"/></g></g></g><polygon points="30.61 1.13 32.09 1.19 15.47 1.3 13.99 1.25 30.61 1.13"/><g class="cls-2"><g class="cls-8"><g class="cls-2"><path d="M31.13,1.14l1.47.05h-.52l-1.47-.05h.52"/></g></g></g><polygon points="30.79 29.27 32.26 29.32 15.63 29.44 14.16 29.39 30.79 29.27"/><g class="cls-2"><g class="cls-9"><g class="cls-2"><polyline points="31.18 0.31 32.66 0.36 32.66 0.36 31.19 0.31 31.18 0.31"/><path d="M31.19.31l1.47.05a12.84,12.84,0,0,1,1.41.13L32.6.44A12.84,12.84,0,0,0,31.19.31"/><path d="M32.6.44l1.47.05a12.73,12.73,0,0,1,1.33.27L33.93.71A12.73,12.73,0,0,0,32.6.44"/><path d="M33.93.71l1.47.05a12.75,12.75,0,0,1,1.31.41l-1.47-.05A12.75,12.75,0,0,0,33.93.71"/><path d="M35.24,1.12l1.47.05a12.9,12.9,0,0,1,1.35.6l-1.47-.05a12.9,12.9,0,0,0-1.35-.6"/><path d="M36.59,1.72l1.47.05a13.2,13.2,0,0,1,1.48.89L38.06,2.6a13.2,13.2,0,0,0-1.48-.89"/><path d="M38.06,2.6l1.47.05A13.8,13.8,0,0,1,41.4,4.21l-1.47-.05A13.8,13.8,0,0,0,38.06,2.6"/><path d="M39.93,4.16l1.47.05.32.33A14.59,14.59,0,0,1,45,10l-1.47-.05a14.59,14.59,0,0,0-3.26-5.45l-.32-.33"/><path d="M43.51,9.93,45,10a15.16,15.16,0,0,1,.61,2.56l-1.47-.05a15.16,15.16,0,0,0-.61-2.56"/><path d="M44.12,12.49l1.47.05a15.57,15.57,0,0,1,.17,2l-1.47-.05a15.57,15.57,0,0,0-.17-2"/><path d="M44.29,14.48l1.47.05q0,.11,0,.21l-1.47-.05q0-.11,0-.21"/></g></g></g><path d="M44.29,14.69A14.94,14.94,0,0,1,40.37,25a13.09,13.09,0,0,1-9.59,4.32l-16.63.11h-.55A13.19,13.19,0,0,1,11.09,29c-4,3-5.4,3.53-6,3.51a.57.57,0,0,1-.37-.14c-.64-.51-.11-2.4,1.57-5.61A14.73,14.73,0,0,1,.48,15C.43,7,6.5.47,14,.42L30.61.31h.58a13,13,0,0,1,9.07,4.17A14.88,14.88,0,0,1,44.29,14.69Zm-4.51,9.7a14.11,14.11,0,0,0,3.69-9.7,14.07,14.07,0,0,0-3.81-9.63,12.28,12.28,0,0,0-8.53-3.92h-.52L14,1.25C6.95,1.3,1.25,7.47,1.3,15A13.88,13.88,0,0,0,7.17,26.4L9.6,28.07,7,27.21a15.13,15.13,0,0,0-1.76,4.51c.56-.1,2.43-1.18,5.48-3.46l.16-.11.19,0a12.18,12.18,0,0,0,2.54.36h.52l16.62-.11a12.32,12.32,0,0,0,9-4.05"/><g class="cls-2"><g class="cls-10"><g class="cls-2"><path d="M44.29,14.69l1.47.05q0,.77-.07,1.52l-1.47-.05q.07-.75.07-1.52"/><path d="M44.22,16.21l1.47.05a15.48,15.48,0,0,1-.23,1.61L44,17.82a15.48,15.48,0,0,0,.23-1.61"/><path d="M44,17.82l1.47.05a15.17,15.17,0,0,1-.39,1.53l-1.47-.05A15.17,15.17,0,0,0,44,17.82"/><path d="M43.6,19.35l1.47.05a14.91,14.91,0,0,1-.56,1.51L43,20.86a14.91,14.91,0,0,0,.56-1.51"/><path d="M43,20.86l1.47.05a14.68,14.68,0,0,1-.79,1.56l-1.47-.05A14.68,14.68,0,0,0,43,20.86"/><path d="M42.25,22.42l1.47.05a14.51,14.51,0,0,1-1.19,1.74l-1.47-.05a14.51,14.51,0,0,0,1.19-1.74"/><path d="M41.06,24.16l1.47.05q-.33.41-.68.79a13.09,13.09,0,0,1-9.59,4.32l-1.47-.05A13.09,13.09,0,0,0,40.37,25q.36-.38.68-.79"/></g></g></g></g><path class="cls-11" d="M30.71.63,13.88.74C6.51.79.57,7.13.63,14.9A14.26,14.26,0,0,0,6.76,26.64l-.11,0S4.07,31.41,4.8,32s4.72-2.49,6.07-3.49a12.72,12.72,0,0,0,3.19.38l16.83-.11c7.37,0,13.3-6.39,13.25-14.16S38.08.58,30.71.63Z"/><path class="cls-12" d="M30.71.63,13.88.74C6.51.79.57,7.13.63,14.9A14.26,14.26,0,0,0,6.76,26.64l-.11,0S4.07,31.41,4.8,32s4.72-2.49,6.07-3.49a12.72,12.72,0,0,0,3.19.38l16.83-.11c7.37,0,13.3-6.39,13.25-14.16S38.08.58,30.71.63Z"/><path class="cls-11" d="M9.62,24.93c.87.55,2.2,1.64,1.63,2.55S8.4,29.32,7.53,28.77,7,26.52,7.62,25.6,8.75,24.39,9.62,24.93Z"/><polyline class="cls-13" points="9.96 18.94 14.99 10.67 20.37 18.94 25.41 10.67 30.45 18.94 34.68 10.67"/></g></g></svg>