<svg xmlns="http://www.w3.org/2000/svg" viewBox="0 0 45.76 32.66">
    <defs>
        <clipPath id="clip-path">
            <path class="cls-1" d="M7 27.21l1.47.05a15.13 15.13 0 00-1.76 4.51l-1.47-.05A15.13 15.13 0 017 27.21z"/>
        </clipPath>
        <clipPath id="clip-path-2">
            <path class="cls-1" d="M11.09 29l1.47.05c-4 3-5.4 3.53-6 3.51l-1.47-.05c.6.07 1.98-.51 6-3.51z"/>
        </clipPath>
        <clipPath id="clip-path-3">
            <path class="cls-1" d="M14 1.25l1.47.05C8.42 1.35 2.73 7.52 2.77 15a13.88 13.88 0 005.88 11.46l-1.48-.06A13.88 13.88 0 011.3 15C1.25 7.47 6.95 1.3 14 1.25z"/>
        </clipPath>
        <clipPath id="clip-path-4">
            <path class="cls-1" d="M11.1 28.19l1.47.05a12.18 12.18 0 002.54.36l-1.47-.05a12.18 12.18 0 01-2.54-.36z"/>
        </clipPath>
        <clipPath id="clip-path-5">
            <path class="cls-1" d="M15.08 29.43l-1.47-.05h.55l1.47.05z"/>
        </clipPath>
        <clipPath id="clip-path-6">
            <path class="cls-1" d="M31.13 1.14l1.47.05h-.52l-1.47-.05z"/>
        </clipPath>
        <clipPath id="clip-path-7">
            <path class="cls-1" d="M31.18.31l1.47.05a13 13 0 019.07 4.17 14.88 14.88 0 014 10.2l-1.47-.05a14.88 14.88 0 00-4-10.2A13 13 0 0031.18.31z"/>
        </clipPath>
        <clipPath id="clip-path-8">
            <path class="cls-1" d="M44.29 14.69l1.47.05A14.94 14.94 0 0141.85 25a13.09 13.09 0 01-9.59 4.32l-1.47-.05A13.09 13.09 0 0040.37 25a14.94 14.94 0 003.92-10.31z"/>
        </clipPath>
        <style>
            .cls-1{fill:none}.cls-2{isolation:isolate}.cls-11{fill:#fff}
        </style>
    </defs>
    <g id="Layer_2" data-name="Layer 2">
        <g id="Layer_2-2" data-name="Layer 2">
            <g class="cls-2">
                <g class="cls-2">
                    <g class="cls-2" clip-path="url(#clip-path)">
                        <path d="M7 27.21l1.47.05c-.36.69-.69 1.38-1 2L6 29.21c.27-.62.6-1.31 1-2m-.92 2.01l1.47.05a17.11 17.11 0 00-.63 1.65l-1.47-.05a17.11 17.11 0 01.63-1.65"/>
                        <path d="M5.45 30.86l1.47.05a5.23 5.23 0 00-.14.51l-1.47-.05a5.23 5.23 0 01.14-.51m-.14.52l1.47.05a2 2 0 000 .2l-1.47-.05a2 2 0 010-.2m-.03.2l1.47.05a1 1 0 000 .11l-1.47-.05a1 1 0 010-.11m0 .11l1.47.05-1.47-.05"/>
                    </g>
                </g>
                <path d="M7.17 26.4l1.48.06 2.42 1.66-1.47-.05-2.43-1.67zm3.75 1.75l1.47.05.19.04-1.48-.05-.18-.04z"/>
                <g clip-path="url(#clip-path-2)">
                    <path d="M11.09 29l1.47.05c-4 3-5.4 3.53-6 3.51l-1.47-.05c.57 0 1.95-.51 6-3.51"/>
                </g>
                <g class="cls-2">
                    <g class="cls-2" clip-path="url(#clip-path-3)">
                        <path d="M14 1.25l1.47.05a12.44 12.44 0 00-9.63 4.8L4.36 6A12.44 12.44 0 0114 1.25"/>
                        <path d="M4.36 6l1.47.05a13.73 13.73 0 00-1.12 1.69l-1.48-.05A13.73 13.73 0 014.36 6"/>
                        <path d="M3.23 7.69l1.47.05A14 14 0 004 9.22l-1.52-.05a14 14 0 01.75-1.48"/>
                        <path d="M2.48 9.17L4 9.22a14.13 14.13 0 00-.53 1.44l-1.52-.06a14.13 14.13 0 01.53-1.44"/>
                        <path d="M1.95 10.6l1.47.05a14.28 14.28 0 00-.37 1.44L1.58 12a14.28 14.28 0 01.37-1.44"/>
                        <path d="M1.58 12l1.47.05a14.45 14.45 0 00-.22 1.51l-1.47-.05A14.45 14.45 0 011.58 12m-.22 1.56l1.47.05q-.07.71-.06 1.44v.21l-1.47-.05V15q0-.73.06-1.44m-.06 1.65l1.47.05a14.63 14.63 0 00.16 1.86l-1.47-.05a14.63 14.63 0 01-.16-1.86m.16 1.86l1.47.05a14.37 14.37 0 00.58 2.43L2 19.5a14.37 14.37 0 01-.58-2.43M2 19.5l1.47.05A13.74 13.74 0 006.85 25l-1.47-.05A13.74 13.74 0 012 19.5"/>
                        <path d="M5.38 24.92l1.47.08a13.1 13.1 0 001.78 1.48l-1.47-.08a13.1 13.1 0 01-1.78-1.48"/>
                        <path d="M7.16 26.4l1.47.05-1.46-.05"/>
                    </g>
                </g>
                <g class="cls-2">
                    <g class="cls-2" clip-path="url(#clip-path-4)">
                        <path d="M11.1 28.19l1.47.05a12.2 12.2 0 001.21.24l-1.47-.05a12.2 12.2 0 01-1.21-.24"/>
                        <path d="M12.31 28.43l1.47.05a12.09 12.09 0 001.33.12l-1.47-.05a12.09 12.09 0 01-1.33-.12m1.33.12l1.48.05-1.48-.05"/>
                    </g>
                </g>
                <g clip-path="url(#clip-path-5)">
                    <path d="M14.16 29.39l1.47.05h-.55l-1.47-.05h.55"/>
                </g>
                <path d="M30.61 1.13l1.48.06-16.62.11-1.48-.05 16.62-.12z"/>
                <g clip-path="url(#clip-path-6)">
                    <path d="M31.13 1.14l1.47.05h-.52l-1.47-.05h.52"/>
                </g>
                <path d="M30.79 29.27l1.47.05-16.63.12-1.47-.05 16.63-.12z"/>
                <g class="cls-2">
                    <g class="cls-2" clip-path="url(#clip-path-7)">
                        <path d="M31.18.31l1.48.05-1.47-.05h-.01"/>
                        <path d="M31.19.31l1.47.05a12.84 12.84 0 011.41.13L32.6.44a12.84 12.84 0 00-1.41-.13"/>
                        <path d="M32.6.44l1.47.05a12.73 12.73 0 011.33.27L33.93.71A12.73 12.73 0 0032.6.44"/>
                        <path d="M33.93.71l1.47.05a12.75 12.75 0 011.31.41l-1.47-.05a12.75 12.75 0 00-1.31-.41m1.31.41l1.47.05a12.9 12.9 0 011.35.6l-1.47-.05a12.9 12.9 0 00-1.35-.6"/>
                        <path d="M36.59 1.72l1.47.05a13.2 13.2 0 011.48.89l-1.48-.06a13.2 13.2 0 00-1.48-.89"/>
                        <path d="M38.06 2.6l1.47.05a13.8 13.8 0 011.87 1.56l-1.47-.05a13.8 13.8 0 00-1.87-1.56"/>
                        <path d="M39.93 4.16l1.47.05.32.33A14.59 14.59 0 0145 10l-1.47-.05a14.59 14.59 0 00-3.26-5.45l-.32-.33"/>
                        <path d="M43.51 9.93L45 10a15.16 15.16 0 01.61 2.56l-1.47-.05a15.16 15.16 0 00-.61-2.56"/>
                        <path d="M44.12 12.49l1.47.05a15.57 15.57 0 01.17 2l-1.47-.05a15.57 15.57 0 00-.17-2"/>
                        <path d="M44.29 14.48l1.47.05v.21l-1.47-.05v-.21"/>
                    </g>
                </g>
                <path d="M44.29 14.69A14.94 14.94 0 0140.37 25a13.09 13.09 0 01-9.59 4.32l-16.63.11h-.55a13.19 13.19 0 01-2.51-.43c-4 3-5.4 3.53-6 3.51a.57.57 0 01-.37-.14c-.64-.51-.11-2.4 1.57-5.61A14.73 14.73 0 01.48 15C.43 7 6.5.47 14 .42L30.61.31h.58a13 13 0 019.07 4.17 14.88 14.88 0 014.03 10.21zm-4.51 9.7a14.11 14.11 0 003.69-9.7 14.07 14.07 0 00-3.81-9.63 12.28 12.28 0 00-8.53-3.92h-.52L14 1.25C6.95 1.3 1.25 7.47 1.3 15a13.88 13.88 0 005.87 11.4l2.43 1.67-2.6-.86a15.13 15.13 0 00-1.76 4.51c.56-.1 2.43-1.18 5.48-3.46l.16-.11h.19a12.18 12.18 0 002.54.36h.52l16.62-.11a12.32 12.32 0 009-4.05"/>
                <g class="cls-2">
                    <g class="cls-2" clip-path="url(#clip-path-8)">
                        <path d="M44.29 14.69l1.47.05q0 .77-.07 1.52l-1.47-.05q.07-.75.07-1.52"/>
                        <path d="M44.22 16.21l1.47.05a15.48 15.48 0 01-.23 1.61L44 17.82a15.48 15.48 0 00.23-1.61"/>
                        <path d="M44 17.82l1.47.05a15.17 15.17 0 01-.39 1.53l-1.47-.05a15.17 15.17 0 00.39-1.53m-.4 1.53l1.47.05a14.91 14.91 0 01-.56 1.51L43 20.86a14.91 14.91 0 00.56-1.51M43 20.86l1.47.05a14.68 14.68 0 01-.79 1.56l-1.47-.05a14.68 14.68 0 00.79-1.56"/>
                        <path d="M42.25 22.42l1.47.05a14.51 14.51 0 01-1.19 1.74l-1.47-.05a14.51 14.51 0 001.19-1.74"/>
                        <path d="M41.06 24.16l1.47.05q-.33.41-.68.79a13.09 13.09 0 01-9.59 4.32l-1.47-.05A13.09 13.09 0 0040.37 25q.36-.38.68-.79"/>
                    </g>
                </g>
            </g>
            <path class="cls-11" d="M30.71.63L13.88.74C6.51.79.57 7.13.63 14.9a14.26 14.26 0 006.13 11.74h-.11S4.07 31.41 4.8 32s4.72-2.49 6.07-3.49a12.72 12.72 0 003.19.38l16.83-.11c7.37 0 13.3-6.39 13.25-14.16S38.08.58 30.71.63z"/>
            <path d="M30.71.63L13.88.74C6.51.79.57 7.13.63 14.9a14.26 14.26 0 006.13 11.74h-.11S4.07 31.41 4.8 32s4.72-2.49 6.07-3.49a12.72 12.72 0 003.19.38l16.83-.11c7.37 0 13.3-6.39 13.25-14.16S38.08.58 30.71.63z" stroke="#000" stroke-miterlimit="10" stroke-width="1.25" fill="none"/>
            <path class="cls-11" d="M9.62 24.93c.87.55 2.2 1.64 1.63 2.55s-2.85 1.84-3.72 1.29-.53-2.25.09-3.17 1.13-1.21 2-.67z"/>
            <path stroke="#5fcec0" stroke-linecap="round" stroke-linejoin="round" stroke-width="1.8" fill="none" d="M9.96 18.94l5.03-8.27 5.38 8.27 5.04-8.27 5.04 8.27 4.23-8.27"/>
        </g>
    </g>
</svg>
