<svg width="24" height="24" xmlns="http://www.w3.org/2000/svg"><g clip-path="url(#clip0)"><path d="M23.91 3.155a.397.397 0 00-.356-.14.381.381 0 00-.09.015L.294 9.332a.4.4 0 00-.02.765l8.479 2.778-.759 6.066a.4.4 0 00.64.367l3.102-2.376 2.72 3.886c.075.107.198.17.327.17h.028a.399.399 0 00.328-.217l8.816-17.182a.397.397 0 00-.044-.434zm-2.774 1.337L9.135 12.159 1.792 9.753l19.344-5.261zM8.905 18.093l.552-4.416 1.82 2.6-2.372 1.816zm5.825 1.724L9.758 12.71l12.826-8.195-7.851 15.302z" fill="#000"/></g><defs><clipPath id="clip0"><path fill="#fff" d="M0 0h24v24H0z"/></clipPath></defs></svg>