<svg width="24" height="24" xmlns="http://www.w3.org/2000/svg"><path d="M23.91 2.16a.377.377 0 00-.356-.157.348.348 0 00-.09.018L.296 9.03A.44.44 0 000 9.45a.445.445 0 00.275.434l8.478 3.09-.758 5.75a.461.461 0 00.197.44.368.368 0 00.442-.033l3.103-1.643 2.72 4.323a.389.389 0 00.354.19.4.4 0 00.328-.242l8.816-19.115a.482.482 0 00-.044-.483zm-2.774 1.487l-12.001 8.53L1.792 9.5l19.344-5.853zM8.906 17.779l.552-3.914 1.82 2.893-2.372 1.02zm5.826 2.917L9.757 12.79l12.827-9.117-7.852 17.023z" fill="#000"/></svg>