<?xml version="1.0" encoding="iso-8859-1"?>
<!-- Generator: Adobe Illustrator 19.1.0, SVG Export Plug-In . SVG Version: 6.00 Build 0)  -->
<svg version="1.1" id="Capa_1" xmlns="http://www.w3.org/2000/svg" xmlns:xlink="http://www.w3.org/1999/xlink" x="0px" y="0px"
	 viewBox="0 0 333.842 333.842" style="enable-background:new 0 0 333.842 333.842;" xml:space="preserve">
<g>
	<path d="M166.911,333.842C74.879,333.842,0,258.963,0,166.918C0,74.885,74.873,0,166.911,0
		c92.045,0,166.931,74.879,166.931,166.918C333.835,258.963,258.956,333.842,166.911,333.842z M166.911,12.86
		c-84.95,0-154.058,69.114-154.058,154.064c0,84.956,69.108,154.07,154.058,154.07c84.956,0,154.077-69.114,154.077-154.07
		C320.982,81.974,251.868,12.86,166.911,12.86z M234.74,252.87c15.945-5.977,29.024-17.59,36.819-32.713
		c2.442-4.724,0.585-10.546-4.152-12.989c-4.724-2.436-10.54-0.591-12.989,4.152c-5.604,10.855-15,19.197-26.459,23.496
		c-11.485,4.325-24.088,4.21-35.483-0.315c-4.942-1.967-10.553,0.456-12.513,5.411c-1.967,4.949,0.456,10.553,5.411,12.513
		c8.124,3.22,16.684,4.833,25.251,4.833C218.789,257.26,226.957,255.801,234.74,252.87z M237.639,99.475
		c-24.428,0-47.321,10.077-68.915,9.068c-0.559-0.039-1.163-0.051-1.806-0.045c-0.643-0.006-1.24,0.006-1.812,0.045
		c-21.575,1.009-44.474-9.068-68.902-9.068c-24.531,0-49.506,7.963-49.506,7.963v12.172c0,0,6.189,5.116,7.738,9.216
		c1.542,4.094,8.554,32.366,13.259,37.713c4.704,5.347,7.963,16.253,38.227,15.964c43.105-1.028,51.479-45.631,53.047-51.53
		c0.945-4.004,5.135-3.798,7.95-3.863c2.821,0.064,7.018-0.141,7.95,3.863c1.575,5.9,9.949,50.496,53.041,51.53
		c30.277,0.289,33.542-10.617,38.233-15.964s11.71-33.619,13.259-37.713c1.542-4.1,7.738-9.216,7.738-9.216v-12.172
		C287.145,107.437,262.163,99.475,237.639,99.475z"/>
</g>
</svg>
