<svg version="1" xmlns="http://www.w3.org/2000/svg" viewBox="0 0 293 180"><path d="M81 1782 c-19 -9 -44 -30 -55 -45 -21 -28 -21 -35 -21 -837 0 -802 0 -809 21 -837 11 -15 36 -36 55 -45 32 -17 118 -18 1384 -18 1266 0 1352 1 1384 18 19 9 44 30 55 45 21 28 21 35 21 837 0 802 0 809 -21 837 -11 15 -36 36 -55 45 -32 17 -118 18 -1384 18 -1266 0 -1352 -1 -1384 -18z m814 -409 c50 -26 118 -98 142 -150 16 -34 18 -71 18 -348 0 -294 -1 -312 -21 -356 -31 -66 -78 -114 -142 -146 -56 -27 -61 -28 -259 -31 l-203 -4 0 532 0 531 213 -3 c195 -3 215 -5 252 -25z m795 -83 l0 -110 -165 0 -165 0 0 -100 0 -100 100 0 100 0 0 -110 0 -110 -100 0 -100 0 0 -100 0 -100 165 0 165 0 0 -110 0 -110 -225 0 c-248 0 -260 2 -309 60 l-26 32 0 434 c0 480 -1 476 63 514 29 18 52 20 265 20 l232 0 0 -110z m381 -194 c43 -164 80 -303 81 -308 2 -5 39 129 83 297 43 169 84 309 90 311 6 3 63 3 126 2 l116 -3 -123 -462 c-67 -253 -128 -472 -134 -485 -47 -90 -145 -132 -219 -94 -35 19 -83 73 -99 112 -6 16 -64 227 -128 468 -64 242 -118 446 -121 453 -4 11 18 13 123 11 l128 -3 77 -299z" transform="matrix(.1 0 0 -.1 0 180)"/><path d="M660 870 l0 -310 45 0 c52 0 99 21 115 49 6 12 10 116 10 266 l0 247 -29 29 c-26 25 -37 29 -85 29 l-56 0 0 -310z" transform="matrix(.1 0 0 -.1 0 180)"/></svg>