<svg data-name="Layer 1" xmlns="http://www.w3.org/2000/svg" viewBox="0 0 1129 586">
    <path d="M246.08 325.2q0 23.78-15.29 39.06t-40.14 15.28h-53.26v-190.2h54.34q23.78 0 39.06 15.28t15.29 39.06zm-34 0v-81.52q0-10.19-6.79-15.28t-13.59-5.1h-20.34v122.28h20.37q6.79 0 13.59-5.1t6.79-15.28zm149.48 54.34h-71.32a23.21 23.21 0 01-23.78-23.77V213.11a23.21 23.21 0 0123.78-23.77h71.32v34h-61.13v44.16h37.36v34h-37.36v44.16h61.13zm91.71 0q-17 0-27.17-23.77l-44.16-166.43h37.37l34 130.7 34-130.7h37.29l-44.15 166.43q-10.2 23.78-27.18 23.77z" fill="#020001" stroke="#fff" stroke-miterlimit="10"/>
    <path d="M609.49 332.41H532l.78-2.64q6.95 0 10.13-2.69t5.9-12.05l18-62.3a31.16 31.16 0 001.51-8.09 5.56 5.56 0 00-2.15-4.57c-1.43-1.15-4.25-1.82-8.44-2l.78-2.64h46.57l-.79 2.64q-6.72.15-10.05 3t-5.9 11.66l-16.45 57q-3.15 10.88-3.15 13.23a3.48 3.48 0 001.61 2.68c1.08.84 2.8 1.25 5.19 1.25a51.36 51.36 0 0022.92-5.43 49.67 49.67 0 0018.71-16.24h3zm54.08-66.31L648.91 317a28.37 28.37 0 00-1.22 5.72 2.1 2.1 0 00.65 1.47 1.88 1.88 0 001.36.68 3.72 3.72 0 002.43-1.07q3.21-2.65 7.72-9.59l2.43 1.43q-10.8 18.81-23 18.82a10.31 10.31 0 01-7.4-2.62 8.69 8.69 0 01-2.75-6.61 24.55 24.55 0 011.21-6.73l9.94-34.19a29.24 29.24 0 001.43-7.44 3.67 3.67 0 00-1.31-2.87 5.39 5.39 0 00-3.72-1.21c-.72 0-1.58 0-2.58.07l.9-2.86 24.25-3.94zm-4.43-32.9a10.51 10.51 0 11-10.45 10.51 10.21 10.21 0 013-7.43 10 10 0 017.45-3.08zm62.3 32.9l-3.15 22.11h-2.64q-.58-8.59-5.26-13.52c-3.13-3.29-6.47-4.94-10-4.94a7.85 7.85 0 00-5.44 1.93 6 6 0 00-2.14 4.65 10 10 0 00.93 4.29 23.56 23.56 0 004.14 5.44q11.31 12.17 13.74 16.74a20.59 20.59 0 012.43 9.8 21.29 21.29 0 01-2.86 10.69 20.86 20.86 0 01-8.55 8.09 24.87 24.87 0 01-11.84 3 40.44 40.44 0 01-10.23-1.65 24.47 24.47 0 00-6-1.15 5.9 5.9 0 00-2.79.54 7.28 7.28 0 00-2.22 2.26h-2.65l3.51-23.82h2.29c1.66 5.77 3.23 9.88 4.68 12.33a16.48 16.48 0 005.83 5.87 13.72 13.72 0 007 2.18 9 9 0 006.51-2.47 7.87 7.87 0 002.58-5.9 13.68 13.68 0 00-1.69-6.51q-1.68-3.15-7.76-9.8-8.37-9.07-11-14a17.39 17.39 0 01-1.86-8.15 16.77 16.77 0 015.61-12.88q5.63-5.14 15.78-5.15a47.2 47.2 0 0110.87 1.58 23 23 0 005.15.78 5.32 5.32 0 004.51-2.36zm44.49-17.45l-5.72 19.46h9.37l-2.5 8.22h-9.23l-12 41.49a22.73 22.73 0 00-1.14 5.87 2.23 2.23 0 00.64 1.6 1.92 1.92 0 001.43.68 4.12 4.12 0 002.51-1q3.28-2.5 7.65-8.72l2.5 1.57q-4.93 8.58-10.87 12.59a20.83 20.83 0 01-11.66 4c-3.24 0-5.76-.83-7.54-2.47a8.14 8.14 0 01-2.69-6.26 40.59 40.59 0 011.91-10.68l11.3-38.7h-9.72l1.43-5.3a65.16 65.16 0 0015.45-7.87q6.29-4.5 15.16-14.52zM802 266.1L787.32 317a28.37 28.37 0 00-1.22 5.72 2.1 2.1 0 00.65 1.47 1.88 1.88 0 001.36.68 3.72 3.72 0 002.43-1.07q3.21-2.65 7.72-9.59l2.44 1.43q-10.82 18.81-23 18.82a10.32 10.32 0 01-7.4-2.62 8.69 8.69 0 01-2.75-6.61 24.55 24.55 0 011.21-6.73l10-34.19a29.7 29.7 0 001.43-7.44 3.68 3.68 0 00-1.36-2.79 5.39 5.39 0 00-3.72-1.21c-.72 0-1.58 0-2.58.07l.93-2.86 24.25-3.94zm-4.43-32.9a10.52 10.52 0 11-10.44 10.51 10.2 10.2 0 013-7.43 10 10 0 017.42-3.08zm46.9 32.9l-8.87 30.69q8.94-13.44 13.38-18.38 6.51-7.16 11.23-9.73a18.61 18.61 0 018.87-2.58 8.48 8.48 0 016.36 2.76 9.91 9.91 0 012.65 7.19 34.91 34.91 0 01-1.71 9.72l-9.16 30.55a25.77 25.77 0 00-1.15 5.22 1.83 1.83 0 00.54 1.29 1.55 1.55 0 001.11.57 2.57 2.57 0 001.5-.57 28.29 28.29 0 005.08-5.83c.43-.67 1.12-1.67 2.08-3l2.71 1.64q-10.51 17.67-22.1 17.67a9.88 9.88 0 01-6.94-2.29 7.41 7.41 0 01-2.5-5.72 35.76 35.76 0 011.71-8.94l9-30.55a16.91 16.91 0 00.93-4.43 1.9 1.9 0 00-.65-1.4 2.13 2.13 0 00-1.5-.6c-1.81 0-4 1.24-6.58 3.72q-9.87 9.44-19.1 28.11l-5.87 21.24H807.2l13.38-45.92q1.93-6.8 1.93-9.66a3.5 3.5 0 00-.57-2 3.74 3.74 0 00-1.86-1.28 16.66 16.66 0 00-4.86-.47l.78-2.72 24.11-4.22zm99 4.37h19l-2.29 7.86h-9.87a17 17 0 012.29 8 21.76 21.76 0 01-3.54 12 24.53 24.53 0 01-10.45 8.8 35.11 35.11 0 01-15.34 3.29 42.38 42.38 0 01-4.9-.32q-2.68-.31-5.83-.89-4.73 2.43-5.94 3.86a3.18 3.18 0 00-.86 2.07 2.84 2.84 0 001.08 2.22 12 12 0 005.5 2.43q14.6 3.15 19.25 5.08a23.26 23.26 0 019.62 6.8 15.7 15.7 0 013.25 10q0 8.94-8.22 15.63t-25.44 6.7q-17.38 0-25.61-5.72-5.92-4.15-5.93-9.88c0-2.9 1.3-5.6 3.89-8.08s8.17-4.67 16.71-6.58a19.21 19.21 0 01-5.87-4.43 9.24 9.24 0 01-2.07-5.65 11.32 11.32 0 013.82-8.44q3.82-3.66 12.84-7.23-7-2.79-10.12-7.19a17.33 17.33 0 01-3.11-10.26 20.9 20.9 0 013.76-11.84 26.83 26.83 0 0111.08-9.12A38.6 38.6 0 01927 266.1a39.36 39.36 0 0110.8 1.36 20 20 0 015.67 3.01zm-39.63 64.95q-6.8 2.64-9.26 5.72a10.4 10.4 0 00-2.47 6.65q0 4.65 4.9 8.41t15.63 3.8q8.94 0 13-3.25t4-7.62a7.28 7.28 0 00-3.68-6.3q-3.69-2.43-14.13-5.07c-3.29-.91-5.94-1.68-7.99-2.34zm24.68-65.81a8.32 8.32 0 00-5.94 2.29q-3.86 3.5-6.76 11.73a47 47 0 00-2.89 15.59 7.5 7.5 0 002 5.55 6.86 6.86 0 005 2 7.18 7.18 0 005.08-2q4.08-3.93 7.08-12.55a48.07 48.07 0 003-15.63 6.86 6.86 0 00-1.93-5.08 6.41 6.41 0 00-4.64-1.9zm86.05-3.51l-3.15 22.11h-2.64q-.57-8.59-5.26-13.52t-10-4.94a7.87 7.87 0 00-5.44 1.93 6 6 0 00-2.14 4.65 10 10 0 00.93 4.29 23.67 23.67 0 004.15 5.44q11.29 12.17 13.73 16.74a20.59 20.59 0 012.43 9.8 21.29 21.29 0 01-2.86 10.69 20.86 20.86 0 01-8.55 8.09 24.84 24.84 0 01-11.84 3 40.3 40.3 0 01-10.22-1.65 24.53 24.53 0 00-6-1.15 6 6 0 00-2.79.54 7.28 7.28 0 00-2.22 2.26H960l3.51-23.82h2.29q2.51 8.65 4.68 12.33a16.56 16.56 0 005.83 5.87 13.75 13.75 0 007 2.18 9 9 0 006.51-2.47 7.87 7.87 0 002.58-5.9 13.67 13.67 0 00-1.68-6.51Q989 313 983 306.3q-8.37-9.07-11-14a17.39 17.39 0 01-1.86-8.15 16.75 16.75 0 015.62-12.88q5.61-5.14 15.77-5.15a47.2 47.2 0 0110.87 1.58 23.12 23.12 0 005.15.78 5.32 5.32 0 004.51-2.36z" fill="#ff1990"/>
</svg>
