<svg version="1" xmlns="http://www.w3.org/2000/svg" viewBox="0 0 293 180"><path d="M81 1782 c-19 -9 -44 -30 -55 -45 -21 -28 -21 -37 -24 -822 -3 -901 -6 -857 74 -895 39 -20 68 -20 1390 -20 1265 0 1351 1 1383 18 19 9 44 30 55 45 21 28 21 35 21 837 0 802 0 809 -21 837 -11 15 -36 36 -55 45 -32 17 -118 18 -1384 18 -1266 0 -1352 -1 -1384 -18z m2654 -882 l0 -706 -1270 0 -1270 0 0 706 0 705 1270 0 1270 0 0 -705z" transform="matrix(.1 0 0 -.1 0 180)"/><path d="M432 873 l3 -528 155 0 c85 0 179 3 208 7 134 21 230 115 250 244 4 27 7 166 6 309 -1 243 -3 263 -23 309 -25 58 -61 103 -108 134 -63 43 -115 52 -311 52 l-182 0 2 -527z m376 283 l26 -25 0 -261 c0 -246 -1 -261 -19 -280 -22 -21 -92 -37 -137 -32 l-28 3 0 308 c0 169 3 311 8 315 4 4 33 6 66 3 46 -4 64 -11 84 -31z" transform="matrix(.1 0 0 -.1 0 180)"/><path d="M1201 1379 c-17 -10 -40 -33 -51 -51 -19 -32 -20 -49 -17 -463 2 -412 3 -431 22 -457 44 -59 60 -62 300 -63 l220 0 3 107 3 107 -148 0 c-81 -1 -156 0 -165 0 -16 1 -18 13 -18 104 l0 103 88 -1 c48 0 94 2 102 6 12 6 15 25 13 96 -1 48 -2 94 -2 101 -1 9 -28 12 -101 12 l-101 0 3 103 3 102 135 2 c74 1 147 2 163 2 l27 1 0 105 0 106 -223 -1 c-202 -1 -227 -3 -256 -21z" transform="matrix(.1 0 0 -.1 0 180)"/><path d="M1755 1373 c6 -27 131 -501 176 -668 71 -265 80 -285 141 -333 27 -21 85 -31 122 -21 17 5 46 22 63 39 53 52 42 17 209 650 47 179 87 333 90 343 5 15 -5 17 -114 17 l-119 0 -16 -62 c-9 -35 -46 -175 -82 -313 -36 -137 -67 -254 -68 -259 -2 -5 -41 136 -87 313 l-83 321 -120 0 -119 0 7 -27z" transform="matrix(.1 0 0 -.1 0 180)"/></svg>