<svg xmlns="http://www.w3.org/2000/svg" viewBox="0 0 24 24" width="24" height="24">
    <path d="M10.076 11c.6 0 1.086.45 1.075 1 0 .55-.474 1-1.075 1C9.486 13 9 12.55 9 12s.475-1 1.076-1zm3.848 0c.601 0 1.076.45 1.076 1s-.475 1-1.076 1c-.59 0-1.075-.45-1.075-1s.474-1 1.075-1zm4.967-9C20.054 2 21 2.966 21 4.163V23l-2.211-1.995-1.245-1.176-1.317-1.25.546 1.943H5.109C3.946 20.522 3 19.556 3 18.359V4.163C3 2.966 3.946 2 5.109 2H18.89zm-3.97 13.713c2.273-.073 3.148-1.596 3.148-1.596 0-3.381-1.482-6.122-1.482-6.122-1.48-1.133-2.89-1.102-2.89-1.102l-.144.168c1.749.546 2.561 1.334 2.561 1.334a8.263 8.263 0 00-3.096-1.008 8.527 8.527 0 00-2.077.02c-.062 0-.114.011-.175.021-.36.032-1.235.168-2.335.662-.38.178-.607.305-.607.305s.854-.83 2.705-1.376l-.103-.126s-1.409-.031-2.89 1.103c0 0-1.481 2.74-1.481 6.121 0 0 .864 1.522 3.137 1.596 0 0 .38-.472.69-.871-1.307-.4-1.8-1.24-1.8-1.24s.102.074.287.179c.01.01.02.021.041.031.031.022.062.032.093.053.257.147.514.262.75.357.422.168.926.336 1.513.452a7.06 7.06 0 002.664.01 6.666 6.666 0 001.491-.451c.36-.137.761-.337 1.183-.62 0 0-.514.861-1.862 1.25.309.399.68.85.68.85z"/>
</svg>
