<svg xmlns="http://www.w3.org/2000/svg" width="512" height="512" viewBox="0 0 512 512">
    <path d="M464.313 255.99c0 114.873-93.44 208.313-208.281 208.313-114.893 0-208.313-93.44-208.313-208.313 0-114.873 93.43-208.313 208.313-208.313 114.841 0 208.281 93.44 208.281 208.313zM256.031 19.845c-130.274 0-236.196 105.933-236.196 236.144 0 130.232 105.922 236.175 236.196 236.175 130.181 0 236.144-105.943 236.144-236.175-.01-130.222-105.964-236.144-236.144-236.144z"/>
    <path d="M160.297 53.504c1.638 2.007 165.509 202.66 173.394 404.572l27.863-1.086C353.259 245.575 188.785 44.195 181.791 35.788l-21.494 17.715z"/>
    <path d="M28.907 229.089c2.407.655 239.442 64.563 388.045-122.532L395.11 89.241C257.945 261.959 38.656 202.885 36.464 202.24l-7.557 26.85zm87.071 197.694v.041c4.915-9.523 123.136-231.239 353.26-141.957l10.127-25.979C225.69 160.42 92.559 411.474 91.197 414.024l24.781 12.759z"/>
</svg>
