<svg xmlns="http://www.w3.org/2000/svg" xmlns:xlink="http://www.w3.org/1999/xlink" version="1.1" width="512" height="512" viewBox="0 0 512 512">
	<path d="M464.313 255.99c0 114.873-93.44 208.313-208.281 208.313-114.893 0-208.313-93.44-208.313-208.313 0-114.873 93.43-208.313 208.313-208.313 114.841 0 208.281 93.44 208.281 208.313zM256.031 19.845c-130.274 0-236.196 105.933-236.196 236.144 0 130.232 105.922 236.175 236.196 236.175 130.181 0 236.144-105.943 236.144-236.175-0.010-130.222-105.964-236.144-236.144-236.144z" fill="#000000"/>
	<path d="M160.297 53.504v0c1.638 2.007 165.509 202.66 173.394 404.572l27.863-1.086c-8.295-211.415-172.769-412.795-179.763-421.202l-21.494 17.715z" fill="#000000"/>
	<path d="M28.907 229.089c2.407 0.655 239.442 64.563 388.045-122.532l-21.842-17.316c-137.165 172.718-356.454 113.644-358.646 112.999l-7.557 26.85z" fill="#000000"/>
	<path d="M115.978 426.783v0.041c4.915-9.523 123.136-231.239 353.26-141.957l10.127-25.979c-253.675-98.468-386.806 152.586-388.168 155.136l24.781 12.759z" fill="#000000"/>
</svg>