<svg width="24" height="24" viewBox="0 0 24 24" fill="none" xmlns="http://www.w3.org/2000/svg">
    <path d="M6.412 8.604a2.047 2.047 0 0 0-.321-.028 4.007 4.007 0 0 0-3.987 4.416C2.32 18.278 6.662 22.5 12 22.5c5.477 0 9.917-4.44 9.917-9.916 0-.018-.002-.036-.004-.053-.001-.012-.003-.024-.003-.037l.003-.053c.002-.026.004-.053.004-.08a4.007 4.007 0 0 0-4.007-4.006c-.119 0-.257.014-.401.037a11.12 11.12 0 0 0-.347.578c.216-.026.391-.011.513.058.167.094.062.22-.036.335-.115.136-.219.259.15.302.347.04.53-.03.696-.094.166-.064.313-.121.588-.05.7.181.054.808-.357 1.143-.593.404-.903.245-1.262.06-.229-.117-.477-.245-.832-.245-.07 0-.132.006-.19.014l-.002.002c-.263.036-.425.148-.65.304-.188.128-.418.287-.785.457-.335.155-.757-.037-1.149-.215-.26-.119-.505-.23-.703-.23-.255 0-.503.13-.76.266-.42.221-.866.456-1.41.16a4.177 4.177 0 0 1-.405-.266c-.326-.232-.653-.464-1.125-.452a2.499 2.499 0 0 0-1.06.244c-.226.098-.426.185-.766.174v-.002a2.33 2.33 0 0 1-.304-.03c-1.045-.175-1.66-.431-2.021-.676-.364-.324-.325-.604-.137-.745.146-.11.65-.298 1.001.03.236.22.402.132.633.01l.135-.069a12.54 12.54 0 0 0-.512-.85Z" fill="url(#a)"/>
    <path d="M6.924 9.453c-.047.023-.092.047-.135.07-.23.121-.397.209-.633-.011-.352-.328-.855-.139-1-.03-.189.141-.228.421.136.745.362.245.976.501 2.02.676.116.02.213.027.305.03-.135-.355-.362-.88-.692-1.479ZM16.431 10.492c.059-.008.12-.014.191-.014.355 0 .603.128.832.245.36.185.669.344 1.262-.06.411-.335 1.056-.962.357-1.143-.275-.071-.422-.014-.588.05-.165.064-.349.135-.696.094-.369-.043-.265-.166-.15-.302.098-.116.203-.24.036-.335-.122-.07-.297-.084-.513-.058l-.001.003a13.82 13.82 0 0 0-.73 1.52Z" fill="#F19020"/>
    <path d="M8.5 15.074c.644 0 1.167-.696 1.167-1.555 0-.86-.523-1.556-1.167-1.556-.645 0-1.167.696-1.167 1.556 0 .859.522 1.555 1.167 1.555Z" fill="url(#b)"/>
    <path d="M15.5 15.074c.645 0 1.167-.696 1.167-1.555s-.522-1.556-1.167-1.556c-.644 0-1.167.697-1.167 1.556 0 .859.522 1.555 1.167 1.555Z" fill="url(#c)"/>
    <path d="M14.527 18.206c0 1.595-1.131 2.887-2.527 2.887-1.396 0-2.527-1.292-2.527-2.887s1.131-2.888 2.527-2.888c1.396 0 2.527 1.293 2.527 2.888Z" fill="url(#d)"/>
    <path d="M5.589 7.491c.088-.034.173-.074.255-.12a1.302 1.302 0 0 0 1.03.241 2.815 2.815 0 0 0 2.398 1.344 2.83 2.83 0 0 0 2.376-1.293c.42.514 1.05.85 1.767.85 1.058 0 1.94-.723 2.202-1.699.01 0 .019.002.027.003.01.002.02.003.031.003.165 0 .326-.018.482-.05.381.324.87.527 1.41.527.347 0 .673-.083.963-.228-.465.48-.971 1.239-.971 1.239-.72-.046-1.43-.31-1.43-.31-.911 1.504-2.953 1.813-4.411.938-2.097 1.768-4.872.366-4.872.366S6.16 8.136 5.59 7.492Z" fill="#CE5C1F"/>
    <path d="M6.925 9.457a12.72 12.72 0 0 0-.262-.453c.114.182.183.3.183.3s2.775 1.403 4.872-.365c1.458.875 3.5.565 4.41-.939 0 0 .71.264 1.43.31-.192.278-.238.378-.397.664-.298.533-.543 1.06-.73 1.522-.264.036-.426.148-.652.303a4.897 4.897 0 0 1-.784.458c-.335.155-.757-.037-1.149-.216-.26-.118-.505-.23-.703-.23-.255 0-.503.13-.76.267-.42.221-.866.456-1.41.159a4.157 4.157 0 0 1-.405-.265c-.326-.232-.653-.465-1.125-.452-.531.014-.811.135-1.06.244-.226.098-.426.185-.766.174-.134-.356-.362-.88-.692-1.481Z" fill="url(#e)"/>
    <path d="M11.834 3.682a1.257 1.257 0 0 1 .184 2.503 1.312 1.312 0 0 1-1.277 1.02 1.3 1.3 0 0 1-.634-.17 1.307 1.307 0 0 1-2.41.37 2.181 2.181 0 0 1-1.603-1.212 1.174 1.174 0 1 1-.146-1.471 2.183 2.183 0 0 1 2.115-1.656c.575 0 1.095.228 1.486.591a.97.97 0 0 1 1.694.179 1.25 1.25 0 0 1 .591-.154Z" fill="url(#f)"/>
    <path d="M18.951 4.864a1.237 1.237 0 1 1-2.474 0 1.237 1.237 0 0 1 2.474 0Z" fill="url(#g)"/>
    <path fill-rule="evenodd" clip-rule="evenodd" d="M19.256 3.737c.128-.038.26-.064.4-.064a1.437 1.437 0 0 1 0 2.874c-.14 0-.272-.027-.4-.064-.4.493-1.004.814-1.69.814-.54 0-1.028-.203-1.41-.527-.155.033-.316.05-.481.05a.207.207 0 0 1-.03-.002.232.232 0 0 0-.028-.003 2.283 2.283 0 0 1-2.202 1.698 2.275 2.275 0 0 1-1.767-.85 2.83 2.83 0 0 1-2.376 1.293 2.815 2.815 0 0 1-2.397-1.343 1.267 1.267 0 0 1-1.03-.241c-.28.155-.6.248-.942.248a1.969 1.969 0 1 1 0-3.938c.124 0 .245.015.364.037a2.178 2.178 0 0 1 1.92-1.162c.113 0 .22.017.327.034a2.183 2.183 0 0 1 1.837-1.005c.957 0 1.762.62 2.059 1.477a1.304 1.304 0 0 1 2.23.287 2.328 2.328 0 0 1 2.034-1.205c.696 0 1.315.31 1.743.793l.061-.008c.029-.004.058-.008.088-.008.685 0 1.289.322 1.69.815Zm-6.162 1.206a1.26 1.26 0 0 0-1.26-1.26 1.25 1.25 0 0 0-.59.153.971.971 0 0 0-1.695-.178c-.391-.364-.91-.591-1.486-.591a2.183 2.183 0 0 0-2.115 1.655 1.174 1.174 0 1 0 .146 1.471c.301.631.892 1.093 1.603 1.213a1.307 1.307 0 0 0 2.41-.37 1.3 1.3 0 0 0 .634.17c.624 0 1.145-.437 1.278-1.02a1.257 1.257 0 0 0 1.075-1.243Zm4.62 1.158a1.237 1.237 0 1 0 0-2.474 1.237 1.237 0 0 0 0 2.474Z" fill="url(#h)"/>
    <defs>
        <linearGradient id="a" x1="12" y1="14.155" x2="12" y2="22.499" gradientUnits="userSpaceOnUse">
            <stop stop-color="#FFCC49"/>
            <stop offset="1" stop-color="#FFB649"/>
        </linearGradient>
        <linearGradient id="b" x1="12" y1="11.962" x2="12" y2="15.074" gradientUnits="userSpaceOnUse">
            <stop stop-color="#65471B"/>
            <stop offset="1" stop-color="#4E340F"/>
        </linearGradient>
        <linearGradient id="c" x1="12" y1="11.963" x2="12" y2="15.075" gradientUnits="userSpaceOnUse">
            <stop stop-color="#65471B"/>
            <stop offset="1" stop-color="#4E340F"/>
        </linearGradient>
        <linearGradient id="d" x1="12" y1="11.964" x2="12" y2="15.076" gradientUnits="userSpaceOnUse">
            <stop stop-color="#65471B"/>
            <stop offset="1" stop-color="#4E340F"/>
        </linearGradient>
        <linearGradient id="e" x1="11.891" y1="6.818" x2="11.891" y2="11.376" gradientUnits="userSpaceOnUse">
            <stop stop-color="#FFA271"/>
            <stop offset="1" stop-color="#F36C24"/>
        </linearGradient>
        <linearGradient id="f" x1="8.518" y1="3.066" x2="8.518" y2="8.062" gradientUnits="userSpaceOnUse">
            <stop stop-color="#EFEFEF"/>
            <stop offset="1" stop-color="#E6E6E6"/>
        </linearGradient>
        <linearGradient id="g" x1="8.518" y1="3.067" x2="8.518" y2="8.063" gradientUnits="userSpaceOnUse">
            <stop stop-color="#EFEFEF"/>
            <stop offset="1" stop-color="#E6E6E6"/>
        </linearGradient>
        <linearGradient id="h" x1="12.014" y1="1.586" x2="12.014" y2="8.956" gradientUnits="userSpaceOnUse">
            <stop stop-color="#D8D8D8"/>
            <stop offset="1" stop-color="#C6C6C6"/>
        </linearGradient>
    </defs>
</svg>
