<svg width="32" height="32" viewBox="0 0 32 32" fill="none" xmlns="http://www.w3.org/2000/svg">
    <g clip-path="url(#a)">
        <path d="M29.222 16.481a5.342 5.342 0 0 0-5.342-5.342c-.762 0-2.14.45-2.14.45l-10.21 1.076s-2.113-1.23-3.409-1.23a5.342 5.342 0 0 0-5.316 5.889C3.094 24.37 8.883 30 16 30c7.302 0 13.222-5.92 13.222-13.222 0-.04-.007-.079-.01-.12.003-.059.01-.117.01-.177Z" fill="url(#b)"/>
        <path d="M25.431 12.694c-.732-.19-.784.3-1.712.192-.909-.107.333-.575-.152-.85-.163-.092-.397-.112-.686-.076-.818.1-13.186.423-13.648.646-.41.197-.652.426-1.025.078-.469-.437-1.14-.185-1.334-.04-.25.189-.303.562.182.994.483.326 1.3.668 2.695.901.153.026.283.036.406.04.954.033 1.086-1.298 2.434-1.334.884-.023 8.675.832 9.316.745.079-.01.161-.018.256-.018 1.216 0 1.498 1.127 2.792.245.548-.445 1.408-1.282.476-1.523Z" fill="#F19020"/>
        <path d="M6.618 9.09a15.67 15.67 0 0 1 2.615 3.518c.44.8.744 1.5.923 1.974.955.032 1.087-.521 2.435-.557.884-.024 1.387.598 2.04.956 1.168.64 1.998-.568 2.893-.568.66 0 1.726.939 2.47.594 1.079-.5 1.271-.926 1.913-1.014.25-.615.576-1.32.974-2.03.575-1.029 1.305-2.072 2.21-2.872H6.618V9.09Z" fill="url(#c)"/>
        <path d="M24.794 9.338c.996-.982-17.92.013-17.377.613.769.851 1.711 2.452 1.711 2.452s3.7 1.871 6.495-.487c1.945 1.167 4.667.754 5.882-1.25 0 0 .947.351 1.906.412 0 0 .742-1.108 1.383-1.74Z" fill="#CE5C1F"/>
        <path d="M16 28.124c1.86 0 3.37-1.724 3.37-3.85 0-2.127-1.51-3.85-3.37-3.85s-3.37 1.724-3.37 3.85c0 2.126 1.51 3.85 3.37 3.85Z" fill="url(#d)"/>
        <path d="M12.889 18.026c0 1.146-.697 2.075-1.556 2.075-.86 0-1.555-.93-1.555-2.075s.696-2.074 1.555-2.074 1.556.929 1.556 2.074Zm9.333 0c0 1.145-.696 2.074-1.555 2.074-.86 0-1.556-.929-1.556-2.075 0-1.144.697-2.074 1.556-2.074.86 0 1.555.93 1.555 2.075Z" fill="url(#e)"/>
        <path d="M26.208 4.898a1.89 1.89 0 0 0-.533.085 2.9 2.9 0 0 0-2.254-1.086c-.068 0-.132.016-.199.02A3.098 3.098 0 0 0 20.9 2.86c-1.17 0-2.178.653-2.711 1.607a1.739 1.739 0 0 0-2.975-.383 2.907 2.907 0 0 0-2.746-1.969 2.91 2.91 0 0 0-2.448 1.34c-.143-.022-.286-.045-.436-.045-1.113 0-2.07.632-2.56 1.55a2.626 2.626 0 0 0-.486-.05 2.625 2.625 0 1 0 0 5.25c.457 0 .883-.123 1.255-.33a1.69 1.69 0 0 0 1.374.321 3.753 3.753 0 0 0 3.196 1.792c1.33 0 2.494-.689 3.168-1.725a3.034 3.034 0 0 0 2.356 1.133 3.044 3.044 0 0 0 2.937-2.264c.026.001.05.008.077.008.22 0 .435-.024.642-.068.51.433 1.16.703 1.88.703.913 0 1.72-.428 2.254-1.085.17.05.346.084.533.084a1.916 1.916 0 1 0 0-3.83Z" fill="url(#f)"/>
        <path d="M23.618 8.135a1.65 1.65 0 1 0 0-3.3 1.65 1.65 0 0 0 0 3.3Z" fill="url(#g)"/>
        <path d="M17.46 6.592a1.68 1.68 0 0 0-1.68-1.68c-.287 0-.553.078-.789.204a1.295 1.295 0 0 0-2.26-.238 2.901 2.901 0 0 0-1.981-.788 2.91 2.91 0 0 0-2.82 2.207 1.565 1.565 0 1 0 .194 1.962 2.909 2.909 0 0 0 2.14 1.617 1.742 1.742 0 0 0 3.212-.494c.252.14.538.227.846.227.832 0 1.526-.583 1.703-1.361a1.676 1.676 0 0 0 1.434-1.656Z" fill="url(#h)"/>
    </g>
    <defs>
        <linearGradient id="b" x1="16" y1="18.874" x2="16" y2="30" gradientUnits="userSpaceOnUse">
            <stop stop-color="#FFCC49"/>
            <stop offset="1" stop-color="#FFB649"/>
        </linearGradient>
        <linearGradient id="c" x1="15.854" y1="9.09" x2="15.854" y2="15.168" gradientUnits="userSpaceOnUse">
            <stop stop-color="#FFA271"/>
            <stop offset="1" stop-color="#F36C24"/>
        </linearGradient>
        <linearGradient id="d" x1="16" y1="20.424" x2="16" y2="28.124" gradientUnits="userSpaceOnUse">
            <stop stop-color="#65471B"/>
            <stop offset="1" stop-color="#4E340F"/>
        </linearGradient>
        <linearGradient id="e" x1="16" y1="15.951" x2="16" y2="20.101" gradientUnits="userSpaceOnUse">
            <stop stop-color="#65471B"/>
            <stop offset="1" stop-color="#4E340F"/>
        </linearGradient>
        <linearGradient id="f" x1="16.018" y1="2.115" x2="16.018" y2="11.943" gradientUnits="userSpaceOnUse">
            <stop stop-color="#D8D8D8"/>
            <stop offset="1" stop-color="#C6C6C6"/>
        </linearGradient>
        <linearGradient id="g" x1="23.618" y1="4.836" x2="23.618" y2="8.135" gradientUnits="userSpaceOnUse">
            <stop stop-color="#EFEFEF"/>
            <stop offset="1" stop-color="#E6E6E6"/>
        </linearGradient>
        <linearGradient id="h" x1="11.357" y1="4.09" x2="11.357" y2="10.751" gradientUnits="userSpaceOnUse">
            <stop stop-color="#EFEFEF"/>
            <stop offset="1" stop-color="#E6E6E6"/>
        </linearGradient>
        <clipPath id="a">
            <path fill="#fff" transform="translate(2 2)" d="M0 0h28v28H0z"/>
        </clipPath>
    </defs>
</svg>
