<svg xmlns="http://www.w3.org/2000/svg" width="510" height="510" viewBox="0 0 510 510">
    <path d="M369.75 21.675c-43.35 0-86.7 20.4-114.75 53.55-28.05-33.15-71.4-53.55-114.75-53.55C61.2 21.675 0 82.875 0 161.925c0 96.9 86.7 175.95 219.3 293.25l35.7 33.15 35.7-33.15c130.05-119.85 219.3-198.9 219.3-293.25 0-79.05-61.2-140.25-140.25-140.25zm-112.2 397.8H255l-2.55-2.55C130.05 307.274 51 235.875 51 161.925c0-51 38.25-89.25 89.25-89.25 38.25 0 76.5 25.5 91.8 61.2h48.45c12.75-35.7 51-61.2 89.25-61.2 51 0 89.25 38.25 89.25 89.25 0 73.95-79.05 145.349-201.45 257.55z"/>
</svg>
