<svg width="32" height="32" viewBox="0 0 32 32" fill="none" xmlns="http://www.w3.org/2000/svg">
    <g clip-path="url(#a)">
        <path d="M29.222 16.778a13.19 13.19 0 0 0-.809-4.564c-.358 4.192-2.592 6.345-4.927 5.342-2.187-.94-.713-4.602-.604-6.35.183-2.962-.01-6.353-5.391-9.173 2.236 4.278.259 6.936-1.815 7.097-2.3.18-4.407-1.977-3.63-5.477-2.518 1.856-2.591 4.98-1.814 7 .81 2.106-.033 3.856-2.009 4.051-2.209.218-3.436-2.365-2.305-6.481a13.172 13.172 0 0 0-3.14 8.555c0 7.303 5.92 13.223 13.222 13.223s13.222-5.92 13.222-13.223Z" fill="url(#b)"/>
        <path d="M24.084 20.667c.115 2.398-1.992 3.339-3.126 2.884-1.638-.655-1.198-1.781-1.62-4.115-.421-2.333-2.041-3.953-4.44-4.666 1.75 4.925-.97 6.74-2.395 7.065-1.456.331-2.919 0-3.086-3.117a9.306 9.306 0 0 0-2.75 6.616c0 .286.018.568.042.848A13.175 13.175 0 0 0 16 30c3.623 0 6.903-1.46 9.29-3.82.025-.28.043-.56.043-.847a9.283 9.283 0 0 0-1.249-4.667Z" fill="url(#c)"/>
    </g>
    <defs>
        <linearGradient id="b" x1="16" y1="2.033" x2="16" y2="30" gradientUnits="userSpaceOnUse">
            <stop stop-color="#FFA271"/>
            <stop offset="1" stop-color="#F36C24"/>
        </linearGradient>
        <linearGradient id="c" x1="16" y1="21.016" x2="16" y2="30.001" gradientUnits="userSpaceOnUse">
            <stop stop-color="#FFCC49"/>
            <stop offset="1" stop-color="#FFB649"/>
        </linearGradient>
        <clipPath id="a">
            <path fill="#fff" transform="translate(2 2)" d="M0 0h28v28H0z"/>
        </clipPath>
    </defs>
</svg>
