<svg width="24" height="24" viewBox="0 0 24 24" fill="none" xmlns="http://www.w3.org/2000/svg">
    <path fill-rule="evenodd" clip-rule="evenodd" d="M21.31 9.161a9.893 9.893 0 0 1 .607 3.423c0 4.982-3.673 9.105-8.459 9.81a9.888 9.888 0 0 0 5.51-2.757 6.963 6.963 0 0 0-.905-4.136c.087 1.798-1.494 2.504-2.344 2.163-.91-.364-.965-.923-1.061-1.9-.034-.34-.072-.733-.154-1.186-.316-1.75-1.532-2.965-3.33-3.5 1.313 3.694-.727 5.055-1.797 5.299-1.092.248-2.189 0-2.314-2.338a6.98 6.98 0 0 0-2.03 5.598 9.89 9.89 0 0 0 5.524 2.76c-4.793-.699-8.474-4.826-8.474-9.813A9.88 9.88 0 0 1 4.44 6.168c-.849 3.087.072 5.024 1.728 4.86C7.65 10.883 8.282 9.57 7.674 7.99c-.583-1.515-.528-3.858 1.36-5.25-.582 2.625.998 4.243 2.723 4.108 1.556-.121 3.038-2.114 1.361-5.323 4.036 2.115 4.181 4.658 4.043 6.88-.02.315-.098.712-.183 1.144-.27 1.368-.61 3.083.637 3.619 1.75.752 3.427-.863 3.695-4.007Z" fill="url(#a)"/>
    <path d="M18.063 15.499c.087 1.799-1.494 2.504-2.344 2.164-1.229-.492-.9-1.337-1.215-3.087-.316-1.75-1.532-2.965-3.33-3.5 1.313 3.694-.727 5.056-1.797 5.3-1.092.248-2.189-.001-2.314-2.338a6.979 6.979 0 0 0-2.03 5.597A9.88 9.88 0 0 0 12 22.5a9.88 9.88 0 0 0 6.968-2.865 6.963 6.963 0 0 0-.905-4.136Z" fill="url(#b)"/>
    <defs>
        <linearGradient id="a" x1="12" y1="1.525" x2="12" y2="22.501" gradientUnits="userSpaceOnUse">
            <stop stop-color="#FFA271"/>
            <stop offset="1" stop-color="#F36C24"/>
        </linearGradient>
        <linearGradient id="b" x1="12" y1="15.761" x2="12" y2="22.5" gradientUnits="userSpaceOnUse">
            <stop stop-color="#FFCC49"/>
            <stop offset="1" stop-color="#FFB649"/>
        </linearGradient>
    </defs>
</svg>
