<svg width="57" height="56" viewBox="0 0 57 56" fill="none" xmlns="http://www.w3.org/2000/svg">
<g clip-path="url(#clip0_1485_4171)">
<path d="M56.5 28C56.5 43.4638 43.9638 56 28.5 56C13.0378 56 0.5 43.4638 0.5 28C0.5 12.5378 13.0378 0 28.5 0C43.9638 0 56.5 12.5378 56.5 28Z" fill="#A5B4FC"/>
<path d="M19.4379 28.647C21.7119 28.647 23.5554 26.0659 23.5554 22.8821C23.5554 19.6982 21.7119 17.1172 19.4379 17.1172C17.1638 17.1172 15.3203 19.6982 15.3203 22.8821C15.3203 26.0659 17.1638 28.647 19.4379 28.647Z" fill="#312E81"/>
<path d="M39.2053 32.9409C45.1177 32.9409 49.9107 28.148 49.9107 22.2356C49.9107 16.3232 45.1177 11.5303 39.2053 11.5303C33.2929 11.5303 28.5 16.3232 28.5 22.2356C28.5 28.148 33.2929 32.9409 39.2053 32.9409Z" fill="#E0E7FF"/>
<path d="M23.5623 15.472C23.0614 15.472 22.5667 15.2449 22.2431 14.814C20.7016 12.7591 19.0885 11.6577 17.4474 11.5411C15.2851 11.3933 13.5227 13.0142 13.1945 13.3424C12.5505 13.9864 11.5083 13.9864 10.8658 13.3424C10.2218 12.6984 10.2218 11.6562 10.8658 11.0137C11.5767 10.3029 14.1776 8.00219 17.6807 8.25575C20.3174 8.44241 22.7378 9.98397 24.8783 12.8369C25.4243 13.5649 25.2765 14.5977 24.55 15.1422C24.2514 15.3646 23.9045 15.472 23.5623 15.472Z" fill="#312E81"/>
<path d="M51.5692 55.9999C50.6592 55.9999 49.9219 55.2626 49.9219 54.3526V23.0594C49.9219 22.1494 50.6592 21.4121 51.5692 21.4121C52.4792 21.4121 53.2165 22.1494 53.2165 23.0594V54.3541C53.215 55.2626 52.4792 55.9999 51.5692 55.9999Z" fill="#312E81"/>
<path d="M51.5663 19.7653C51.4823 19.7653 51.4029 19.7839 51.3205 19.7901C50.1818 14.1466 45.1869 9.88281 39.212 9.88281C32.4003 9.88281 26.8594 15.4237 26.8594 22.2355C26.8594 29.0473 32.4003 34.5881 39.212 34.5881C44.6067 34.5881 49.1925 31.1068 50.8725 26.2768C51.0965 26.325 51.3267 26.353 51.5647 26.353C53.3847 26.353 54.8594 24.8784 54.8594 23.0584C54.8594 21.2399 53.3847 19.7653 51.5663 19.7653ZM39.212 31.295C34.2172 31.295 30.154 27.2319 30.154 22.2355C30.154 17.239 34.2187 13.1759 39.212 13.1759C44.2069 13.1759 48.2716 17.239 48.2716 22.2355C48.2716 27.2319 44.2069 31.295 39.212 31.295Z" fill="#312E81"/>
<path d="M33.4287 44.4702C33.1813 44.4702 32.9293 44.4142 32.6929 44.296C29.8634 42.8804 27.1131 42.8804 24.2836 44.296C23.4685 44.702 22.4791 44.3737 22.0731 43.5586C21.6656 42.7451 21.9954 41.7557 22.8105 41.3482C26.5765 39.466 30.3969 39.466 34.166 41.3482C34.9796 41.7557 35.3093 42.7451 34.9033 43.5586C34.6156 44.1373 34.0338 44.4702 33.4287 44.4702Z" fill="#312E81"/>
<path d="M44.1266 14.639C42.708 13.7165 41.0186 13.1768 39.2002 13.1768C34.1975 13.1768 30.1406 17.2321 30.1406 22.2363C30.1406 24.0548 30.682 25.7441 31.6028 27.1628L44.1266 14.639ZM35.3346 30.4185C36.5091 30.9739 37.8157 31.2943 39.2002 31.2943C44.2028 31.2943 48.2597 27.239 48.2597 22.2348C48.2597 20.8503 47.9393 19.5421 47.384 18.3692L35.3346 30.4185Z" fill="#EEF2FF"/>
</g>
<defs>
<clipPath id="clip0_1485_4171">
<rect width="56" height="56" fill="white" transform="translate(0.5)"/>
</clipPath>
</defs>
</svg>
