<svg width="16" height="17" viewBox="0 0 16 17" fill="none" xmlns="http://www.w3.org/2000/svg">
  <path d="M2.16667 11.3333V16.3333H0.5V0.5H8.31833C8.47305 0.500083 8.62469 0.543236 8.75627 0.624627C8.88785 0.706018 8.99417 0.822433 9.06333 0.960833L9.66667 2.16667H14.6667C14.8877 2.16667 15.0996 2.25446 15.2559 2.41074C15.4122 2.56703 15.5 2.77899 15.5 3V12.1667C15.5 12.3877 15.4122 12.5996 15.2559 12.7559C15.0996 12.9122 14.8877 13 14.6667 13H9.34833C9.19361 12.9999 9.04197 12.9568 8.91039 12.8754C8.77882 12.794 8.67249 12.6776 8.60333 12.5392L8 11.3333H2.16667ZM2.16667 2.16667V9.66667H9.03L9.86333 11.3333H13.8333V3.83333H8.63667L7.80333 2.16667H2.16667Z" fill="#404040"/>
</svg>
