<svg viewBox="0 0 53.269 15.875" height="60" width="201.333" xmlns="http://www.w3.org/2000/svg">
    <g style="line-height:1.25" aria-label="FOREM" font-weight="400" font-size="22.578" font-family="Joystick" letter-spacing="0" word-spacing="0" stroke-width=".265">
        <path style="-inkscape-font-specification:Joystick" d="M3.307 15.875H0V2.15Q0 1.246.617.628 1.246 0 2.205 0h6.063v3.197h-4.96v3.142h3.031v3.197H3.307zM18.763 11.245q0 2.006-1.312 3.318-1.311 1.312-3.461 1.312-1.974 0-3.285-1.312-1.312-1.312-1.312-3.318V4.63q0-2.006 1.312-3.318Q12.016 0 14.078 0q2.062 0 3.373 1.312 1.312 1.312 1.312 3.318zm-3.307 0V4.63q0-.738-.474-1.08-.463-.353-.904-.353-.44 0-.915.353-.463.342-.463 1.08v6.615q0 .727.463 1.08.474.353.915.353.441 0 .904-.353.474-.353.474-1.08zM23.195 7.552q0-.85 1.555-1.478 1.752-.44 1.752-1.444 0-1.433-1.378-1.433h-1.929zm0 .11v8.213h-3.307V2.15q0-.96.628-1.555Q21.145 0 22.093 0h2.48q4.961 0 4.961 4.355 0 2.667-2.7 3.99l3.075 7.53h-3.605l-2.547-6.207q-.562-1.135-.562-2.006zM38.916 15.875h-6.064q-.959 0-1.587-.617-.617-.629-.617-1.533V2.15q0-.904.617-1.522Q31.893 0 32.852 0h6.064v3.197h-4.961v3.142h3.032v3.197h-3.032v3.142h4.96zM43.348 10.627v5.248H40.04V2.425q0-1.18.618-1.797Q41.286 0 42.245 0q1.874 0 2.48 2.381l1.93 7.376 1.93-7.376Q49.19 0 51.064 0q.959 0 1.576.628.628.618.628 1.797v13.45h-3.307v-5.248l-.838 3.153q-.893 2.095-2.47 2.095-1.576 0-2.469-2.095z"/>
    </g>
</svg>
