<svg width="24" height="24" viewBox="0 0 24 24" fill="none" xmlns="http://www.w3.org/2000/svg">
    <rect x="2.5" y="2.5" width="19" height="19" rx="3" fill="#022830"/>
    <path d="M12.326 15.382a.229.229 0 0 1 .27.131 1.804 1.804 0 0 0 2.157 1.096c.887-.254 1.467-1.129 1.316-2.042a.217.217 0 0 1 .169-.248l.745-.2a.232.232 0 0 1 .277.16l.004.015a3.084 3.084 0 0 1-2.186 3.526 2.997 2.997 0 0 1-3.631-1.92.223.223 0 0 1 .142-.289l.015-.004.722-.225Z" fill="#E9F0E8"/>
    <path d="M10.673 9.915a.229.229 0 0 1-.27-.131 1.804 1.804 0 0 0-2.157-1.096A1.818 1.818 0 0 0 6.93 10.73a.217.217 0 0 1-.168.248l-.745.2a.232.232 0 0 1-.278-.16l-.004-.015a3.084 3.084 0 0 1 2.187-3.526 2.997 2.997 0 0 1 3.63 1.92.223.223 0 0 1-.142.289l-.014.004-.723.225Z" fill="#4CFCA7"/>
    <path d="m14.936 8.584-.774.208a.232.232 0 0 1-.278-.16l-.317-1.182a.233.233 0 0 1 .16-.278l.79-.211a.232.232 0 0 0 .16-.278l-.2-.744a.223.223 0 0 0-.277-.16l-1.954.54a.233.233 0 0 0-.16.277l.258.963.316 1.181.317 1.182.012.044.88 3.283c.03.117.146.195.263.164l.73-.196a.233.233 0 0 0 .16-.277l-.73-2.729c-.024-.087.019-.161.107-.185l.862-.23a.233.233 0 0 0 .16-.278l-.2-.744c-.039-.146-.168-.221-.285-.19Zm.986-.06a.24.24 0 0 1 .116-.266.871.871 0 0 0 .428-.975.828.828 0 0 0-.839-.62.212.212 0 0 1-.23-.157l-.2-.744c-.03-.117.044-.246.157-.292l.03-.008a2.02 2.02 0 0 1 2.251 1.508 2.058 2.058 0 0 1-1.192 2.446.235.235 0 0 1-.3-.123l-.007-.03-.214-.74Z" fill="#FBC1F5"/>
</svg>
