<svg version="1.0" xmlns="http://www.w3.org/2000/svg"
 width="24" height="24" viewBox="0 0 200.000000 200.000000"
 preserveAspectRatio="xMidYMid meet">
<g transform="translate(0.000000,200.000000) scale(0.100000,-0.100000)"
fill="#000000" stroke="none">
<path d="M0 1000 l0 -1000 1000 0 1000 0 0 1000 0 1000 -1000 0 -1000 0 0
-1000z m1507 684 c91 -55 130 -189 84 -290 -22 -48 -95 -114 -128 -114 -19 0
-25 9 -39 57 l-17 57 26 20 c14 12 31 34 37 50 15 40 -14 98 -55 110 -52 15
-58 21 -72 70 -11 38 -12 51 -1 63 20 24 107 12 165 -23z m-247 -25 c6 -11 12
-39 13 -62 2 -41 2 -42 -45 -57 -68 -22 -70 -26 -52 -100 22 -88 28 -94 88
-76 26 8 54 12 61 10 15 -6 40 -97 32 -118 -3 -8 -31 -21 -61 -30 -31 -9 -56
-20 -56 -24 0 -4 18 -72 40 -152 22 -80 40 -153 40 -162 0 -21 -106 -56 -121
-41 -6 6 -25 68 -44 139 -43 167 -155 586 -160 600 -7 24 16 37 111 65 120 34
140 35 154 8z m-485 -185 c67 -33 136 -105 155 -163 16 -48 13 -53 -52 -74
l-48 -16 -17 26 c-10 15 -35 43 -55 64 -67 68 -175 71 -252 7 -48 -39 -67 -77
-71 -144 -1 -30 -5 -57 -7 -59 -10 -10 -97 -28 -110 -22 -38 14 -29 147 17
237 25 49 94 119 144 144 84 44 206 44 296 0z m791 -730 c12 -48 -2 -147 -30
-201 -37 -75 -76 -115 -148 -154 -58 -31 -70 -34 -148 -34 -73 0 -93 4 -143
29 -67 32 -128 92 -157 152 -25 51 -19 68 29 83 64 19 78 15 103 -30 33 -58
94 -92 168 -92 106 0 178 71 189 186 l6 61 40 12 c65 20 84 17 91 -12z"/>
</g>
</svg>