<svg width="475" height="523" viewBox="0 0 475 523" fill="none" xmlns="http://www.w3.org/2000/svg">
    <g opacity=".05" fill="#3B49DF">
        <path d="m532.972 279.145-19.913 14.326-24.355 17.606-19.914 14.326c-2.206 1.554-4.34 1.708-5.703 1.467-1.362-.24-3.316-1.114-4.857-3.328l-13.811-20.273-16.864-24.872-13.812-20.272c-1.821-2.617-2.22-5.337-1.017-6.184l7.219-5.085c1.204-.848 3.577.63 5.229 3.217l13.811 20.273 16.864 24.872 10.028 14.837 14.499-10.513 24.355-17.605 19.913-14.327c2.607-1.836 5.313-2.242 6.014-1.236l5.044 7.247c1.182 1.268-.294 3.657-2.73 5.524zm-50.773-37.738c1.533.27 2.766-.749 3.038-2.29 1.949-18.024-10.222-34.651-28.076-37.976-17.885-3.153-35.32 8.079-40.025 25.793l-.06.343c-.242 1.37.739 2.779 2.132 2.848l8.687 1.531c1.362.241 2.565-.607 2.947-1.776 3.035-10.238 13.282-16.555 23.702-14.895 10.39 1.832 17.657 11.413 16.836 22.042-.071 1.4.8 2.437 2.162 2.677l8.657 1.703zm54.474 9.78c1.533.27 2.766-.749 3.038-2.29 2.15-18.165-10.192-34.822-28.076-37.975-17.884-3.153-35.32 8.078-40.024 25.792l-.061.343c-.241 1.37.74 2.779 2.132 2.848l8.687 1.532c1.363.24 2.566-.608 2.948-1.777 3.034-10.238 13.281-16.555 23.701-14.895 10.39 1.832 17.657 11.414 16.836 22.042-.071 1.4.8 2.437 2.163 2.677l8.656 1.703zM253.83 397.67l11.266 8.051 9.23 6.474c1.204.844 2.738.574 3.581-.631l5.084-7.06c.843-1.206.571-2.743-.632-3.587l-9.23-6.474-11.266-8.051-9.229-6.474c-1.204-.844-2.739-.573-3.581.632l-5.085 7.06c-.842 1.205-.571 2.742.633 3.586l9.229 6.474zm-11.607-7.992-8.173 11.479-6.629 9.269c-.843 1.205-.571 2.743.632 3.587l7.023 4.925c1.204.845 2.738.574 3.581-.631l6.629-9.269 8.173-11.479 6.629-9.269c.842-1.205.571-2.743-.632-3.587l-7.053-5.096c-1.204-.845-2.739-.574-3.581.631l-6.599 9.44zm92.294-6.057 11.266 8.052 9.229 6.473c1.204.844 2.739.574 3.581-.631l5.054-7.231a2.685 2.685 0 0 0-.462-3.617l-9.229-6.473-11.266-8.052-9.229-6.473c-1.204-.845-2.739-.574-3.581.631l-5.055 7.231c-.842 1.205-.571 2.742.633 3.586l9.059 6.504zm-11.607-7.992-8.174 11.479-6.629 9.27c-.842 1.205-.571 2.742.633 3.586l7.052 5.096c1.204.845 2.739.574 3.581-.631l6.629-9.269 8.174-11.479 6.629-9.269c.842-1.205.571-2.743-.633-3.587l-7.053-5.096c-1.203-.845-2.738-.574-3.58.631l-6.629 9.269zm-20.353 62.054-33.593 5.923c-4.263.751-7.462 2.548-7.392 3.944l1.336 8.57c.24 1.366 3.862 1.961 8.125 1.209l33.592-5.922 33.422-5.893c4.263-.751 7.463-2.548 7.393-3.944l-1.336-8.57c-.241-1.366-3.862-1.96-8.125-1.209l-33.422 5.892zM63.249 507.853a2.628 2.628 0 0 1-2.956-1.767c-2.863-10.233-13.139-16.519-23.568-14.681-10.57 2.04-17.906 11.431-17.095 22.026.07 1.396-.805 2.43-2.173 2.671l-8.72 1.537c-1.368.242-2.776-.742-3.016-2.108l-.03-.171c-1.794-18.167 10.642-34.618 28.535-38.125 17.953-3.165 35.236 7.871 39.594 25.586.412 1.335-.544 2.912-1.911 3.153l-.172.03-8.488 1.849zm13.432 64.172a2.628 2.628 0 0 1 2.957 1.767c2.862 10.233 13.138 16.519 23.567 14.681 10.4-2.01 17.906-11.431 17.095-22.026-.07-1.396.806-2.43 2.173-2.671l8.72-1.537c1.368-.242 2.776.742 3.017 2.108l.03.171c1.793 18.167-10.643 34.618-28.536 38.125-17.952 3.165-35.236-7.871-39.594-25.586-.412-1.335.544-2.912 1.912-3.153l.17-.03 8.49-1.849zm36.645-75.113-9.062 1.598c-1.368.241-2.775-.743-3.016-2.109l-2.439-13.829c-.24-1.365.745-2.771 2.113-3.013l9.233-1.627c1.368-.241 2.354-1.648 2.113-3.013l-1.535-8.707c-.241-1.366-1.478-2.38-3.017-2.109l-22.88 4.21c-1.368.241-2.355 1.647-2.114 3.013l1.987 11.268 2.44 13.828 2.438 13.829.09.512 6.775 38.413c.24 1.366 1.477 2.38 2.845 2.139l8.549-1.507c1.368-.241 2.354-1.648 2.113-3.013l-5.63-31.926c-.181-1.024.382-1.827 1.408-2.008l10.088-1.779c1.368-.241 2.354-1.647 2.113-3.013l-1.535-8.707c-.301-1.707-1.709-2.691-3.077-2.45zm11.334.29c-.211-1.195.464-2.37 1.6-2.922 4.094-1.778 6.65-6.277 5.867-10.716-.783-4.439-4.553-7.823-8.978-7.923-1.227.04-2.262-.834-2.473-2.029l-1.535-8.707c-.241-1.365.745-2.771 2.083-3.183l.342-.061c11.867-.683 22.333 7.681 24.24 19.491 2.077 11.78-4.726 23.189-16.081 26.776-1.338.411-2.886-.372-3.298-1.707l-.06-.342-1.707-8.677zM241.659 257.203c.211-1.195 1.244-2.069 2.498-2.2 4.614-.243 8.345-3.458 9.158-8.067.782-4.438-1.624-8.735-5.907-10.37-1.163-.381-1.805-1.727-1.624-2.751l1.535-8.706c.271-1.537 1.645-2.35 3.009-2.11l.171.03c11.383 3.239 18.332 14.673 16.285 26.282-2.077 11.779-12.519 20.147-24.384 19.64-1.394-.07-2.577-1.335-2.507-2.731l.061-.341 1.705-8.676zm-33.594 56.916 2.68-15.193c.03-.171.23-.312.29-.653l5.6-31.753c.181-1.024.983-1.586 2.006-1.406l10.09 1.603c1.364.24 2.768-.744 3.009-2.11l1.505-8.536c.241-1.365-.742-2.771-2.106-3.011l-9.207-1.623c-1.364-.241-2.377-1.476-2.136-2.841l2.409-13.657c.241-1.366 1.645-2.351 3.009-2.11l9.207 1.623c1.364.241 2.768-.744 3.009-2.11l1.505-8.535c.241-1.366-.742-2.771-2.106-3.012l-23.047-3.887c-1.364-.24-2.768.744-3.009 2.11l-1.957 11.096-.361 2.049-11.965-1.934c-1.364-.24-2.768.744-3.009 2.11l-1.505 8.536c-.241 1.365.741 2.771 2.136 2.84l9.206 1.624c1.364.24 2.347 1.645 2.106 3.011l-2.408 13.657c-.241 1.366-1.645 2.35-3.009 2.11l-9.207-1.623c-1.364-.241-2.768.744-3.009 2.11l-1.505 8.535c-.241 1.366.741 2.771 2.136 2.841l10.089 1.603c.852.15 1.584.983 1.404 2.007l-5.6 31.753c-.241 1.366.742 2.771 2.106 3.011l8.555 1.333c1.444.782 2.848-.202 3.089-1.568zm-28.659-50.818c.211-1.195-.461-2.369-1.624-2.75-4.282-1.635-6.689-5.932-5.906-10.37.782-4.439 4.544-7.824 9.157-8.067 1.254-.131 2.287-1.005 2.498-2.2l1.535-8.706c.241-1.366-.742-2.771-2.105-3.012l-.341-.06c-11.865-.508-22.307 7.861-24.384 19.64-2.047 11.608 4.902 23.042 16.285 26.281 1.334.412 2.878-.372 3.29-1.708l.06-.341 1.535-8.707zM487.659 513.203c.211-1.195 1.244-2.069 2.498-2.2 4.614-.243 8.345-3.458 9.158-8.067.782-4.438-1.624-8.735-5.907-10.37-1.163-.381-1.805-1.727-1.624-2.751l1.535-8.706c.271-1.537 1.645-2.35 3.009-2.11l.171.03c11.383 3.239 18.332 14.673 16.285 26.282-2.077 11.779-12.519 20.147-24.384 19.64-1.394-.07-2.577-1.335-2.507-2.731l.061-.341 1.705-8.676zm-33.594 56.916 2.68-15.193c.03-.171.23-.312.29-.653l5.6-31.753c.181-1.024.983-1.586 2.006-1.406l10.09 1.603c1.364.24 2.768-.744 3.009-2.11l1.505-8.536c.241-1.365-.742-2.771-2.106-3.011l-9.207-1.623c-1.364-.241-2.377-1.476-2.136-2.841l2.409-13.657c.241-1.366 1.645-2.351 3.009-2.11l9.207 1.623c1.364.241 2.768-.744 3.009-2.11l1.505-8.535c.241-1.366-.742-2.771-2.106-3.012l-23.047-3.887c-1.364-.24-2.768.744-3.009 2.11l-1.957 11.096-.361 2.049-11.965-1.934c-1.364-.24-2.768.744-3.009 2.11l-1.505 8.536c-.241 1.365.741 2.771 2.136 2.84l9.206 1.624c1.364.24 2.347 1.645 2.106 3.011l-2.408 13.657c-.241 1.366-1.645 2.35-3.009 2.11l-9.207-1.623c-1.364-.241-2.768.744-3.009 2.11l-1.505 8.535c-.241 1.366.741 2.771 2.136 2.841l10.089 1.603c.852.15 1.584.983 1.404 2.007l-5.6 31.753c-.241 1.366.742 2.771 2.106 3.011l8.555 1.333c1.444.782 2.848-.202 3.089-1.568zm-28.659-50.818c.211-1.195-.461-2.369-1.624-2.75-4.282-1.635-6.689-5.932-5.906-10.37.782-4.439 4.544-7.824 9.157-8.067 1.254-.131 2.287-1.005 2.498-2.2l1.535-8.706c.241-1.366-.742-2.771-2.105-3.012l-.341-.06c-11.865-.508-22.307 7.861-24.384 19.64-2.047 11.608 4.902 23.043 16.285 26.281 1.334.412 2.878-.372 3.29-1.708l.06-.341 1.535-8.707zM375.83 37.67l11.266 8.051 9.23 6.474c1.204.844 2.738.574 3.581-.631l5.084-7.06c.843-1.206.571-2.743-.632-3.587l-9.23-6.474-11.266-8.051-9.229-6.474c-1.204-.844-2.739-.573-3.581.632l-5.085 7.06c-.842 1.205-.571 2.742.633 3.586l9.229 6.474zm-11.607-7.992-8.173 11.479-6.629 9.27c-.843 1.204-.571 2.742.632 3.586l7.023 4.925c1.204.845 2.738.574 3.581-.63l6.629-9.27 8.173-11.479 6.629-9.27c.842-1.204.571-2.742-.632-3.586l-7.053-5.096c-1.204-.845-2.739-.574-3.581.631l-6.599 9.44zm92.294-6.057 11.266 8.052 9.229 6.473c1.204.844 2.739.574 3.581-.631l5.054-7.231a2.684 2.684 0 0 0-.462-3.617l-9.229-6.473-11.266-8.052-9.229-6.473c-1.204-.845-2.739-.574-3.581.631l-5.055 7.23c-.842 1.206-.571 2.743.633 3.587l9.059 6.504zM444.91 15.63l-8.174 11.478-6.629 9.27c-.842 1.205-.571 2.742.633 3.586l7.052 5.096c1.204.845 2.739.574 3.581-.63l6.629-9.27 8.174-11.479 6.629-9.27c.842-1.204.571-2.742-.633-3.586l-7.053-5.096c-1.203-.845-2.738-.574-3.58.631l-6.629 9.27zm-20.353 62.053-33.593 5.923c-4.263.751-7.462 2.548-7.392 3.944l1.336 8.57c.24 1.366 3.862 1.96 8.125 1.21l33.592-5.923 33.422-5.892c4.263-.752 7.463-2.549 7.393-3.945L466.104 73c-.241-1.366-3.862-1.96-8.125-1.209l-33.422 5.892z"/>
    </g>
</svg>
