<svg width="24" height="24" xmlns="http://www.w3.org/2000/svg" viewBox="0 0 512 512" xml:space="preserve">
    <path d="M507.3 132H360.7c-2.6 0-4.7 2.1-4.7 4.7v236.2c0 2.6 2.1 4.7 4.7 4.7h34.4c2.6 0 4.7-2.1 4.7-4.7V278h97.9c2.6 0 4.7-2.1 4.7-4.7V246c0-2.6-2.1-4.7-4.7-4.7h-97.9V170h107.5c2.6 0 4.7-2.1 4.7-4.7v-28.6c0-2.6-2.1-4.7-4.7-4.7zm-207.1.6h-32.6c-2.6 0-4.7 2.1-4.7 4.7v236.2c0 2.6 2.1 4.7 4.7 4.7h32.6c2.6 0 4.7-2.1 4.7-4.7V137.3c0-2.6-2.1-4.7-4.7-4.7zm-79.1 116.9h-94c-2.6 0-4.7 2.1-4.7 4.7v25.4c0 2.6 2.1 4.7 4.7 4.7h55.2l-.2 5.2c-.7 34.2-26.5 57.3-64.5 57.3-44.3 0-72.1-34.7-72.1-91.2 0-55.7 27.2-90.3 70.7-90.3 31.9 0 54.2 15.7 63.1 43.9h44.3c-7.9-50.7-50-83.4-107.5-83.4C45.4 125.6 0 176.4 0 255.9c0 80.5 44.9 130.4 116.9 130.4 66.4 0 108.8-41.1 108.8-105.7v-26.5c0-2.5-2-4.6-4.6-4.6z"/>
</svg>
