<?xml version="1.0" encoding="utf-8"?>
<!-- Generator: Adobe Illustrator 17.1.0, SVG Export Plug-In . SVG Version: 6.00 Build 0)  -->
<!DOCTYPE svg PUBLIC "-//W3C//DTD SVG 1.1//EN" "http://www.w3.org/Graphics/SVG/1.1/DTD/svg11.dtd">
<svg version="1.1" id="Layer_1" xmlns="http://www.w3.org/2000/svg" xmlns:xlink="http://www.w3.org/1999/xlink" x="0px" y="0px"
	 viewBox="0 0 91.1 91.1" enable-background="new 0 0 91.1 91.1" xml:space="preserve">
<g>
	<path fill="#000000" d="M89.4,41.5L49.6,1.7c-2.3-2.3-6-2.3-8.3,0L33.1,10l10.5,10.5c2.4-0.8,5.2-0.3,7.2,1.7c2,2,2.5,4.8,1.7,7.2
		l10.1,10.1c2.4-0.8,5.3-0.3,7.2,1.7c2.7,2.7,2.7,7.1,0,9.9c-2.7,2.7-7.1,2.7-9.9,0c-2.1-2.1-2.6-5.1-1.5-7.6L48.9,34l0,24.8
		c0.7,0.3,1.3,0.8,1.8,1.3c2.7,2.7,2.7,7.1,0,9.9c-2.7,2.7-7.2,2.7-9.9,0c-2.7-2.7-2.7-7.2,0-9.9c0.7-0.7,1.5-1.2,2.3-1.5v-25
		c-0.8-0.3-1.6-0.8-2.3-1.5c-2.1-2.1-2.6-5.1-1.5-7.6L29,14L1.7,41.3c-2.3,2.3-2.3,6,0,8.3l39.8,39.8c2.3,2.3,6,2.3,8.3,0l39.6-39.6
		C91.7,47.5,91.7,43.8,89.4,41.5z"/>
</g>
</svg>
