<svg width="24" height="24" viewBox="0 0 24 24" fill="none" xmlns="http://www.w3.org/2000/svg">
    <path d="M18.09 18.75c2.115-1.973 3.052-5.25 2.49-8.393h-8.392v3.473h4.777a3.945 3.945 0 0 1-1.777 2.67l2.902 2.25Z" fill="#4285F4"/>
    <path d="M4.215 15.982A9 9 0 0 0 18.09 18.75l-2.902-2.25a5.37 5.37 0 0 1-8.018-2.813l-2.955 2.296Z" fill="#34A853"/>
    <path d="M7.17 13.687c-.375-1.17-.375-2.25 0-3.42L4.215 7.965a9.06 9.06 0 0 0 0 8.025l2.955-2.303Z" fill="#FBBC02"/>
    <path d="M7.17 10.267c1.035-3.24 5.438-5.115 8.393-2.347l2.58-2.528A8.85 8.85 0 0 0 4.215 7.965l2.955 2.302Z" fill="#EA4335"/>
</svg>
