<svg width="24" height="24" viewBox="0 0 24 24" fill="none" xmlns="http://www.w3.org/2000/svg">
    <g clip-path="url(#a)">
        <path d="M19 14v3h3v2h-3v3h-2v-3h-3v-2h3v-3h2Zm1.243-9.243a6.001 6.001 0 0 1 .507 7.91 6 6 0 0 0-8.061 8.127l-.69.691-8.478-8.492a6 6 0 0 1 8.48-8.464 5.998 5.998 0 0 1 8.242.228Z" fill="#EF4444"/>
        <path fill-rule="evenodd" clip-rule="evenodd" d="M19.076 16.974v-3h-2v3h-3v2h3v3h2v-3h3v-2h-3Zm1.751-4.334Zm-8.062 8.128Z" fill="#404040"/>
    </g>
    <defs>
        <clipPath id="a">
            <path fill="#fff" d="M0 0h24v24H0z"/>
        </clipPath>
    </defs>
</svg>
