<svg width="20" height="19" viewBox="0 0 20 19" fill="none" xmlns="http://www.w3.org/2000/svg">
  <path d="M17 11V14H20V16H16.999L17 19H15L14.999 16H12V14H15V11H17ZM18.243 1.75698C20.505 4.02498 20.583 7.63698 18.479 9.99198L17.059 8.57398C18.39 7.04998 18.32 4.65998 16.827 3.16998C15.324 1.67098 12.907 1.60698 11.337 3.01698L10.002 4.21498L8.66603 3.01798C7.09103 1.60598 4.67503 1.66798 3.17203 3.17198C1.68203 4.66198 1.60703 7.04698 2.98003 8.62298L11.412 17.069L10 18.485L1.52003 9.99298C-0.583971 7.63698 -0.50497 4.01898 1.75603 1.75698C4.02103 -0.50702 7.64403 -0.58302 10 1.52898C12.349 -0.58002 15.979 -0.51002 18.242 1.75698H18.243Z" fill="#525252"/>
</svg>
