<svg width="24" height="24" viewBox="0 0 24 24" fill="none" xmlns="http://www.w3.org/2000/svg">
<g clip-path="url(#clip0_1000_2078)">
<path d="M19 14V17H22V19H19V22H17V19H14V17H17V14H19ZM20.243 4.75698C22.403 6.92298 22.572 10.314 20.75 12.667C19.926 12.24 18.99 12 18 12C14.686 12 12 14.686 12 18C12 19.009 12.249 19.96 12.689 20.794L11.999 21.485L3.52101 12.993C1.41701 10.637 1.49601 7.01898 3.75701 4.75698C6.02201 2.49298 9.64501 2.41698 12.001 4.52898C14.35 2.41998 17.98 2.48998 20.243 4.75698Z" fill="#EF4444"/>
<path fill-rule="evenodd" clip-rule="evenodd" d="M19.0765 16.9736V13.9736H17.0765V16.9736H14.0765V18.9736H17.0765V21.9736H19.0765V18.9736H22.0765V16.9736H19.0765ZM20.8271 12.6399C20.1623 12.2963 19.4251 12.0735 18.6444 12.0002C19.4244 12.0734 20.1619 12.2962 20.8265 12.6406C20.8267 12.6404 20.8269 12.6401 20.8271 12.6399ZM12.7654 20.7677C12.6672 20.5815 12.5785 20.3894 12.5 20.1922C12.5786 20.3894 12.6673 20.5814 12.7655 20.7676L12.7654 20.7677Z" fill="#404040"/>
</g>
<defs>
<clipPath id="clip0_1000_2078">
<rect width="24" height="24" fill="white"/>
</clipPath>
</defs>
</svg>
