<?xml version="1.0" encoding="iso-8859-1"?>
<!-- Generator: Adobe Illustrator 19.0.0, SVG Export Plug-In . SVG Version: 6.00 Build 0)  -->
<svg version="1.1" xmlns="http://www.w3.org/2000/svg" xmlns:xlink="http://www.w3.org/1999/xlink" x="0px" y="0px"
	 viewBox="0 0 489.523 489.523" style="enable-background:new 0 0 489.523 489.523;" xml:space="preserve">
<g>
	<g>
		<path d="M468.286,144.662l-16.5-5.7l-6.6-47.8c-3.8-27.1-26.4-47.4-53.7-48.3c-3.2-0.1-6.3,0.1-9.5,0.5l-146.3,20.4l-103.9-36.2
			c-16.5-5.8-34.6,3-40.4,19.5l-13.4,38.6l-20,2.8c-14.8,2.1-27.9,9.8-37,21.7c-9,11.9-12.9,26.7-10.8,41.5l12.8,92l-21.2,60.8
			c-5.8,16.5,3,34.6,19.5,40.4l16.5,5.7l6.6,47.8c3.8,27.1,26.3,47.4,53.7,48.3c3.2,0.1,6.3-0.1,9.5-0.5l146.3-20.4l103.9,36.2
			c16.5,5.8,34.6-3,40.4-19.5l13.4-38.5l20-2.8c30.6-4.2,52-32.6,47.7-63.1l-12.8-92.1l21.2-60.8
			C493.586,168.562,484.786,150.462,468.286,144.662z M59.686,139.362c0.8-1.1,2.4-2.5,4.9-2.9l324.1-45c0.4-0.1,0.9-0.1,1.3-0.1
			c3.1,0.1,6.6,2.3,7.1,6.4l25.6,184.6l-68.8-52.1c-6.8-5.2-16.6-3.8-21.8,3l-43.9,58l-102.2-77.4c-6.8-5.2-16.6-3.8-21.8,3
			l-81.1,107.2l-24.9-179.2C57.886,142.362,58.786,140.462,59.686,139.362z"/>
		<circle cx="280.186" cy="170.362" r="36.8"/>
	</g>
</g>
</svg>
