<svg xmlns="http://www.w3.org/2000/svg" viewBox="0 0 489.523 489.523"><path d="M468.286 144.662l-16.5-5.7-6.6-47.8c-3.8-27.1-26.4-47.4-53.7-48.3-3.2-.1-6.3.1-9.5.5l-146.3 20.4-103.9-36.2c-16.5-5.8-34.6 3-40.4 19.5l-13.4 38.6-20 2.8c-14.8 2.1-27.9 9.8-37 21.7-9 11.9-12.9 26.7-10.8 41.5l12.8 92-21.2 60.8c-5.8 16.5 3 34.6 19.5 40.4l16.5 5.7 6.6 47.8c3.8 27.1 26.3 47.4 53.7 48.3 3.2.1 6.3-.1 9.5-.5l146.3-20.4 103.9 36.2c16.5 5.8 34.6-3 40.4-19.5l13.4-38.5 20-2.8c30.6-4.2 52-32.6 47.7-63.1l-12.8-92.1 21.2-60.8c5.9-16.6-2.9-34.7-19.4-40.5zm-408.6-5.3c.8-1.1 2.4-2.5 4.9-2.9l324.1-45c.4-.1.9-.1 1.3-.1 3.1.1 6.6 2.3 7.1 6.4l25.6 184.6-68.8-52.1c-6.8-5.2-16.6-3.8-21.8 3l-43.9 58-102.2-77.4c-6.8-5.2-16.6-3.8-21.8 3l-81.1 107.2-24.9-179.2c-.3-2.5.6-4.4 1.5-5.5z"/><circle cx="280.186" cy="170.362" r="36.8"/></svg>