<?xml version="1.0" encoding="iso-8859-1"?>
<!-- Generator: Adobe Illustrator 18.0.0, SVG Export Plug-In . SVG Version: 6.00 Build 0)  -->
<!DOCTYPE svg PUBLIC "-//W3C//DTD SVG 1.1//EN" "http://www.w3.org/Graphics/SVG/1.1/DTD/svg11.dtd">
<svg version="1.1" xmlns="http://www.w3.org/2000/svg" xmlns:xlink="http://www.w3.org/1999/xlink" x="0px" y="0px"
	 viewBox="0 0 216.934 216.934" style="enable-background:new 0 0 216.934 216.934;" xml:space="preserve">
<path d="M179.508,91.769c-1.147-2.829-3.896-4.681-6.95-4.681h-32.323l26.743-77.131c1.144-3.298-0.14-6.949-3.095-8.807
	c-2.956-1.859-6.802-1.431-9.278,1.03L39.089,116.98c-2.154,2.141-2.805,5.37-1.646,8.179c1.157,2.809,3.896,4.641,6.934,4.641h32
	L47.26,206.781c-1.244,3.286-0.038,6.995,2.899,8.923c1.258,0.826,2.688,1.23,4.113,1.23c1.899,0,3.785-0.72,5.226-2.119
	L177.782,99.969C179.973,97.842,180.656,94.599,179.508,91.769z M73.196,180.61l21.051-55.657c0.871-2.305,0.557-4.89-0.844-6.917
	c-1.4-2.026-3.707-3.236-6.171-3.236H62.563l79.623-79.13l-19.575,56.462c-0.795,2.293-0.432,4.829,0.975,6.806
	c1.407,1.978,3.684,3.151,6.11,3.151h24.37L73.196,180.61z"/>
</svg>
