<svg xmlns="http://www.w3.org/2000/svg" id="Layer_1" version="1.1" viewBox="0 0 76 76" xml:space="preserve">
    <style/>
    <path d="M68.3 1H7.7C4 1 1 4 1 7.7v60.6C1 72 4 75 7.7 75h60.6c3.7 0 6.7-3 6.7-6.7V7.7C75 4 72 1 68.3 1zM23.9 64.9c0 1.1-.9 1.9-1.9 1.9h-8.3c-1.1 0-1.9-.9-1.9-1.9V30.1c0-1.1.9-1.9 1.9-1.9H22c1.1 0 1.9.9 1.9 1.9v34.8zm-6.1-40c-4.4 0-7.9-3.5-7.9-7.9s3.5-7.9 7.9-7.9 7.9 3.5 7.9 7.9-3.5 7.9-7.9 7.9zm49.4 40.2c0 1-.8 1.8-1.8 1.8h-8.9c-1 0-1.8-.8-1.8-1.8V48.7c0-2.4.7-10.7-6.4-10.7-5.5 0-6.6 5.6-6.8 8.2V65c0 1-.8 1.8-1.8 1.8h-8.6c-1 0-1.8-.8-1.8-1.8V30c0-1 .8-1.8 1.8-1.8h8.6c1 0 1.8.8 1.8 1.8v3c2-3.1 5.1-5.4 11.5-5.4 14.2 0 14.2 13.3 14.2 20.6v16.9z" fill="#2a445d"/>
</svg>
