<svg width="24" height="24" viewBox="0 0 24 24" fill="none" xmlns="http://www.w3.org/2000/svg">
    <rect width="24" height="24" rx="3" fill="#D55D5E"/>
    <path d="M16.499 4.741H7.5a.501.501 0 0 0-.5.502V6.74c0 .277.225.501.501.501H16.5a.501.501 0 0 0 .5-.501V5.243a.501.501 0 0 0-.501-.502zm0 4.839H7.5a.501.501 0 0 0-.501.501v1.498c0 .276.225.501.501.501h9a.501.501 0 0 0 .501-.501V10.08a.501.501 0 0 0-.501-.501zM7.47 14a.47.47 0 0 0-.47.469v4.062a.47.47 0 0 0 .47.469h1.562a.468.468 0 0 0 .468-.469v-4.062A.47.47 0 0 0 9.032 14H7.47z" fill="#F6CBF7"/>
</svg>
