<svg width="24" height="24" viewBox="0 0 24 24" xmlns="http://www.w3.org/2000/svg">
    <path d="M4 3h16a1 1 0 011 1v16a1 1 0 01-1 1H4a1 1 0 01-1-1V4a1 1 0 011-1zm13.3 12.94c-.1-.05-.15-.2-.15-.301V8.006c0-.1.05-.25.15-.351l.955-1.105V6.5H14.84l-2.56 6.478L9.366 6.5H5.852v.05l.903 1.256c.201.2.251.502.251.753v5.523c.05.302 0 .653-.15.954L5.5 16.894v.05h3.616v-.05L7.76 15.087a1.546 1.546 0 01-.15-.954V9.11c.05.1.1.1.15.301l3.414 7.633h.05L14.54 8.76c-.05.3-.05.652-.05.904v5.925c0 .15-.05.25-.15.351l-1.005.954v.05h4.921v-.05l-.954-.954H17.3z"/>
</svg>
