<svg width="24" height="24" xmlns="http://www.w3.org/2000/svg">
    <path fill-rule="evenodd" clip-rule="evenodd" d="M6 2H4a2 2 0 00-2 2v2a2 2 0 002 2h2a2 2 0 002-2V4a2 2 0 00-2-2zM3 4a1 1 0 011-1h2a1 1 0 011 1v2a1 1 0 01-1 1H4a1 1 0 01-1-1V4zm8-2h2a2 2 0 012 2v2a2 2 0 01-2 2h-2a2 2 0 01-2-2V4a2 2 0 012-2zm0 1a1 1 0 00-1 1v2a1 1 0 001 1h2a1 1 0 001-1V4a1 1 0 00-1-1h-2zm0 6h2a2 2 0 012 2v2a2 2 0 01-2 2h-2a2 2 0 01-2-2v-2a2 2 0 012-2zm0 1a1 1 0 00-1 1v2a1 1 0 001 1h2a1 1 0 001-1v-2a1 1 0 00-1-1h-2zm2 6h-2a2 2 0 00-2 2v2a2 2 0 002 2h2a2 2 0 002-2v-2a2 2 0 00-2-2zm-3 2a1 1 0 011-1h2a1 1 0 011 1v2a1 1 0 01-1 1h-2a1 1 0 01-1-1v-2zm8-16h2a2 2 0 012 2v2a2 2 0 01-2 2h-2a2 2 0 01-2-2V4a2 2 0 012-2zm0 1a1 1 0 00-1 1v2a1 1 0 001 1h2a1 1 0 001-1V4a1 1 0 00-1-1h-2zm2 6h-2a2 2 0 00-2 2v2a2 2 0 002 2h2a2 2 0 002-2v-2a2 2 0 00-2-2zm-3 2a1 1 0 011-1h2a1 1 0 011 1v2a1 1 0 01-1 1h-2a1 1 0 01-1-1v-2zm1 5h2a2 2 0 012 2v2a2 2 0 01-2 2h-2a2 2 0 01-2-2v-2a2 2 0 012-2zm0 1a1 1 0 00-1 1v2a1 1 0 001 1h2a1 1 0 001-1v-2a1 1 0 00-1-1h-2zM4 9h2a2 2 0 012 2v2a2 2 0 01-2 2H4a2 2 0 01-2-2v-2a2 2 0 012-2zm0 1a1 1 0 00-1 1v2a1 1 0 001 1h2a1 1 0 001-1v-2a1 1 0 00-1-1H4zm2 6H4a2 2 0 00-2 2v2a2 2 0 002 2h2a2 2 0 002-2v-2a2 2 0 00-2-2zm-3 2a1 1 0 011-1h2a1 1 0 011 1v2a1 1 0 01-1 1H4a1 1 0 01-1-1v-2z"/>
</svg>
