<svg xmlns="http://www.w3.org/2000/svg" viewBox="0 0 486.8 486.8" width="512" height="512"><g fill="#4f5458"><path d="M140.35 32c0-17.6-14.4-32-32-32h-76.3c-17.6 0-32 14.4-32 32v76.2c0 17.6 14.4 32 32 32h76.2c17.6 0 32-14.4 32-32V32h.1zm-24.5 76.3c0 4.1-3.4 7.5-7.5 7.5h-76.3c-4.1 0-7.5-3.4-7.5-7.5V32c0-4.1 3.4-7.5 7.5-7.5h76.2c4.1 0 7.5 3.4 7.5 7.5v76.3h.1zM140.35 205.3c0-17.6-14.4-32-32-32h-76.3c-17.6 0-32 14.4-32 32v76.2c0 17.6 14.4 32 32 32h76.2c17.6 0 32-14.4 32-32v-76.2h.1zm-24.5 76.2c0 4.1-3.4 7.5-7.5 7.5h-76.3c-4.1 0-7.5-3.4-7.5-7.5v-76.2c0-4.1 3.4-7.5 7.5-7.5h76.2c4.1 0 7.5 3.4 7.5 7.5v76.2h.1zM108.35 346.5h-76.3c-17.6 0-32 14.4-32 32v76.2c0 17.6 14.4 32 32 32h76.2c17.6 0 32-14.4 32-32v-76.2c.1-17.6-14.3-32-31.9-32zm7.5 108.3c0 4.1-3.4 7.5-7.5 7.5h-76.3c-4.1 0-7.5-3.4-7.5-7.5v-76.2c0-4.1 3.4-7.5 7.5-7.5h76.2c4.1 0 7.5 3.4 7.5 7.5v76.2h.1zM173.35 281.5c0 17.6 14.4 32 32 32h76.2c17.6 0 32-14.4 32-32v-76.2c0-17.6-14.4-32-32-32h-76.2c-17.6 0-32 14.4-32 32v76.2zm24.5-76.2c0-4.1 3.4-7.5 7.5-7.5h76.2c4.1 0 7.5 3.4 7.5 7.5v76.2c0 4.1-3.4 7.5-7.5 7.5h-76.2c-4.1 0-7.5-3.4-7.5-7.5v-76.2zM173.35 454.8c0 17.6 14.4 32 32 32h76.2c17.6 0 32-14.4 32-32v-76.2c0-17.6-14.4-32-32-32h-76.2c-17.6 0-32 14.4-32 32v76.2zm24.5-76.3c0-4.1 3.4-7.5 7.5-7.5h76.2c4.1 0 7.5 3.4 7.5 7.5v76.2c0 4.1-3.4 7.5-7.5 7.5h-76.2c-4.1 0-7.5-3.4-7.5-7.5v-76.2zM346.55 281.5c0 17.6 14.4 32 32 32h76.2c17.6 0 32-14.4 32-32v-76.2c0-17.6-14.4-32-32-32h-76.2c-17.6 0-32 14.4-32 32v76.2zm24.5-76.2c0-4.1 3.4-7.5 7.5-7.5h76.2c4.1 0 7.5 3.4 7.5 7.5v76.2c0 4.1-3.4 7.5-7.5 7.5h-76.2c-4.1 0-7.5-3.4-7.5-7.5v-76.2zM346.55 454.8c0 17.6 14.4 32 32 32h76.2c17.6 0 32-14.4 32-32v-76.2c0-17.6-14.4-32-32-32h-76.2c-17.6 0-32 14.4-32 32v76.2zm24.5-76.3c0-4.1 3.4-7.5 7.5-7.5h76.2c4.1 0 7.5 3.4 7.5 7.5v76.2c0 4.1-3.4 7.5-7.5 7.5h-76.2c-4.1 0-7.5-3.4-7.5-7.5v-76.2zM173.35 32v76.2c0 17.6 14.4 32 32 32h76.2c17.6 0 32-14.4 32-32V32c0-17.6-14.4-32-32-32h-76.2c-17.7 0-32 14.4-32 32zm24.5 0c0-4.1 3.4-7.5 7.5-7.5h76.2c4.1 0 7.5 3.4 7.5 7.5v76.2c0 4.1-3.4 7.5-7.5 7.5h-76.2c-4.1 0-7.5-3.4-7.5-7.5V32zM378.55 140.3h76.2c17.6 0 32-14.4 32-32V32c0-17.6-14.4-32-32-32h-76.2c-17.6 0-32 14.4-32 32v76.2c0 17.7 14.4 32.1 32 32.1zM371.05 32c0-4.1 3.4-7.5 7.5-7.5h76.2c4.1 0 7.5 3.4 7.5 7.5v76.2c0 4.1-3.4 7.5-7.5 7.5h-76.2c-4.1 0-7.5-3.4-7.5-7.5V32z"/></g></svg>