<svg width="24" height="24" fill="none" xmlns="http://www.w3.org/2000/svg"><path d="M6.92 1.578C6.92.71 6.21 0 5.341 0H1.58C.712 0 .002.71.002 1.578v3.756c0 .868.71 1.578 1.578 1.578h3.757c.868 0 1.578-.71 1.578-1.578V1.578h.004zM5.711 5.339c0 .202-.168.37-.37.37H1.58a.372.372 0 01-.37-.37V1.578c0-.202.168-.37.37-.37h3.757c.202 0 .37.168.37.37v3.761h.005zm1.207 4.783c0-.868-.71-1.578-1.577-1.578H1.58c-.868 0-1.578.71-1.578 1.578v3.756c0 .868.71 1.578 1.578 1.578h3.757c.868 0 1.578-.71 1.578-1.578v-3.756h.004zm-1.207 3.756c0 .203-.168.37-.37.37H1.58a.373.373 0 01-.37-.37v-3.756c0-.203.168-.37.37-.37h3.757c.202 0 .37.167.37.37v3.756h.005zm-.37 3.205H1.58c-.868 0-1.578.71-1.578 1.578v3.756c0 .868.71 1.578 1.578 1.578h3.757c.868 0 1.578-.71 1.578-1.578v-3.756a1.575 1.575 0 00-1.573-1.578zm.37 5.34c0 .202-.168.37-.37.37H1.58a.372.372 0 01-.37-.37v-3.757c0-.203.168-.37.37-.37h3.757c.202 0 .37.167.37.37v3.756h.005zm2.834-8.545c0 .868.71 1.578 1.578 1.578h3.757c.868 0 1.578-.71 1.578-1.578v-3.756c0-.868-.71-1.578-1.578-1.578h-3.757c-.868 0-1.578.71-1.578 1.578v3.756zm1.208-3.756c0-.203.168-.37.37-.37h3.757c.202 0 .37.167.37.37v3.756c0 .203-.168.37-.37.37h-3.757a.373.373 0 01-.37-.37v-3.756zm-1.208 12.3c0 .868.71 1.578 1.578 1.578h3.757c.868 0 1.578-.71 1.578-1.578v-3.756c0-.868-.71-1.578-1.578-1.578h-3.757c-.868 0-1.578.71-1.578 1.578v3.756zm1.208-3.761c0-.203.168-.37.37-.37h3.757c.202 0 .37.168.37.37v3.756c0 .203-.168.37-.37.37h-3.757a.372.372 0 01-.37-.37v-3.756zm7.332-4.783c0 .868.71 1.578 1.577 1.578h3.757c.868 0 1.577-.71 1.577-1.578v-3.756c0-.868-.71-1.578-1.577-1.578h-3.757c-.868 0-1.578.71-1.578 1.578v3.756zm1.207-3.756c0-.203.168-.37.37-.37h3.757c.202 0 .37.167.37.37v3.756c0 .203-.168.37-.37.37h-3.757a.372.372 0 01-.37-.37v-3.756zm-1.207 12.3c0 .868.71 1.578 1.577 1.578h3.757c.868 0 1.577-.71 1.577-1.578v-3.756c0-.868-.71-1.578-1.577-1.578h-3.757c-.868 0-1.578.71-1.578 1.578v3.756zm1.207-3.761c0-.203.168-.37.37-.37h3.757c.202 0 .37.168.37.37v3.756c0 .203-.168.37-.37.37h-3.757a.372.372 0 01-.37-.37v-3.756zM8.546 1.578v3.756c0 .868.71 1.578 1.578 1.578h3.757c.868 0 1.578-.71 1.578-1.578V1.578C15.459.71 14.748 0 13.88 0h-3.757a1.58 1.58 0 00-1.578 1.578zm1.208 0c0-.202.168-.37.37-.37h3.757c.202 0 .37.168.37.37v3.756c0 .203-.168.37-.37.37h-3.757a.372.372 0 01-.37-.37V1.578zm8.91 5.339h3.756c.868 0 1.577-.71 1.577-1.578V1.578C23.997.71 23.287 0 22.42 0h-3.757c-.868 0-1.578.71-1.578 1.578v3.756c0 .873.71 1.583 1.578 1.583zm-.37-5.34c0-.201.167-.37.37-.37h3.756c.202 0 .37.169.37.37v3.757c0 .203-.168.37-.37.37h-3.757a.372.372 0 01-.37-.37V1.578z" fill="#000"/></svg>