
<svg xmlns="http://www.w3.org/2000/svg" viewBox="0 0 310.59 130.78"><defs><style>.cls-1{fill:#242425;}.cls-2{fill:#e73427;}.cls-3{fill:#1d539f;}.cls-4{fill:#f8b92a;}</style></defs><title>mlh-logo-color-dark</title><g id="Layer_2" data-name="Layer 2"><g id="Layer_1-2" data-name="Layer 1"><g id="mlh-logo-color-dark"><g id="Major_League_Hacking" data-name="Major League Hacking"><path class="cls-1" d="M15.65,114.54a2.79,2.79,0,0,1,1.68,2.51v13.22a.45.45,0,0,1-.45.44H13.62a.39.39,0,0,1-.3-.12.47.47,0,0,1-.12-.32v-12H10.57v12a.45.45,0,0,1-.12.31.34.34,0,0,1-.3.13h-3a.44.44,0,0,1-.44-.44h0v-12H4.13v12a.39.39,0,0,1-.33.44H.45A.4.4,0,0,1,0,130.4V114.76a.39.39,0,0,1,.33-.44H14.57A2.52,2.52,0,0,1,15.65,114.54Z"/><path class="cls-1" d="M32,114.32A2.75,2.75,0,0,1,34.55,116a2.56,2.56,0,0,1,.23,1.06v13.22a.42.42,0,0,1-.42.44H31.08a.45.45,0,0,1-.45-.44h0v-4.2a.44.44,0,0,0-.11-.31.38.38,0,0,0-.31-.13H25.57a.45.45,0,0,0-.45.44h0v4.2a.38.38,0,0,1-.32.44H21.45a.38.38,0,0,1-.45-.32V117.06a2.75,2.75,0,0,1,.21-1.06,2.6,2.6,0,0,1,.59-.91,2.91,2.91,0,0,1,.91-.59,2.58,2.58,0,0,1,1.06-.22Zm-1.41,7.81V118h-5.5v4.12Z"/><path class="cls-1" d="M49.52,114.45a.37.37,0,0,1,.13.31V128a2.58,2.58,0,0,1-.22,1.06,3,3,0,0,1-.59.91,2.47,2.47,0,0,1-.9.59,2.8,2.8,0,0,1-1.07.21h-7a2.8,2.8,0,0,1-1.07-.21A2.74,2.74,0,0,1,37.12,128v-5a.4.4,0,0,1,.33-.45H40.8a.41.41,0,0,1,.45.33v3.47a.41.41,0,0,0,.12.31.46.46,0,0,0,.32.11h3.4a.44.44,0,0,0,.31-.11.38.38,0,0,0,.13-.31V114.76a.45.45,0,0,1,.12-.31.37.37,0,0,1,.31-.13h3.26A.39.39,0,0,1,49.52,114.45Z"/><path class="cls-1" d="M64.35,114.32a2.58,2.58,0,0,1,1.06.22A2.64,2.64,0,0,1,66.86,116a2.56,2.56,0,0,1,.23,1.06v10.89a2.64,2.64,0,0,1-.23,1.07,2.78,2.78,0,0,1-.58.9,2.51,2.51,0,0,1-.91.59,2.54,2.54,0,0,1-1.06.21H56.05A2.61,2.61,0,0,1,55,130.5a2.71,2.71,0,0,1-1.68-2.5V117.11a2.8,2.8,0,0,1,.21-1.07,2.45,2.45,0,0,1,.58-.9,2.91,2.91,0,0,1,.91-.59,2.55,2.55,0,0,1,1.06-.22Zm-1.41,4h-5.5v8.44H63Z"/><path class="cls-1" d="M85.06,130.35a.22.22,0,0,1,0,.27.27.27,0,0,1-.25.11H81.09a.7.7,0,0,1-.37-.11.75.75,0,0,1-.29-.27L78,125.9a.17.17,0,0,0-.17-.09H75a.1.1,0,0,0-.12.08,0,0,0,0,0,0,0v4.36a.38.38,0,0,1-.34.43H71.21a.39.39,0,0,1-.44-.32.24.24,0,0,1,0-.12V114.76a.38.38,0,0,1,.32-.44H81.81a2.62,2.62,0,0,1,1.06.22A2.78,2.78,0,0,1,84.32,116a2.58,2.58,0,0,1,.22,1.06v6.16a2.66,2.66,0,0,1-.53,1.61,2.58,2.58,0,0,1-1.35,1h-.07c-.11,0-.14.08-.08.14v0ZM80.4,118.14H74.75v4H80.4Z"/><path class="cls-1" d="M107.12,126.74a.39.39,0,0,1,.31.12.47.47,0,0,1,.12.32v3.1a.45.45,0,0,1-.12.31.37.37,0,0,1-.31.13H97a.4.4,0,0,1-.45-.32V114.76a.39.39,0,0,1,.33-.44h3.35a.39.39,0,0,1,.44.33.2.2,0,0,1,0,.11v11.56a.4.4,0,0,0,.13.31.47.47,0,0,0,.32.12Z"/><path class="cls-1" d="M122.28,114.45a.4.4,0,0,1,.13.31v2.95a.37.37,0,0,1-.13.31.45.45,0,0,1-.31.12h-7.86a.09.09,0,0,0-.11.08s0,0,0,0v2.55c0,.06,0,.09.11.09h6.7a.37.37,0,0,1,.3.13.45.45,0,0,1,.12.31v2.35a.45.45,0,0,1-.12.31.37.37,0,0,1-.3.13h-6.7a.1.1,0,0,0-.11.08,0,0,0,0,0,0,0v2.53a.09.09,0,0,0,.07.12H122a.44.44,0,0,1,.44.43v3a.43.43,0,0,1-.43.44H110.32a.4.4,0,0,1-.45-.32V114.76a.45.45,0,0,1,.45-.44H122A.42.42,0,0,1,122.28,114.45Z"/><path class="cls-1" d="M137.15,114.32a2.6,2.6,0,0,1,1.07.22,2.69,2.69,0,0,1,1.46,1.45,2.55,2.55,0,0,1,.22,1.06v13.22a.42.42,0,0,1-.42.44h-3.31a.44.44,0,0,1-.44-.44h0v-4.2a.45.45,0,0,0-.12-.31.37.37,0,0,0-.31-.13h-4.57a.45.45,0,0,0-.45.44h0v4.2a.39.39,0,0,1-.33.44H126.6a.38.38,0,0,1-.44-.32.24.24,0,0,1,0-.12V117.06a2.75,2.75,0,0,1,.21-1.06,2.6,2.6,0,0,1,.59-.91,2.91,2.91,0,0,1,.91-.59,2.55,2.55,0,0,1,1.06-.22Zm-1.4,7.81V118h-5.51v4.12Z"/><path class="cls-1" d="M157.2,121.9a.41.41,0,0,1,.12.32V128a2.58,2.58,0,0,1-.22,1.06,3.21,3.21,0,0,1-.58.91,2.6,2.6,0,0,1-.91.59,2.78,2.78,0,0,1-1.06.21h-8.3a2.73,2.73,0,0,1-2.74-2.74v-10.9a2.78,2.78,0,0,1,.21-1.06,2.44,2.44,0,0,1,.58-.91,3,3,0,0,1,.9-.59,2.81,2.81,0,0,1,1.07-.22H156a.45.45,0,0,1,.45.45h0v3.09a.45.45,0,0,1-.45.45h-7.85a.47.47,0,0,0-.32.12.44.44,0,0,0-.13.31v7.59a.42.42,0,0,0,.13.3.43.43,0,0,0,.32.12h4.64a.4.4,0,0,0,.42-.38v-4.14a.42.42,0,0,1,.42-.44h3.28A.43.43,0,0,1,157.2,121.9Z"/><path class="cls-1" d="M174.49,114.45a.44.44,0,0,1,.13.31V128a2.59,2.59,0,0,1-.23,1.06,3,3,0,0,1-.58.91,2.6,2.6,0,0,1-.91.59,2.8,2.8,0,0,1-1.07.21h-8.3a2.78,2.78,0,0,1-1.06-.21A2.75,2.75,0,0,1,161,129.1a2.8,2.8,0,0,1-.21-1.07V114.76a.39.39,0,0,1,.33-.44h3.35a.39.39,0,0,1,.44.33.2.2,0,0,1,0,.11v11.56a.4.4,0,0,0,.13.31.47.47,0,0,0,.32.12H170a.42.42,0,0,0,.3-.12.37.37,0,0,0,.12-.31V114.76a.45.45,0,0,1,.45-.44h3.26A.39.39,0,0,1,174.49,114.45Z"/><path class="cls-1" d="M190.73,114.45a.44.44,0,0,1,.13.31v2.95a.4.4,0,0,1-.13.31.47.47,0,0,1-.32.12h-7.85a.1.1,0,0,0-.12.08v2.59c0,.06,0,.09.12.09h6.7a.39.39,0,0,1,.3.13.45.45,0,0,1,.12.31v2.35a.45.45,0,0,1-.12.31.39.39,0,0,1-.3.13h-6.7a.11.11,0,0,0-.12.08v2.57a.1.1,0,0,0,.08.12h7.89a.45.45,0,0,1,.45.43v3a.44.44,0,0,1-.43.44H178.77a.39.39,0,0,1-.45-.32.24.24,0,0,1,0-.12V114.76a.45.45,0,0,1,.45-.44h11.64A.42.42,0,0,1,190.73,114.45Z"/><path class="cls-1" d="M215.88,114.32a.42.42,0,0,1,.44.42v15.54a.43.43,0,0,1-.43.44h-3.27a.45.45,0,0,1-.45-.44h0v-5.45a.4.4,0,0,0-.38-.42h-4.67a.45.45,0,0,0-.32.12.37.37,0,0,0-.13.31v5.45a.39.39,0,0,1-.33.44.21.21,0,0,1-.11,0H203a.39.39,0,0,1-.44-.33.2.2,0,0,1,0-.11V114.76a.39.39,0,0,1,.33-.44h3.35a.39.39,0,0,1,.44.33.2.2,0,0,1,0,.11V120a.39.39,0,0,0,.33.44h4.75a.39.39,0,0,0,.31-.12.47.47,0,0,0,.12-.32v-5.25a.45.45,0,0,1,.45-.44h3.25Z"/><path class="cls-1" d="M231.06,114.32a2.6,2.6,0,0,1,1.07.22,2.69,2.69,0,0,1,1.46,1.45,2.55,2.55,0,0,1,.22,1.06v13.22a.42.42,0,0,1-.42.44h-3.28a.44.44,0,0,1-.44-.44v-4.2a.45.45,0,0,0-.12-.31.37.37,0,0,0-.31-.13h-4.65a.44.44,0,0,0-.44.44h0v4.2a.39.39,0,0,1-.33.44h-3.35a.39.39,0,0,1-.45-.32V117.06a2.75,2.75,0,0,1,.21-1.06,2.6,2.6,0,0,1,.59-.91,3,3,0,0,1,.91-.59,2.62,2.62,0,0,1,1.06-.22Zm-1.4,7.81V118h-5.51v4.12Z"/><path class="cls-1" d="M241.68,118.42a.39.39,0,0,0-.12.31v7.59a.39.39,0,0,0,.12.31.47.47,0,0,0,.32.12h7.53a.42.42,0,0,1,.44.42v3.12a.42.42,0,0,1-.42.44h-9.37a2.71,2.71,0,0,1-1.06-.21,2.6,2.6,0,0,1-.91-.59,2.92,2.92,0,0,1-.79-2V117.07a2.71,2.71,0,0,1,.21-1.06,2.44,2.44,0,0,1,.58-.91,2.91,2.91,0,0,1,.91-.59,2.55,2.55,0,0,1,1.06-.22h9.35a.44.44,0,0,1,.44.43v3.11a.44.44,0,0,1-.42.45H242A.45.45,0,0,0,241.68,118.42Z"/><path class="cls-1" d="M263,121.23a.12.12,0,0,0,0,.16l5.44,9a.22.22,0,0,1,0,.27.27.27,0,0,1-.25.11h-3.9a.7.7,0,0,1-.37-.11.66.66,0,0,1-.28-.27L260.13,124c0-.09-.09-.09-.12,0l-1.94,2.13a.9.9,0,0,0-.2.34,1.1,1.1,0,0,0-.08.4v3.47a.41.41,0,0,1-.33.45h-3.28a.39.39,0,0,1-.44-.33.24.24,0,0,1,0-.12V114.76a.39.39,0,0,1,.33-.44h3.35a.39.39,0,0,1,.44.33.2.2,0,0,1,0,.11v7l6.05-7.08a1,1,0,0,1,.26-.27.93.93,0,0,1,.4-.09h3.89c.13,0,.2,0,.23.09s0,.15-.08.24Z"/><path class="cls-1" d="M275.65,130.28a.38.38,0,0,1-.32.44H272a.39.39,0,0,1-.45-.32V114.76a.39.39,0,0,1,.33-.44h3.35a.39.39,0,0,1,.44.33.2.2,0,0,1,0,.11Z"/><path class="cls-1" d="M291.4,114.54a2.76,2.76,0,0,1,1.46,1.45,2.57,2.57,0,0,1,.21,1.06v13.22a.42.42,0,0,1-.42.44h-3.24a.39.39,0,0,1-.31-.12.47.47,0,0,1-.12-.32V118.72a.37.37,0,0,0-.13-.31.45.45,0,0,0-.31-.12H283.9a.47.47,0,0,0-.32.12.4.4,0,0,0-.13.31v11.56a.39.39,0,0,1-.33.44h-3.35a.39.39,0,0,1-.44-.32.24.24,0,0,1,0-.12V114.76a.39.39,0,0,1,.33-.44h10.71A2.45,2.45,0,0,1,291.4,114.54Z"/><path class="cls-1" d="M310.41,121.9a.42.42,0,0,1,.13.32V128a2.59,2.59,0,0,1-.23,1.06,2.82,2.82,0,0,1-.58.91,2.51,2.51,0,0,1-.91.59,2.71,2.71,0,0,1-1.06.21h-8.3a2.78,2.78,0,0,1-1.06-.21,2.74,2.74,0,0,1-1.64-2.56V117.11A2.8,2.8,0,0,1,297,116a2.45,2.45,0,0,1,.58-.9,2.91,2.91,0,0,1,.91-.59,2.55,2.55,0,0,1,1.06-.22h9.68a.44.44,0,0,1,.44.44v3.1a.44.44,0,0,1-.44.44h-7.86a.45.45,0,0,0-.31.12.37.37,0,0,0-.13.31v7.59a.37.37,0,0,0,.13.31.4.4,0,0,0,.31.11h4.59a.4.4,0,0,0,.42-.38v-4.14a.42.42,0,0,1,.42-.44h3.28A.43.43,0,0,1,310.41,121.9Z"/></g><g id="M"><path class="cls-2" d="M98.85,1.41A17.32,17.32,0,0,1,108,10.57a16.51,16.51,0,0,1,1.41,6.68v86.06a2.78,2.78,0,0,1-2.75,2.8H86a2.43,2.43,0,0,1-1.92-.82,2.82,2.82,0,0,1-.74-2V25.12H66.79v78.22a2.87,2.87,0,0,1-.74,2,2.52,2.52,0,0,1-1.93.82H45.47a2.78,2.78,0,0,1-2.82-2.74V25.12H26.07v78.22a2.49,2.49,0,0,1-2.82,2.81H2.82A2.49,2.49,0,0,1,0,103.34V2.81A2.49,2.49,0,0,1,2.82,0H92.11A16.46,16.46,0,0,1,98.85,1.41Z"/></g><g id="L"><path class="cls-3" d="M199.19,80.38a2.69,2.69,0,0,1,2,.83,2.89,2.89,0,0,1,.78,2.05v20a2.83,2.83,0,0,1-.78,2,2.67,2.67,0,0,1-2,.84h-70.5c-2,0-3-1-3-2.88V2.88c0-1.92,1-2.88,3-2.88h21.64c2,0,3,1,3,2.88V77.65a2.49,2.49,0,0,0,.91,2,3.09,3.09,0,0,0,2.11.77Z"/></g><g id="H"><path class="cls-4" d="M307.54,0a2.94,2.94,0,0,1,2.14.84,2.76,2.76,0,0,1,.91,2.05V103.57a2.76,2.76,0,0,1-.91,2.05,2.94,2.94,0,0,1-2.14.84H285.62a2.93,2.93,0,0,1-2.13-.84,2.69,2.69,0,0,1-.91-2.05V68.44a2.63,2.63,0,0,0-.79-2,2.82,2.82,0,0,0-2.05-.76H249a3.09,3.09,0,0,0-2.13.76,2.5,2.5,0,0,0-.91,2v35.13c0,1.92-1,2.89-3,2.89H221.2c-2,0-3-1-3-2.89V2.89c0-1.93,1-2.89,3-2.89H243c2,0,3,1,3,2.89V37c0,1.92,1,2.88,3,2.88h30.81a2.74,2.74,0,0,0,2.06-.83,2.93,2.93,0,0,0,.79-2V2.89a2.71,2.71,0,0,1,.9-2.05A2.92,2.92,0,0,1,285.62,0Z"/></g></g></g></g></svg>