<svg width="32" height="32" viewBox="0 0 32 32" fill="none" xmlns="http://www.w3.org/2000/svg">
    <path d="M2 17.31C3.93 9.584 10.55 3.351 17.532 7.18c0 0 3.517-1.163 4.024-1.515.494-.342 1.271-.703.709.34-.329.607-.68 1.3-1.869 2.58 3.382 3.36 2.387 7.485 3.582 10.198 1.014 2.304 2.004 3.681 1.019 5.426-1.025 1.812-3.678 2.692-5.459.824-.967-1.016-.366-1.506-2.436-3.268-2.118-.422-3.417-1.393-3.417-3.403 0 0-.619-.297-1.42 4.674-.23 1.412-.113 2.823-.025 4.304.083 1.41-1.062 2.527-2.474 2.527H4.625A2.625 2.625 0 0 1 2 27.243V17.31Z" fill="url(#a)"/>
    <path d="M4.657 6.962c.155-.12.376.046.324.236-.283 1.049-.421 2.493-.26 3.521.117-3.051 2.48-5.118 3.404-5.594 1.61-.832 3.2-.773 4.953-.63.15.013.245.191.195.334-.08.229-.148.551-.109.898.373-.68 1.248-1.104 1.815-.988 1.058.215 1.992.526 2.703.899.392.08.971.321 1.845.856 1.38.846 2.996 3.03 4.816 2.823.17-.02.316.15.228.296-.899 1.485-2.629 1.047-2.629 1.047-.939-1.517-3.163-2.94-4.797-3.463-5.926-1.357-9.811 2.675-12.002 7.31-.597 1.264-2.03 5.547-3.143 8.005v-9.538c0-1.68.321-3.46 1.377-4.768a7.601 7.601 0 0 1 1.28-1.244Z" fill="url(#b)"/>
    <path d="M19.275 4.714c-.445.613-2.517.618-3.574 2.972-1.057 2.353 1.51 2.045 2.442.956 1.037-1.214 1.502-2.227 1.684-3.105.096-.463.35-2.06-.552-.823Z" fill="url(#c)"/>
    <path d="M18.949 5.727c-.744.445-1.684 1.178-1.958 2.019-.273.84.55.693 1.05-.033.498-.726.73-1.536.999-1.76.269-.225-.091-.226-.091-.226Z" fill="url(#d)"/>
    <path fill-rule="evenodd" clip-rule="evenodd" d="M24.17 19.213c.097.212.193.416.286.614.803 1.713 1.368 2.919.54 4.384-1.024 1.812-3.677 2.692-5.458.824-.375-.394-.514-.71-.665-1.05-.034-.076-.068-.153-.105-.232.608-.513 1.083-1.141 1.232-1.885.352-1.76 2.442-2.53 4.17-2.655Z" fill="url(#e)"/>
    <path d="M17.5 14.867a1.5 1.5 0 1 1 0-3 1.5 1.5 0 0 1 0 3Z" fill="url(#f)"/>
    <path d="M18 14.367a.5.5 0 1 1 0-1 .5.5 0 0 1 0 1Z" fill="url(#g)"/>
    <path d="M23.288 22.77c-.093.513.14.983.52 1.052.382.069.766-.29.86-.802.092-.512-.142-.983-.522-1.053-.381-.068-.766.29-.858.804Z" fill="url(#h)"/>
    <path d="m19.232 8.185-.002-.001.004-.006.012-.01c.007-.006.009-.015.015-.02.007-.006.017-.009.024-.014.899-.762 9.99-6.652 10.545-6.097.567.567-7.952 7.407-8.501 7.825l-.009.005-.42.341c-.007.006-.009.014-.015.019-.01.008-.022.011-.032.018l-.037.03.007-.012c-.44.28-1.11.088-1.54-.46-.434-.557-.448-1.265-.05-1.618Z" fill="url(#i)"/>
    <path d="m26.362 3.617-.007-.02c.234-.134.462-.264.683-.388.013.03.017.054.032.086.087.189.2.376.334.556.129.175.271.33.42.463.016.014.028.02.044.034-.185.17-.38.347-.58.525a3.894 3.894 0 0 1-.926-1.256Zm-1.77 2.29a3.615 3.615 0 0 1-.512-.942l.68-.418c.06.232.193.543.457.896.24.324.476.53.672.657l-.606.517a3.695 3.695 0 0 1-.69-.71Zm-2.269 1.654a3.436 3.436 0 0 1-.57-1.118l.704-.456c.018.23.134.63.49 1.109.321.43.64.658.856.76l-.633.522a3.528 3.528 0 0 1-.847-.817Z" fill="#A0041E" fill-opacity=".7"/>
    <defs>
        <linearGradient id="a" x1="13.701" y1="5.316" x2="13.701" y2="29.868" gradientUnits="userSpaceOnUse">
            <stop stop-color="#E3F3FF"/>
            <stop offset="1" stop-color="#749CC4"/>
        </linearGradient>
        <linearGradient id="b" x1="13.383" y1="4.41" x2="13.383" y2="22.512" gradientUnits="userSpaceOnUse">
            <stop stop-color="#4F46E5"/>
            <stop offset="1" stop-color="#60379A"/>
        </linearGradient>
        <linearGradient id="c" x1="17.692" y1="4.254" x2="17.692" y2="9.467" gradientUnits="userSpaceOnUse">
            <stop stop-color="#DBEBF7"/>
            <stop offset="1" stop-color="#9AB5C8"/>
        </linearGradient>
        <linearGradient id="d" x1="18.038" y1="5.727" x2="18.038" y2="8.319" gradientUnits="userSpaceOnUse">
            <stop stop-color="#3A6481"/>
            <stop offset="1" stop-color="#1E445E"/>
        </linearGradient>
        <linearGradient id="e" x1="22.086" y1="19.213" x2="22.086" y2="26.074" gradientUnits="userSpaceOnUse">
            <stop stop-color="#4F46E5"/>
            <stop offset="1" stop-color="#60379A"/>
        </linearGradient>
        <linearGradient id="f" x1="17.5" y1="11.867" x2="17.5" y2="14.867" gradientUnits="userSpaceOnUse">
            <stop stop-color="#3A6481"/>
            <stop offset="1" stop-color="#1E445E"/>
        </linearGradient>
        <linearGradient id="g" x1="18" y1="13.367" x2="18" y2="14.367" gradientUnits="userSpaceOnUse">
            <stop stop-color="#fff"/>
            <stop offset="1" stop-color="#1E445E"/>
        </linearGradient>
        <linearGradient id="h" x1="23.978" y1="21.959" x2="23.978" y2="23.83" gradientUnits="userSpaceOnUse">
            <stop stop-color="#061722"/>
            <stop offset="1" stop-color="#051622"/>
        </linearGradient>
        <linearGradient id="i" x1="24.401" y1="2" x2="24.401" y2="10.391" gradientUnits="userSpaceOnUse">
            <stop stop-color="#FFA271"/>
            <stop offset="1" stop-color="#F36C24"/>
        </linearGradient>
    </defs>
</svg>
