<?xml version="1.0" encoding="iso-8859-1"?>
<!-- Generator: Adobe Illustrator 19.0.0, SVG Export Plug-In . SVG Version: 6.00 Build 0)  -->
<svg version="1.1" id="Layer_1" xmlns="http://www.w3.org/2000/svg" xmlns:xlink="http://www.w3.org/1999/xlink" x="0px" y="0px"
	 viewBox="0 0 512.001 512.001" style="enable-background:new 0 0 512.001 512.001;" xml:space="preserve">
<g>
	<g>
		<path d="M467.166,309.626c-0.216-0.125-0.437-0.241-0.654-0.362c0.506-5.951,0.779-11.968,0.779-18.048
			c0-84.484-49.849-157.533-121.671-191.312c0.001-0.257,0.019-0.511,0.019-0.77c0-49.506-40.132-89.638-89.638-89.638
			s-89.638,40.132-89.638,89.638c0,0.257,0.018,0.511,0.019,0.77C94.559,133.684,44.71,206.733,44.71,291.216
			c0,6.08,0.273,12.095,0.779,18.045c-0.218,0.125-0.439,0.241-0.657,0.365c-42.871,24.753-57.561,79.576-32.808,122.448
			c16.604,28.757,46.733,44.834,77.714,44.834c15.205,0,30.619-3.874,44.735-12.024c0.241-0.14,0.47-0.293,0.709-0.434
			c34.263,23.969,75.925,38.055,120.821,38.055c44.895,0,86.556-14.086,120.819-38.054c0.24,0.141,0.467,0.293,0.708,0.433
			c14.117,8.151,29.528,12.026,44.736,12.026c30.978,0,61.11-16.079,77.712-44.834C524.729,389.203,510.041,334.379,467.166,309.626
			z M256.001,47.912c28.244,0,51.222,22.977,51.222,51.222c0,28.245-22.978,51.222-51.222,51.222
			c-28.244,0-51.222-22.977-51.222-51.222C204.78,70.889,227.758,47.912,256.001,47.912z M139.13,400.513
			c-3.542,13.215-12.017,24.263-23.867,31.103c-7.791,4.499-16.618,6.877-25.525,6.877c-18.289,0-35.319-9.819-44.445-25.626
			c-14.122-24.46-5.711-55.848,18.75-69.971c7.791-4.5,16.619-6.877,25.526-6.877h0.004c18.285,0,35.314,9.819,44.44,25.626
			C140.854,373.493,142.671,387.296,139.13,400.513z M348.076,437.463c-26.676,16.854-58.253,26.626-92.074,26.626
			c-33.823,0-65.401-9.772-92.078-26.626c18.576-27.524,21.076-64.336,3.358-95.027c-16.602-28.756-46.731-44.834-77.71-44.834
			c-0.001,0-0.001,0-0.004,0c-2.099,0-4.2,0.081-6.303,0.23c-0.083-2.197-0.138-4.401-0.138-6.617
			c0-66.223,37.434-123.857,92.248-152.882c14.544,29.858,45.179,50.438,80.626,50.438s66.081-20.578,80.626-50.438
			c54.814,29.025,92.248,86.658,92.248,152.882c0,2.215-0.055,4.419-0.138,6.615c-2.1-0.147-4.2-0.229-6.296-0.229
			c-0.003,0-0.005,0-0.008,0c-30.978,0.001-61.113,16.08-77.714,44.836C327,373.129,329.501,409.94,348.076,437.463z
			 M466.707,412.867c-9.126,15.807-26.155,25.626-44.444,25.626c-8.907,0-17.734-2.378-25.528-6.878
			c-24.46-14.122-32.87-45.511-18.748-69.97c9.125-15.807,26.156-25.626,44.445-25.628h0.008c8.902,0,17.727,2.377,25.519,6.877
			C472.42,357.016,480.829,388.406,466.707,412.867z"/>
	</g>
</g>
</svg>
