<svg xmlns="http://www.w3.org/2000/svg" viewBox="0 0 512.001 512.001"><path d="M467.166 309.626c-.216-.125-.437-.241-.654-.362.506-5.951.779-11.968.779-18.048 0-84.484-49.849-157.533-121.671-191.312.001-.257.019-.511.019-.77 0-49.506-40.132-89.638-89.638-89.638s-89.638 40.132-89.638 89.638c0 .257.018.511.019.77C94.559 133.684 44.71 206.733 44.71 291.216c0 6.08.273 12.095.779 18.045-.218.125-.439.241-.657.365-42.871 24.753-57.561 79.576-32.808 122.448 16.604 28.757 46.733 44.834 77.714 44.834 15.205 0 30.619-3.874 44.735-12.024.241-.14.47-.293.709-.434 34.263 23.969 75.925 38.055 120.821 38.055 44.895 0 86.556-14.086 120.819-38.054.24.141.467.293.708.433 14.117 8.151 29.528 12.026 44.736 12.026 30.978 0 61.11-16.079 77.712-44.834 24.751-42.873 10.063-97.697-32.812-122.45zM256.001 47.912c28.244 0 51.222 22.977 51.222 51.222s-22.978 51.222-51.222 51.222-51.222-22.977-51.222-51.222c.001-28.245 22.979-51.222 51.222-51.222zM139.13 400.513c-3.542 13.215-12.017 24.263-23.867 31.103-7.791 4.499-16.618 6.877-25.525 6.877-18.289 0-35.319-9.819-44.445-25.626-14.122-24.46-5.711-55.848 18.75-69.971 7.791-4.5 16.619-6.877 25.526-6.877h.004c18.285 0 35.314 9.819 44.44 25.626 6.841 11.848 8.658 25.651 5.117 38.868zm208.946 36.95c-26.676 16.854-58.253 26.626-92.074 26.626-33.823 0-65.401-9.772-92.078-26.626 18.576-27.524 21.076-64.336 3.358-95.027-16.602-28.756-46.731-44.834-77.71-44.834h-.004c-2.099 0-4.2.081-6.303.23a175.136 175.136 0 01-.138-6.617c0-66.223 37.434-123.857 92.248-152.882 14.544 29.858 45.179 50.438 80.626 50.438s66.081-20.578 80.626-50.438c54.814 29.025 92.248 86.658 92.248 152.882 0 2.215-.055 4.419-.138 6.615a90.18 90.18 0 00-6.296-.229h-.008c-30.978.001-61.113 16.08-77.714 44.836-17.719 30.692-15.218 67.503 3.357 95.026zm118.631-24.596c-9.126 15.807-26.155 25.626-44.444 25.626-8.907 0-17.734-2.378-25.528-6.878-24.46-14.122-32.87-45.511-18.748-69.97 9.125-15.807 26.156-25.626 44.445-25.628h.008c8.902 0 17.727 2.377 25.519 6.877 24.461 14.122 32.87 45.512 18.748 69.973z"/></svg>