<?xml version="1.0" encoding="UTF-8"?>
<!DOCTYPE svg PUBLIC "-//W3C//DTD SVG 1.1//EN" "http://www.w3.org/Graphics/SVG/1.1/DTD/svg11.dtd">
<svg version="1.1" xmlns="http://www.w3.org/2000/svg" xmlns:xlink="http://www.w3.org/1999/xlink" width="1000" height="1000"  xml:space="preserve" id="overcastCanvas">
    <g id="overcastCanvas-group">
        <path id="overcastCanvas-bezier" fill-rule="evenodd" stroke="none" fill="#fc7e0f" d="M 500,900 C 278.33,900 100,721.67 100,500 100,278.33 278.33,100 500,100 721.67,100 900,278.33 900,500 900,721.67 721.67,900 500,900 Z M 500,741.67 L 530,711.67 500,596.67 470,711.67 500,741.67 Z M 461.67,740 L 446.67,796.67 481.67,761.67 461.67,740 Z M 538.33,740 L 518.33,760 553.33,795 538.33,740 Z M 566.67,843.33 L 500,776.67 433.33,843.33 C 455,846.67 476.67,850 500,850 523.33,850 545,848.33 566.67,843.33 Z M 500,150 C 306.67,150 150,306.67 150,500 150,653.33 248.33,783.33 385,830 L 460,551.67 C 443.33,540 433.33,520 433.33,498.33 433.33,461.67 463.33,431.67 500,431.67 536.67,431.67 566.67,461.67 566.67,498.33 566.67,520 556.67,538.33 540,551.67 L 615,830 C 751.67,783.33 850,653.33 850,500 850,306.67 693.33,150 500,150 Z M 728.33,673.33 C 720,683.33 705,686.67 693.33,678.33 681.67,670 680,655 688.33,645 688.33,645 733.33,585 733.33,500 733.33,415 688.33,355 688.33,355 680,345 681.67,330 693.33,321.67 705,313.33 720,316.67 728.33,326.67 731.67,330 783.33,398.33 783.33,500 783.33,601.67 731.67,670 728.33,673.33 Z M 606.67,608.33 C 596.67,598.33 598.33,580 608.33,570 608.33,570 633.33,543.33 633.33,500 633.33,456.67 608.33,431.67 608.33,430 598.33,420 598.33,403.33 606.67,391.67 616.67,380 631.67,380 641.67,390 643.33,391.67 683.33,433.33 683.33,500 683.33,566.67 643.33,608.33 641.67,610 631.67,620 616.67,618.33 606.67,608.33 Z M 393.33,608.33 C 383.33,618.33 368.33,620 358.33,610 356.67,606.67 316.67,566.67 316.67,500 316.67,433.33 356.67,393.33 358.33,390 368.33,380 385,380 393.33,391.67 403.33,401.67 401.67,420 391.67,430 391.67,431.67 366.67,456.67 366.67,500 366.67,543.33 391.67,570 391.67,570 401.67,580 403.33,596.67 393.33,608.33 Z M 306.67,678.33 C 295,686.67 280,683.33 271.67,673.33 268.33,670 216.67,601.67 216.67,500 216.67,398.33 268.33,330 271.67,326.67 280,316.67 295,313.33 306.67,321.67 318.33,330 320,345 311.67,355 311.67,355 266.67,415 266.67,500 266.67,585 311.67,645 311.67,645 320,655 316.67,670 306.67,678.33 Z M 306.67,678.33" />
    </g>
</svg>
