<?xml version="1.0" encoding="iso-8859-1"?>
<!-- Generator: Adobe Illustrator 19.0.0, SVG Export Plug-In . SVG Version: 6.00 Build 0)  -->
<svg version="1.1" id="Capa_1" xmlns="http://www.w3.org/2000/svg" xmlns:xlink="http://www.w3.org/1999/xlink" x="0px" y="0px"
	 viewBox="0 0 260.245 260.245" style="enable-background:new 0 0 260.245 260.245;" xml:space="preserve">
<g>
	<path d="M218.783,146.7c-1.236-12.878-5.72-22.697-13.326-29.186c-5.501-4.693-11.454-6.609-16.23-7.32
		c-5.591-8.444-13.769-13.598-23.562-14.885c5.629-21.146,15.459-55.701,16.354-58.843c2.831-8.742,1.594-17.433-3.498-24.501
		C173.204,4.586,164.082,0.001,154.716,0l0,0c-12.251-0.001-22.262,7.448-26.124,19.44c-0.024,0.075-0.048,0.15-0.07,0.227
		l-15.628,52.014L98.419,26.767C95.085,13.784,84.5,5.425,71.323,5.425c-9.09,0-17.757,4.113-23.186,11.004
		c-5.28,6.703-7.014,15.275-4.88,24.138l17.863,74.287c-3.947,1.802-7.464,4.343-10.355,7.507c-5.54,6.063-8.716,14.149-9.44,24.034
		c-1.416,19.325,15.805,46.4,32.837,70.336c0.519,0.729,0.999,1.403,1.41,1.986l2.774,25.312c0.834,9.182,8.646,16.217,17.89,16.217
		h72.49c9.346,0,17.168-7.123,17.906-16.415l2.224-22.895c0.195-0.277,0.404-0.543,0.626-0.858
		C203.214,200.585,221.191,171.8,218.783,146.7z M177.047,218.448l-2.37,24.354c-0.21,3.133-2.812,5.443-5.95,5.443h-72.49
		c-3.115,0-5.705-2.275-5.945-5.381l-2.936-26.854c-0.081-1.047-0.436-2.019-1.029-2.885c-5.529-8.053-34.472-46.233-33.032-65.868
		c1.178-16.073,10.226-21.171,16.433-22.774c3.161-0.817,5.093-3.992,4.329-7.167L54.924,37.755
		c-3.014-12.516,6.772-20.331,16.398-20.331c6.758,0,13.438,3.854,15.552,12.64l17.753,55.087c1.313,4.073,4.842,6.099,8.37,6.099
		c3.589,0,7.177-2.096,8.43-6.266l18.587-61.864C142.527,15.319,148.58,12,154.715,12c9.871,0.001,19.953,8.595,15.829,20.95
		c0,0-13.245,46.454-18.426,66.731c-0.965,3.773,1.884,7.434,5.688,7.434c0.165,0,0.333-0.008,0.502-0.022
		c0.771-0.064,1.575-0.102,2.404-0.102c6.445,0,14.411,2.268,19.649,11.707c1.024,1.846,2.895,3.04,5.003,3.153
		c6.315,0.34,19.341,3.775,21.474,25.995c2.456,25.592-23.516,59.975-28.765,67.637
		C177.469,216.364,177.119,217.383,177.047,218.448z"/>
</g>
</svg>
