<?xml version="1.0" encoding="iso-8859-1"?>
<!-- Generator: Adobe Illustrator 16.0.0, SVG Export Plug-In . SVG Version: 6.00 Build 0)  -->
<!DOCTYPE svg PUBLIC "-//W3C//DTD SVG 1.1//EN" "http://www.w3.org/Graphics/SVG/1.1/DTD/svg11.dtd">
<svg version="1.1" id="Capa_1" xmlns="http://www.w3.org/2000/svg" xmlns:xlink="http://www.w3.org/1999/xlink" x="0px" y="0px"
	 width="32.236px" height="32.236px" viewBox="0 0 32.236 32.236" style="enable-background:new 0 0 32.236 32.236;"
	 xml:space="preserve">
<g>
	<g>
		<path d="M7.414,10.79l2.146,0.369c-0.163-0.531-0.271-1.088-0.316-1.663l1.995,0.287v1.219h5.234V10.14h0.924v0.862h5.233V9.814
			l1.666-0.258c-0.018,0.404-0.069,0.832-0.148,1.264l1.658-0.312C25.452,6.045,23.743,0,16.645,0c-1.008,0-2.183,0.124-2.693,0.354
			c-0.512,0.229-0.604,0.752-0.934,0.863c-0.344,0.116-0.832,0.069-1.135,0.216C7.155,3.71,7.32,9.261,7.32,9.261L7.414,10.79z
			 M15.892,10.42h-4.072V8.347h4.072V10.42z M22.048,10.42h-4.07V8.347h4.07V10.42z M9.271,8.166c2.104-0.143,4.48-1.8,4.665-4.108
			c2.663,2.205,6.437,2.313,9.581,2.594c0.393,0.184,0.679,0.975,0.76,2.023L22.63,8.93V7.766h-5.234v1.211h-0.924V7.766h-5.234
			v1.135L9.216,8.61C9.235,8.463,9.254,8.316,9.271,8.166z"/>
		<path d="M29.216,21.348c0-1.089-0.438-2.039-1.09-2.582v-7.774l-11.862,1.89l-11.866-1.89v7.569
			c-0.811,0.481-1.377,1.545-1.377,2.787c0,1.241,0.566,2.305,1.377,2.786v6.212l11.866,1.891l11.862-1.889V23.93
			C28.779,23.385,29.216,22.436,29.216,21.348z M15.725,31.061l-10.25-1.633v-5.033c1.235-0.08,2.221-1.408,2.221-3.047
			c0-1.64-0.985-2.968-2.221-3.049v-6.046l10.25,1.634V31.061z M27.05,29.428l-10.249,1.633V13.887l10.249-1.634v2.166v3.888
			c-0.059-0.006-0.112-0.021-0.172-0.021c-1.291,0-2.338,1.372-2.338,3.062c0,1.691,1.047,3.063,2.338,3.063
			c0.06,0,0.113-0.017,0.172-0.022V29.428z"/>
	</g>
</g>
</svg>
