<svg xmlns="http://www.w3.org/2000/svg" viewBox="0 0 60 72">
    <path opacity=".8" fill="#1DA1F2" d="M30 12C16.768 12 6 22.765 6 36s10.766 23.998 24 23.998 24-10.765 24-24S43.235 12 30 12z"/>
    <path fill="#FFF" d="M39.2 34.34l-12-9a2 2 0 00-3.2 1.6v18a2.002 2.002 0 002 2c.425 0 .847-.136 1.2-.4l12-9a2 2 0 000-3.2z"/>
    <path fill="#FFF" d="M30 15c11.598 0 21 9.402 21 21s-9.4 20.998-21 20.998-21-9.402-21-21S18.4 15 30 15m0-6C15.112 9 3 21.11 3 36s12.112 26.998 27 26.998 27-12.11 27-27S44.888 9 30 9z"/>
</svg>
