<?xml version="1.0" encoding="iso-8859-1"?>
<!-- Generator: Adobe Illustrator 16.0.0, SVG Export Plug-In . SVG Version: 6.00 Build 0)  -->
<!DOCTYPE svg PUBLIC "-//W3C//DTD SVG 1.1//EN" "http://www.w3.org/Graphics/SVG/1.1/DTD/svg11.dtd">
<svg version="1.1" id="Capa_1" xmlns="http://www.w3.org/2000/svg" xmlns:xlink="http://www.w3.org/1999/xlink" x="0px" y="0px"
	 width="497.42px" height="497.42px" viewBox="0 0 497.42 497.42" style="enable-background:new 0 0 497.42 497.42;"
	 xml:space="preserve">
<g>
	<g>
		<path d="M282.194,283.158v41.685c56.031-14.835,97.458-65.955,97.458-126.586c0-72.202-58.741-130.942-130.942-130.942
			c-72.202,0-130.942,58.741-130.942,130.942c0,60.631,41.429,111.753,97.46,126.586v-41.685
			c-33.815-13.385-57.808-46.384-57.808-84.902c0-50.337,40.953-91.29,91.29-91.29c50.338,0,91.29,40.953,91.29,91.29
			C340,236.774,316.007,269.773,282.194,283.158z"/>
		<path d="M446.966,198.256C446.966,88.938,358.028,0,248.709,0C139.392,0,50.454,88.938,50.454,198.256
			c0,97.904,71.35,179.407,164.771,195.37v-40.354C143.8,337.857,90.105,274.222,90.105,198.257
			c0-87.455,71.149-158.604,158.604-158.604c87.454,0,158.604,71.149,158.604,158.604c0,75.965-53.694,139.601-125.119,155.015
			v40.354C375.616,377.663,446.966,296.16,446.966,198.256z"/>
		<path d="M228.441,327.626v27.896v39.963V497.42h40.532V395.484V355.52v-27.895v-40.374v-27.563
			c2.262-0.748,4.467-1.617,6.609-2.602c2.271-1.043,4.486-2.2,6.607-3.486c18.697-11.356,31.218-31.915,31.218-55.344
			c0-35.677-29.022-64.702-64.702-64.702c-35.68,0-64.7,29.025-64.7,64.702c0,23.429,12.517,43.991,31.217,55.344
			c2.123,1.291,4.335,2.445,6.608,3.486c2.144,0.982,4.349,1.854,6.609,2.602v27.563v40.375H228.441z M224.575,191.648
			c0.648-2.361,1.628-4.579,2.897-6.609c4.428-7.09,12.281-11.832,21.238-11.832s16.811,4.742,21.236,11.832
			c1.268,2.03,2.252,4.248,2.897,6.609c0.58,2.109,0.914,4.319,0.914,6.608c0,5.477-1.786,10.534-4.78,14.661
			c-4.557,6.281-11.934,10.387-20.269,10.387s-15.71-4.108-20.268-10.387c-2.995-4.126-4.782-9.184-4.782-14.661
			C223.66,195.967,223.996,193.757,224.575,191.648z"/>
	</g>
</g>
</svg>
