<svg xmlns="http://www.w3.org/2000/svg" viewBox="0 0 508.488 508.488">
    <path d="M386.284 282.387c-12.999-14.779-35.755-22.947-52.568-27.174V90.58c16.622-5.626 30.734-12.681 41.889-20.913 9.535-7.024 14.334-18.815 12.522-30.511-1.843-11.696-9.98-21.421-21.294-25.204C351.387 8.74 316.013 0 254.26 0c-65.313 0-101.386 10.075-113.877 14.397a31.77 31.77 0 00-20.976 25.108c-1.812 11.569 2.924 23.233 12.3 30.32 11.315 8.486 25.776 15.669 43.065 21.326h.032v164.061c-16.781 4.227-39.569 12.395-52.6 27.174a31.848 31.848 0 00-7.119 28.159c2.288 9.948 9.28 18.211 18.72 22.184 22.566 9.471 60.927 15.383 104.596 16.59l-.064.254v95.347c0 17.544 7.119 63.565 15.891 63.565 8.74 0 15.891-46.021 15.891-63.565v-95.347l-.032-.254c43.669-1.176 82.031-7.215 104.596-16.622 9.439-3.909 16.463-12.204 18.72-22.152 2.289-10.01-.349-20.498-7.119-28.158zm-132.056 35.406c-57.717 0-93.472-8.263-108.188-14.397 5.721-6.484 19.006-12.967 36.55-17.417l23.964-6.039V68.078l-21.898-7.151c-16.59-5.435-27.365-11.632-33.88-16.559 16.908-5.848 51.138-12.618 103.452-12.618 51.265 0 85.336 6.515 102.53 12.3-6.706 4.958-17.449 11.029-33.213 16.4l-21.644 7.31v212.18l23.964 6.039c17.608 4.45 30.893 10.933 36.55 17.417-14.683 6.134-50.438 14.397-108.187 14.397z" fill="#090509"/>
</svg>
