<svg width="71" height="60" viewBox="0 0 71 60" fill="none" xmlns="http://www.w3.org/2000/svg">
<g clip-path="url(#clip0_1488_7058)">
<path d="M34.51 15.9786C34.3943 15.5468 34.1827 15.1691 33.9114 14.847C31.7648 11.4412 26.4472 13.1569 18.7314 15.0301C17.4414 15.3436 17.7691 13.6334 17.3287 10.19C17.0424 7.95049 14.7597 5.00539 12.4174 5.63299C8.55547 6.6678 13.0869 8.71865 11.6908 17.167C10.9448 21.681 6.26233 20.5191 7.34569 24.5622L9.81171 33.7656C10.2334 35.3394 10.7933 36.8108 13.0735 36.4667C15.2838 36.1331 15.211 37.7915 18.3062 36.9621L33.7988 32.8109C35.3769 32.3881 36.3163 30.7597 35.8934 29.1816C35.7181 28.5273 35.3292 27.9929 34.8299 27.6095C35.5743 26.8846 35.9273 25.798 35.6397 24.7247C35.4649 24.0722 35.0768 23.5375 34.5786 23.1548C35.3258 22.43 35.6803 21.3421 35.3922 20.2671C35.1831 19.4866 34.6776 18.8638 34.0297 18.4825C34.5391 17.7837 34.7506 16.8767 34.51 15.9786Z" fill="#A5B4FC"/>
<path d="M25.0192 21.587L32.4066 19.6076C33.4111 19.3384 34.2098 18.5483 34.4916 17.5461C34.6073 17.1332 34.3662 16.7037 33.9522 16.5873C33.539 16.4707 33.1099 16.7136 32.9933 17.1267C32.8606 17.6031 32.4796 17.9776 32.0031 18.1053L24.4389 20.1321C23.6893 20.3329 22.9164 19.8867 22.7155 19.1371C22.5147 18.3875 22.9609 17.6146 23.7105 17.4138L28.765 16.0594C29.1797 15.9483 29.4261 15.5215 29.315 15.1068C29.2039 14.6921 28.7771 14.4457 28.3624 14.5568L23.307 15.9114C21.7289 16.3343 20.7893 17.9618 21.2121 19.5399C21.4479 20.42 22.0644 21.0895 22.832 21.447C22.4431 22.1079 22.3076 22.9173 22.521 23.7141C22.7576 24.5967 23.3773 25.2681 24.1481 25.6238C23.7624 26.283 23.6296 27.0888 23.8426 27.8839C24.1003 28.8455 24.8076 29.5652 25.6766 29.8891C25.3622 30.5154 25.257 31.2494 25.4521 31.9775C25.8749 33.5556 27.5025 34.4952 29.0806 34.0724L33.7891 32.8107C34.7937 32.5416 35.5935 31.7521 35.8753 30.7499C35.9919 30.3368 35.7507 29.9072 35.3375 29.7906C34.924 29.676 34.494 29.9154 34.3783 30.3283C34.2438 30.8052 33.863 31.1805 33.3865 31.3082L28.678 32.5698C27.9284 32.7707 27.1555 32.3244 26.9546 31.5749C26.7538 30.8253 27.2 30.0523 27.9496 29.8515L33.5356 28.3547C34.5402 28.0856 35.3406 27.295 35.6215 26.2931C35.7379 25.8791 35.4967 25.4495 35.0838 25.3338C34.6663 25.2146 34.2394 25.4588 34.1245 25.8715C33.9884 26.3561 33.6173 26.7224 33.133 26.8522L27.0688 28.4771C26.3192 28.6779 25.546 28.2308 25.3452 27.4813C25.1443 26.7317 25.5906 25.9588 26.3402 25.7579L33.2871 23.8965C34.2916 23.6273 35.0914 22.8379 35.3732 21.8357C35.4898 21.4225 35.2486 20.993 34.8355 20.8764C34.4208 20.7611 33.9919 21.0012 33.8762 21.4141C33.7399 21.8979 33.3687 22.2642 32.8845 22.3939L25.7478 24.3062C24.9982 24.507 24.2253 24.0608 24.0245 23.3112C23.8236 22.5617 24.2688 21.7881 25.0192 21.587Z" fill="#312E81"/>
</g>
<g clip-path="url(#clip1_1488_7058)">
<path d="M65.5801 44.0239C65.4644 44.4557 65.2528 44.8334 64.9815 45.1555C62.8349 48.5613 57.5173 46.8457 49.8015 44.9724C48.5116 44.6589 48.8392 46.3691 48.3988 49.8125C48.1125 52.052 45.8298 54.9971 43.4875 54.3695C39.6256 53.3347 44.157 51.2839 42.7609 42.8355C42.0149 38.3215 37.3324 39.4834 38.4158 35.4403L40.8816 26.2378C41.3033 24.664 41.8632 23.1926 44.1434 23.5367C46.3539 23.8695 46.2811 22.211 49.3764 23.0404L64.8689 27.1916C66.447 27.6144 67.3864 29.2428 66.9635 30.8209C66.7882 31.4752 66.3993 32.0096 65.9 32.393C66.6444 33.1179 66.9974 34.2045 66.7098 35.2778C66.535 35.9303 66.1469 36.465 65.6487 36.8478C66.3959 37.5725 66.7504 38.6604 66.4623 39.7354C66.2532 40.5159 65.7477 41.1387 65.0998 41.52C65.6092 42.2188 65.8208 43.1258 65.5801 44.0239Z" fill="#A5B4FC"/>
<path d="M56.0844 38.415L63.4718 40.3945C64.4763 40.6636 65.275 41.4537 65.5568 42.4559C65.6725 42.8688 65.4314 43.2984 65.0174 43.4148C64.6042 43.5314 64.1751 43.2885 64.0585 42.8753C63.9258 42.3989 63.5448 42.0245 63.0683 41.8968L55.504 39.87C54.7545 39.6691 53.9815 40.1154 53.7807 40.8649C53.5799 41.6145 54.0261 42.3875 54.7757 42.5883L59.8302 43.9427C60.2449 44.0538 60.4913 44.4805 60.3802 44.8952C60.2691 45.3099 59.8423 45.5563 59.4276 45.4452L54.3722 44.0906C52.7941 43.6678 51.8544 42.0402 52.2773 40.4621C52.5131 39.582 53.1296 38.9126 53.8972 38.5551C53.5083 37.8941 53.3727 37.0848 53.5862 36.288C53.8227 35.4054 54.4425 34.734 55.2133 34.3783C54.8276 33.7191 54.6948 32.9133 54.9078 32.1182C55.1655 31.1566 55.8728 30.4369 56.7417 30.113C56.4274 29.4867 56.3222 28.7527 56.5173 28.0246C56.9401 26.4465 58.5677 25.5068 60.1458 25.9297L64.8543 27.1913C65.8589 27.4605 66.6587 28.2499 66.9405 29.2521C67.0571 29.6653 66.8159 30.0948 66.4027 30.2114C65.9892 30.3261 65.5592 30.0866 65.4435 29.6737C65.309 29.1969 64.9282 28.8216 64.4517 28.6939L59.7432 27.4322C58.9936 27.2314 58.2207 27.6776 58.0198 28.4272C57.819 29.1768 58.2652 29.9497 59.0148 30.1505L64.6008 31.6473C65.6054 31.9165 66.4058 32.707 66.6867 33.709C66.8031 34.123 66.5619 34.5525 66.149 34.6683C65.7315 34.7874 65.3046 34.5433 65.1897 34.1306C65.0536 33.6459 64.6825 33.2796 64.1982 33.1499L58.134 31.525C57.3844 31.3241 56.6112 31.7712 56.4104 32.5208C56.2095 33.2704 56.6558 34.0433 57.4053 34.2441L64.3523 36.1056C65.3568 36.3747 66.1566 37.1642 66.4384 38.1664C66.555 38.5795 66.3138 39.0091 65.9007 39.1257C65.486 39.241 65.0571 39.0009 64.9414 38.588C64.8051 38.1042 64.4339 37.7379 63.9496 37.6081L56.813 35.6958C56.0634 35.495 55.2905 35.9413 55.0896 36.6908C54.8888 37.4404 55.334 38.214 56.0844 38.415Z" fill="#312E81"/>
</g>
<defs>
<clipPath id="clip0_1488_7058">
<rect width="31.9998" height="32" fill="white" transform="translate(0.367188 8.63867) rotate(-15)"/>
</clipPath>
<clipPath id="clip1_1488_7058">
<rect width="31.9998" height="32" fill="white" transform="translate(39.7188 20.4531) rotate(15)"/>
</clipPath>
</defs>
</svg>
