<svg width="24" height="24" viewBox="0 0 24 24" fill="none" xmlns="http://www.w3.org/2000/svg">
    <path d="M16.204 19.032c3 .6 4.8-.6 4.8-.6v2.867a1.5 1.5 0 0 1-1.5 1.5h-1.8a1.5 1.5 0 0 1-1.5-1.5v-2.267Z" fill="url(#a)"/>
    <path d="M7.804 19.032c-3 .6-4.8-.6-4.8-.6v2.867a1.5 1.5 0 0 0 1.5 1.5h1.8a1.5 1.5 0 0 0 1.5-1.5v-2.267Z" fill="url(#b)"/>
    <path d="M8.394 12.743v-.382h-.062c-2.17.03-3.617 1.842-3.624 3.662 0 .367.367.37.367.37.006-2.082 1.319-3.502 3.319-3.65Zm7.214-.382c2.204-.005 3.679 1.826 3.686 3.663 0 .367-.367.37-.367.37-.006-2.083-1.32-3.502-3.32-3.65v-.383Z" fill="#FFAC2B"/>
    <path d="M1.428 8.3s.002-.735.736-.733c.736.002.733.737.733.737l-.011 3.41c.117-.053.24-.102.368-.144l.015-4.733s.002-.735.736-.733c.734.002.733.737.733.737l-.013 4.452c.12-.01.242-.019.366-.025l.017-5.161s.002-.735.737-.732c.735.002.732.737.732.737l-.017 5.16c.126.008.247.02.368.032l.015-4.824s.003-.735.736-.732c.735.002.732.736.732.736l-.015 5.101-.001.409v.366c-2.205-.005-3.68 1.825-3.687 3.663 0 .367.367.37.367.37.006-2.208 1.48-3.67 3.686-3.663l1.08-2.513s.237-.695.934-.457c.695.235.459.932.459.932l-.536 1.863c-.212.74-.411 1.485-.515 2.246a4.412 4.412 0 0 1-4.38 3.798 4.41 4.41 0 0 1-4.393-4.422c0-.128.008-.25.02-.366l-.019-.002.017-5.509Zm21.146 0s-.001-.735-.736-.733c-.735.002-.734.737-.734.737l.012 3.41a3.386 3.386 0 0 0-.367-.144l-.015-4.733s-.003-.735-.737-.733c-.735.002-.733.737-.733.737l.013 4.452a8.695 8.695 0 0 0-.366-.025l-.016-5.161s-.002-.735-.737-.732c-.735.002-.732.737-.732.737l.017 5.16c-.126.008-.248.02-.369.032L17.06 6.48s-.003-.735-.737-.732c-.734.002-.731.736-.731.736l.014 5.101.002.409v.366c2.205-.005 3.68 1.825 3.687 3.663 0 .367-.367.37-.367.37-.007-2.208-1.48-3.67-3.685-3.663l-1.08-2.513s-.237-.695-.934-.457c-.695.235-.46.932-.46.932l.536 1.863c.213.74.411 1.485.516 2.246a4.412 4.412 0 0 0 4.38 3.798 4.41 4.41 0 0 0 4.392-4.422c0-.128-.008-.25-.02-.366l.02-.002-.018-5.509Z" fill="url(#c)"/>
    <path d="M3.004 17.582v.849s1.8 1.2 4.8.6v-.906a4.397 4.397 0 0 1-4.8-.543Zm13.2.547a4.397 4.397 0 0 0 4.8-.55v.853s-1.8 1.2-4.8.6v-.903Z" fill="#FFAC2B"/>
    <path d="M15.329 5.074a.6.6 0 0 1-.474-.967l1.787-2.313a.6.6 0 1 1 .95.734l-1.788 2.313a.597.597 0 0 1-.475.233Zm-6.612 0a.6.6 0 0 1-.475-.233L6.454 2.528a.6.6 0 0 1 .95-.734l1.788 2.313a.6.6 0 0 1-.475.967Zm3.287-.275a.6.6 0 0 1-.6-.6V1.8a.6.6 0 0 1 1.2 0v2.4a.6.6 0 0 1-.6.6Z" fill="url(#d)"/>
    <defs>
        <linearGradient id="a" x1="12.004" y1="19.261" x2="12.004" y2="22.8" gradientUnits="userSpaceOnUse">
            <stop stop-color="#FFCC49"/>
            <stop offset="1" stop-color="#FFB649"/>
        </linearGradient>
        <linearGradient id="b" x1="12.004" y1="19.261" x2="12.004" y2="22.8" gradientUnits="userSpaceOnUse">
            <stop stop-color="#FFCC49"/>
            <stop offset="1" stop-color="#FFB649"/>
        </linearGradient>
        <linearGradient id="c" x1="12.001" y1="10.798" x2="12.001" y2="18.599" gradientUnits="userSpaceOnUse">
            <stop stop-color="#FFCC49"/>
            <stop offset="1" stop-color="#FFB649"/>
        </linearGradient>
        <linearGradient id="d" x1="12.023" y1="1.199" x2="12.023" y2="5.074" gradientUnits="userSpaceOnUse">
            <stop stop-color="#5DADEC"/>
            <stop offset="1" stop-color="#7870F5"/>
        </linearGradient>
    </defs>
</svg>
