<svg width="32" height="32" viewBox="0 0 32 32" fill="none" xmlns="http://www.w3.org/2000/svg">
    <path d="M3.726 22.4h6.4v6a2 2 0 0 1-2 2h-2.4a2 2 0 0 1-2-2v-6Zm17.6 0h6.4v6a2 2 0 0 1-2 2h-2.4a2 2 0 0 1-2-2v-6Z" fill="url(#a)"/>
    <path d="M27.726 24.577s-2.4 1.6-6.4.8v-4h6.4v3.2Zm-24 0s2.4 1.6 6.4.8v-4h-6.4v3.2Z" fill="#FFAC2B"/>
    <path d="M4.512 16.482h6.4v6.4h-6.4v-6.4Zm16.018-.4h6.4v6.4h-6.4v-6.4Z" fill="#FFAC2B"/>
    <path d="M1.624 11.068s.002-.98.982-.978c.98.004.977.984.977.984l-.015 4.547c.156-.072.32-.137.49-.193l.02-6.311s.004-.98.982-.977c.98.002.977.983.977.983L6.02 15.06c.16-.014.323-.025.488-.033l.022-6.882s.003-.98.983-.976c.98.003.976.983.976.983l-.023 6.88c.168.01.33.027.492.042l.02-6.431s.003-.98.981-.976c.98.002.975.981.975.981l-.019 6.801-.002.545v.489c-2.94-.008-4.907 2.433-4.915 4.883 0 .49.49.493.49.493.007-2.943 1.973-4.892 4.913-4.884l1.44-3.35s.317-.927 1.245-.61c.927.314.612 1.243.612 1.243l-.714 2.484c-.283.987-.548 1.98-.687 2.995a5.883 5.883 0 0 1-5.84 5.064A5.881 5.881 0 0 1 1.6 18.904c0-.171.011-.334.027-.488l-.025-.003.022-7.345Zm28.195 0s-.002-.98-.981-.978c-.981.004-.979.984-.979.984l.015 4.547a4.515 4.515 0 0 0-.49-.193l-.02-6.311s-.002-.98-.98-.977c-.98.002-.978.983-.978.983l.017 5.936a11.594 11.594 0 0 0-.488-.033l-.021-6.882s-.004-.98-.984-.976c-.98.003-.976.983-.976.983l.023 6.88c-.168.01-.33.027-.491.042l-.02-6.431s-.004-.98-.983-.976c-.979.002-.975.981-.975.981l.02 6.801.002.545v.489c2.939-.008 4.906 2.433 4.916 4.883 0 .49-.49.493-.49.493-.009-2.943-1.974-4.892-4.914-4.884l-1.44-3.35s-.316-.927-1.245-.61c-.926.314-.612 1.243-.612 1.243l.714 2.484c.283.987.548 1.98.687 2.995a5.882 5.882 0 0 0 5.84 5.064 5.88 5.88 0 0 0 5.857-5.896c0-.171-.011-.334-.027-.488l.026-.003-.023-7.345Z" fill="url(#b)"/>
    <path d="M20.158 6.766a.8.8 0 0 1-.632-1.289l2.384-3.084a.8.8 0 1 1 1.266.978l-2.384 3.085a.796.796 0 0 1-.634.31Zm-8.816 0a.799.799 0 0 1-.633-.311L8.326 3.372a.8.8 0 0 1 1.267-.979l2.383 3.084a.8.8 0 0 1-.634 1.289Zm4.384-.366a.8.8 0 0 1-.8-.8V2.4a.8.8 0 0 1 1.6 0v3.2a.8.8 0 0 1-.8.8Z" fill="url(#c)"/>
    <defs>
        <linearGradient id="a" x1="15.726" y1="25.681" x2="15.726" y2="30.4" gradientUnits="userSpaceOnUse">
            <stop stop-color="#FFCC49"/>
            <stop offset="1" stop-color="#FFB649"/>
        </linearGradient>
        <linearGradient id="b" x1="15.722" y1="14.399" x2="15.722" y2="24.8" gradientUnits="userSpaceOnUse">
            <stop stop-color="#FFCC49"/>
            <stop offset="1" stop-color="#FFB649"/>
        </linearGradient>
        <linearGradient id="c" x1="15.751" y1="1.6" x2="15.751" y2="6.766" gradientUnits="userSpaceOnUse">
            <stop stop-color="#5DADEC"/>
            <stop offset="1" stop-color="#7870F5"/>
        </linearGradient>
    </defs>
</svg>
