<svg xmlns="http://www.w3.org/2000/svg" xmlns:xlink="http://www.w3.org/1999/xlink" viewBox="0 0 42.45 32.36"><defs><style>.cls-1{fill:none;}.cls-2{isolation:isolate;}.cls-3{clip-path:url(#clip-path);}.cls-4{clip-path:url(#clip-path-2);}.cls-5{fill:#999;}.cls-6{fill:#9e9e9e;}.cls-7{fill:#a3a3a3;}.cls-8{clip-path:url(#clip-path-3);}.cls-9{fill:#a8a8a8;}.cls-10{fill:#adadad;}.cls-11{fill:#b3b3b3;}.cls-12{fill:#b8b8b8;}.cls-13{fill:#949494;}.cls-14{fill:#8f8f8f;}.cls-15{fill:#8a8a8a;}.cls-16{fill:#858585;}.cls-17{clip-path:url(#clip-path-4);}.cls-18{fill:#d2d2d2;}.cls-19{fill:#fff;}.cls-20{clip-path:url(#clip-path-5);}.cls-21{clip-path:url(#clip-path-6);}.cls-22{clip-path:url(#clip-path-7);}.cls-23{clip-path:url(#clip-path-8);}.cls-24{clip-path:url(#clip-path-9);}.cls-25{clip-path:url(#clip-path-10);}.cls-26{clip-path:url(#clip-path-11);}.cls-27{clip-path:url(#clip-path-12);}.cls-28{clip-path:url(#clip-path-13);}.cls-29{clip-path:url(#clip-path-14);}.cls-30{fill:red;stroke:red;stroke-miterlimit:10;stroke-width:1.41px;}</style><clipPath id="clip-path"><path class="cls-1" d="M30.1,2.38l1.49.37a13.41,13.41,0,0,0-3.28-.41,14.07,14.07,0,0,0-13.88,14A13.8,13.8,0,0,0,24.72,30l-1.49-.37A13.8,13.8,0,0,1,12.94,16,14.07,14.07,0,0,1,26.82,2,13.41,13.41,0,0,1,30.1,2.38Z"/></clipPath><clipPath id="clip-path-2"><path class="cls-1" d="M34,3.63H33.9l-.16,0-.17,0-.18,0-.18,0-.18,0-.18,0-.17,0-.16,0a13.31,13.31,0,0,0-2.44-.88l1.49.37A13.31,13.31,0,0,1,34,3.63Z"/></clipPath><clipPath id="clip-path-3"><path class="cls-1" d="M28,30.38a13.38,13.38,0,0,1-3.27-.4l-1.49-.37a13.39,13.39,0,0,0,3.27.4A14.08,14.08,0,0,0,40.4,16,13.86,13.86,0,0,0,32.54,3.26L34,3.63a13.86,13.86,0,0,1,7.86,12.73A14.08,14.08,0,0,1,28,30.38Z"/></clipPath><clipPath id="clip-path-4"><path class="cls-1" d="M30.25,1.82l1.49.37A14.35,14.35,0,0,1,42.45,16.36,14.64,14.64,0,0,1,28,31a14,14,0,0,1-3.42-.42l-1.49-.37a14,14,0,0,0,3.42.42A14.64,14.64,0,0,0,41,16,14.35,14.35,0,0,0,30.25,1.82Z"/></clipPath><clipPath id="clip-path-5"><path class="cls-1" d="M25.4,1.67,27,2.06a14.1,14.1,0,0,0-3.45-.43A14.8,14.8,0,0,0,8.92,16.37,14.52,14.52,0,0,0,19.75,30.7l-1.56-.39A14.52,14.52,0,0,1,7.35,16,14.8,14.8,0,0,1,22,1.24,14.1,14.1,0,0,1,25.4,1.67Z"/></clipPath><clipPath id="clip-path-6"><path class="cls-1" d="M27,2.06a14,14,0,0,1,2.16.74l-.18,0-.19,0-.2-.05-.2-.05-.2-.05-.2-.05-.19,0-.18,0a14,14,0,0,0-2.16-.74Z"/></clipPath><clipPath id="clip-path-7"><path class="cls-1" d="M31.95,4.43l-.08,0-.08,0-.08,0-.08,0-.08,0-.08,0-.08,0-.08,0-.11,0-.11,0-.12,0-.12,0-.12,0-.12,0-.11,0-.11,0A14.17,14.17,0,0,0,27.56,2.4l1.56.39A14.17,14.17,0,0,1,31.95,4.43Z"/></clipPath><clipPath id="clip-path-8"><path class="cls-1" d="M31.95,4.43A14.41,14.41,0,0,1,33.68,6l-.18,0-.19,0-.2-.05-.2-.05-.2-.05-.2-.05-.19,0-.18,0A14.41,14.41,0,0,0,30.38,4Z"/></clipPath><clipPath id="clip-path-9"><path class="cls-1" d="M23.19,31.12a14.07,14.07,0,0,1-3.44-.42l-1.56-.39a14.07,14.07,0,0,0,3.44.42A14.89,14.89,0,0,0,32.11,5.56L33.68,6A14.89,14.89,0,0,1,23.19,31.12Z"/></clipPath><clipPath id="clip-path-10"><path class="cls-1" d="M25.56,1.08l1.56.39a15.09,15.09,0,0,1,11.27,14.9,15.4,15.4,0,0,1-15.2,15.35,14.7,14.7,0,0,1-3.6-.44L18,30.89a14.7,14.7,0,0,0,3.6.44A15.4,15.4,0,0,0,36.83,16,15.09,15.09,0,0,0,25.56,1.08Z"/></clipPath><clipPath id="clip-path-11"><path class="cls-1" d="M20.51,1.06l1.63.41A14.68,14.68,0,0,0,18.55,1,15.41,15.41,0,0,0,3.35,16.38,15.11,15.11,0,0,0,14.62,31.29L13,30.88A15.11,15.11,0,0,1,1.72,16,15.41,15.41,0,0,1,16.92.62,14.68,14.68,0,0,1,20.51,1.06Z"/></clipPath><clipPath id="clip-path-12"><path class="cls-1" d="M22.14,1.47a14.75,14.75,0,0,1,7,4.06l-.19,0-.2-.05-.21-.05-.21-.05-.21-.05-.21-.05-.2-.05-.19,0a14.75,14.75,0,0,0-7-4.06Z"/></clipPath><clipPath id="clip-path-13"><path class="cls-1" d="M18.22,31.73a14.68,14.68,0,0,1-3.59-.44L13,30.88a14.68,14.68,0,0,0,3.59.44A15.41,15.41,0,0,0,31.79,16,15.3,15.3,0,0,0,27.5,5.12l1.63.41a15.3,15.3,0,0,1,4.29,10.85A15.41,15.41,0,0,1,18.22,31.73Z"/></clipPath><clipPath id="clip-path-14"><path class="cls-1" d="M20.68.46l1.63.41A15.71,15.71,0,0,1,34,16.38a16,16,0,0,1-15.83,16,15.32,15.32,0,0,1-3.75-.46l-1.63-.41a15.32,15.32,0,0,0,3.75.46A16,16,0,0,0,32.41,16,15.71,15.71,0,0,0,20.68.46Z"/></clipPath></defs><title>reactions-stack</title><g id="Layer_2" data-name="Layer 2"><g id="Layer_1-2" data-name="Layer 1"><g class="cls-2"><g class="cls-2"><g class="cls-3"><g class="cls-2"><path d="M30.1,2.38l1.49.37a13.41,13.41,0,0,0-3.28-.41A13.7,13.7,0,0,0,18.42,6.6l-1.49-.37A13.7,13.7,0,0,1,26.82,2a13.41,13.41,0,0,1,3.28.41"/><path d="M16.93,6.22l1.49.37a14.27,14.27,0,0,0-1.28,1.53l-1.49-.37a14.27,14.27,0,0,1,1.28-1.53"/><path d="M15.65,7.76l1.49.37a14.3,14.3,0,0,0-.87,1.36l-1.49-.37a14.3,14.3,0,0,1,.87-1.36"/><path d="M14.78,9.11l1.49.37a14.27,14.27,0,0,0-.66,1.31l-1.49-.37a14.27,14.27,0,0,1,.66-1.31"/><path d="M14.13,10.43l1.49.37q-.28.64-.49,1.31l-1.49-.37q.22-.67.49-1.31"/><path d="M13.63,11.73l1.49.37q-.21.66-.36,1.35l-1.49-.37q.15-.69.36-1.35"/><path d="M13.27,13.08l1.49.37a14.29,14.29,0,0,0-.24,1.44L13,14.52a14.29,14.29,0,0,1,.24-1.44"/><path d="M13,14.52l1.49.37a14.45,14.45,0,0,0-.09,1.47s0,.1,0,.15l-1.49-.37s0-.1,0-.15A14.45,14.45,0,0,1,13,14.52"/><path d="M12.94,16.14l1.49.37a14.33,14.33,0,0,0,.13,2l-1.49-.37a14.33,14.33,0,0,1-.13-2"/><path d="M13.07,18.09l1.49.37a14,14,0,0,0,.89,3.36L14,21.45a14,14,0,0,1-.89-3.36"/><path d="M14,21.45l1.49.37a13.92,13.92,0,0,0,1,1.94l-1.49-.37a13.92,13.92,0,0,1-1-1.94"/><path d="M14.93,23.39l1.49.37a13.85,13.85,0,0,0,2.16,2.74l-1.49-.37a13.85,13.85,0,0,1-2.16-2.74"/><path d="M17.09,26.13l1.49.37A13.68,13.68,0,0,0,20,27.77l-1.49-.37a13.68,13.68,0,0,1-1.48-1.26"/><path d="M18.56,27.39l1.49.37a13.52,13.52,0,0,0,1.32.86l-1.49-.37a13.52,13.52,0,0,1-1.32-.86"/><path d="M19.88,28.25l1.49.37a13.38,13.38,0,0,0,1.28.64l-1.49-.37a13.38,13.38,0,0,1-1.28-.64"/><path d="M21.16,28.9l1.49.37a13.29,13.29,0,0,0,1.27.48l-1.49-.37a13.29,13.29,0,0,1-1.27-.48"/><path d="M22.43,29.38l1.49.37.8.23-1.49-.37-.8-.23"/></g></g></g><g class="cls-2"><g class="cls-4"><g class="cls-2"><path class="cls-5" d="M30.1,2.38l1.49.37.8.23L30.9,2.61l-.8-.23"/><path class="cls-6" d="M30.9,2.61,32.39,3a13.31,13.31,0,0,1,1.27.48l-1.49-.37a13.31,13.31,0,0,0-1.27-.48"/><path class="cls-7" d="M32.17,3.09l1.49.37a13.4,13.4,0,0,1,1.28.64l-1.49-.37a13.4,13.4,0,0,0-1.28-.64"/></g></g></g><g class="cls-2"><g class="cls-8"><g class="cls-2"><path class="cls-7" d="M32.17,3.09l1.49.37a13.4,13.4,0,0,1,1.28.64l-1.49-.37a13.4,13.4,0,0,0-1.28-.64"/><path class="cls-9" d="M33.45,3.74l1.49.37A13.53,13.53,0,0,1,36.26,5L34.77,4.6a13.53,13.53,0,0,0-1.32-.86"/><path class="cls-10" d="M34.77,4.6,36.26,5a13.68,13.68,0,0,1,1.48,1.26l-1.49-.37A13.68,13.68,0,0,0,34.77,4.6"/><path class="cls-11" d="M36.25,5.86l1.49.37A13.84,13.84,0,0,1,39.89,9L38.41,8.6a13.84,13.84,0,0,0-2.16-2.74"/><path class="cls-12" d="M38.41,8.6,39.89,9a13.9,13.9,0,0,1,1,1.94l-1.49-.37a13.9,13.9,0,0,0-1-1.94"/><path class="cls-11" d="M39.38,10.54l1.49.37a14,14,0,0,1,.89,3.35l-1.49-.37a14,14,0,0,0-.89-3.35"/><path class="cls-10" d="M40.27,13.89l1.49.37a14.3,14.3,0,0,1,.13,2l-1.49-.37a14.3,14.3,0,0,0-.13-2"/><path class="cls-9" d="M40.4,15.84l1.49.37s0,.1,0,.15a14.43,14.43,0,0,1-.09,1.47l-1.49-.37A14.43,14.43,0,0,0,40.4,16s0-.1,0-.15"/><path class="cls-7" d="M40.31,17.46l1.49.37a14.29,14.29,0,0,1-.24,1.44l-1.49-.37a14.29,14.29,0,0,0,.24-1.44"/><path class="cls-6" d="M40.07,18.9l1.49.37q-.15.69-.36,1.35l-1.49-.37q.21-.66.36-1.35"/><path class="cls-5" d="M39.7,20.24l1.49.37q-.22.67-.49,1.31l-1.49-.37q.28-.64.49-1.31"/><path class="cls-13" d="M39.21,21.55l1.49.37A14.29,14.29,0,0,1,40,23.24l-1.49-.37a14.29,14.29,0,0,0,.66-1.32"/><path class="cls-14" d="M38.55,22.86l1.49.37a14.32,14.32,0,0,1-.87,1.36l-1.49-.37a14.32,14.32,0,0,0,.87-1.36"/><path class="cls-15" d="M37.68,24.22l1.49.37a14.3,14.3,0,0,1-1.29,1.54l-1.49-.37a14.3,14.3,0,0,0,1.29-1.54"/><path class="cls-16" d="M36.4,25.76l1.49.37A13.71,13.71,0,0,1,28,30.38a13.38,13.38,0,0,1-3.28-.4l-1.49-.37a13.38,13.38,0,0,0,3.28.4,13.71,13.71,0,0,0,9.89-4.25"/></g></g></g><g class="cls-2"><g class="cls-17"><g class="cls-2"><path d="M30.25,1.82l1.49.37.84.24-1.49-.37-.84-.24"/><path d="M31.08,2.06l1.49.37a13.86,13.86,0,0,1,1.33.5l-1.49-.37a13.86,13.86,0,0,0-1.33-.5"/><path d="M32.41,2.56l1.49.37a13.94,13.94,0,0,1,1.33.67l-1.49-.37a13.94,13.94,0,0,0-1.33-.67"/><path d="M33.74,3.23l1.49.37a14.06,14.06,0,0,1,1.37.89l-1.49-.37a14.06,14.06,0,0,0-1.37-.89"/><path d="M35.11,4.13l1.49.37a14.21,14.21,0,0,1,1.53,1.31l-1.49-.37a14.21,14.21,0,0,0-1.53-1.31"/><path d="M36.65,5.44l1.49.37a14.38,14.38,0,0,1,2.24,2.85l-1.49-.37a14.38,14.38,0,0,0-2.24-2.85"/><path d="M38.89,8.29l1.49.37a14.46,14.46,0,0,1,1,2l-1.49-.37a14.46,14.46,0,0,0-1-2"/><path d="M39.89,10.3l1.49.37a14.59,14.59,0,0,1,.93,3.5l-1.49-.37a14.59,14.59,0,0,0-.93-3.5"/><path d="M40.82,13.8l1.49.37a14.94,14.94,0,0,1,.14,2L41,15.84a14.94,14.94,0,0,0-.14-2"/><path d="M41,15.84l1.49.37q0,.08,0,.15a15.1,15.1,0,0,1-.1,1.54l-1.49-.37A15.1,15.1,0,0,0,41,16q0-.08,0-.15"/><path d="M40.86,17.53l1.49.37a14.93,14.93,0,0,1-.25,1.5L40.62,19a14.93,14.93,0,0,0,.25-1.5"/><path d="M40.62,19l1.49.37q-.16.72-.38,1.4l-1.49-.37q.22-.69.38-1.4"/><path d="M40.24,20.43l1.49.37q-.23.7-.51,1.36l-1.49-.37q.29-.66.51-1.36"/><path d="M39.72,21.79l1.49.37a14.86,14.86,0,0,1-.68,1.37L39,23.16a14.86,14.86,0,0,0,.68-1.37"/><path d="M39,23.16l1.49.37a14.87,14.87,0,0,1-.91,1.41l-1.49-.37A14.87,14.87,0,0,0,39,23.16"/><path d="M38.13,24.57l1.49.37a14.84,14.84,0,0,1-1.33,1.59l-1.49-.37a14.84,14.84,0,0,0,1.33-1.59"/><path d="M36.8,26.17l1.49.37A14.27,14.27,0,0,1,28,31a14,14,0,0,1-3.42-.42l-1.49-.37a14,14,0,0,0,3.42.42,14.27,14.27,0,0,0,10.3-4.42"/></g></g></g><path d="M26.82,1.4A14.26,14.26,0,0,1,41,16,14.64,14.64,0,0,1,26.5,30.58,14.26,14.26,0,0,1,12.37,16,14.64,14.64,0,0,1,26.82,1.4ZM26.51,30A14.08,14.08,0,0,0,40.4,16,13.71,13.71,0,0,0,26.82,2,14.07,14.07,0,0,0,12.94,16,13.71,13.71,0,0,0,26.51,30"/><path class="cls-18" d="M26.82,2A13.71,13.71,0,0,1,40.4,16,14.08,14.08,0,0,1,26.51,30,13.71,13.71,0,0,1,12.94,16,14.07,14.07,0,0,1,26.82,2Z"/></g><path class="cls-19" d="M25.92,30.5A14.32,14.32,0,1,1,40.25,16.18,14.34,14.34,0,0,1,25.92,30.5Z"/><path d="M25.92,2.14a14,14,0,1,1-14,14,14.05,14.05,0,0,1,14-14m0-.57A14.61,14.61,0,1,0,40.53,16.18,14.61,14.61,0,0,0,25.92,1.57Z"/><g class="cls-2"><g class="cls-2"><g class="cls-20"><g class="cls-2"><path d="M25.4,1.67,27,2.06a14.1,14.1,0,0,0-3.45-.43A14.42,14.42,0,0,0,13.12,6.1l-1.56-.39A14.42,14.42,0,0,1,22,1.24a14.1,14.1,0,0,1,3.45.43"/><path d="M11.56,5.71l1.56.39a15,15,0,0,0-1.35,1.62l-1.56-.39a15,15,0,0,1,1.35-1.62"/><path d="M10.21,7.32l1.56.39a15.05,15.05,0,0,0-.92,1.43L9.29,8.75a15.05,15.05,0,0,1,.92-1.43"/><path d="M9.29,8.75l1.56.39a15,15,0,0,0-.69,1.38L8.6,10.14a15,15,0,0,1,.69-1.38"/><path d="M8.6,10.14l1.56.39q-.29.67-.52,1.37l-1.56-.39q.23-.7.52-1.37"/><path d="M8.08,11.51l1.56.39q-.22.69-.38,1.41L7.7,12.92q.16-.72.38-1.41"/><path d="M7.7,12.92l1.56.39A15,15,0,0,0,9,14.83l-1.56-.39a15,15,0,0,1,.25-1.51"/><path d="M7.45,14.43,9,14.83a15.16,15.16,0,0,0-.1,1.54q0,.08,0,.15l-1.56-.39q0-.08,0-.15a15.16,15.16,0,0,1,.1-1.54"/><path d="M7.35,16.13l1.56.39a15.07,15.07,0,0,0,.14,2.06l-1.56-.39a15.07,15.07,0,0,1-.14-2.06"/><path d="M7.49,18.19l1.56.39A14.75,14.75,0,0,0,10,22.11l-1.56-.39a14.75,14.75,0,0,1-.94-3.53"/><path d="M8.43,21.72l1.56.39a14.64,14.64,0,0,0,1,2l-1.56-.39a14.64,14.64,0,0,1-1-2"/><path d="M9.45,23.76l1.56.39A14.57,14.57,0,0,0,13.28,27l-1.56-.39a14.57,14.57,0,0,1-2.27-2.89"/><path d="M11.72,26.65l1.56.39a14.39,14.39,0,0,0,1.55,1.33L13.27,28a14.39,14.39,0,0,1-1.55-1.33"/><path d="M13.27,28l1.56.39a14.23,14.23,0,0,0,1.39.9l-1.56-.39a14.23,14.23,0,0,1-1.39-.9"/><path d="M14.66,28.88l1.56.39a14.08,14.08,0,0,0,1.35.68L16,29.56a14.08,14.08,0,0,1-1.35-.68"/><path d="M16,29.56l1.56.39a14,14,0,0,0,1.34.51l-1.56-.39A14,14,0,0,1,16,29.56"/><path d="M17.34,30.06l1.56.39.84.24-1.56-.39-.84-.24"/></g></g></g><g class="cls-2"><g class="cls-21"><g class="cls-2"><path class="cls-5" d="M25.4,1.67,27,2.06l.84.24-1.56-.39-.84-.24"/><path class="cls-6" d="M26.25,1.91l1.56.39a14,14,0,0,1,1.34.51l-1.56-.39a14,14,0,0,0-1.34-.51"/></g></g></g><g class="cls-2"><g class="cls-22"><g class="cls-2"><path class="cls-6" d="M26.25,1.91l1.56.39a14,14,0,0,1,1.34.51l-1.56-.39a14,14,0,0,0-1.34-.51"/><path class="cls-7" d="M27.59,2.41l1.56.39a14.1,14.1,0,0,1,1.35.68l-1.56-.39a14.1,14.1,0,0,0-1.35-.68"/><path class="cls-9" d="M28.93,3.09l1.56.39a14.23,14.23,0,0,1,1.39.9L30.32,4a14.23,14.23,0,0,0-1.39-.9"/><path class="cls-10" d="M30.32,4l1.56.39a14.4,14.4,0,0,1,1.55,1.33l-1.56-.39A14.4,14.4,0,0,0,30.32,4"/></g></g></g><g class="cls-2"><g class="cls-23"><g class="cls-2"><path class="cls-10" d="M30.32,4l1.56.39a14.4,14.4,0,0,1,1.55,1.33l-1.56-.39A14.4,14.4,0,0,0,30.32,4"/><path class="cls-11" d="M31.88,5.32l1.56.39A14.56,14.56,0,0,1,35.71,8.6l-1.56-.39a14.56,14.56,0,0,0-2.27-2.88"/></g></g></g><g class="cls-2"><g class="cls-24"><g class="cls-2"><path class="cls-11" d="M31.88,5.32l1.56.39A14.56,14.56,0,0,1,35.71,8.6l-1.56-.39a14.56,14.56,0,0,0-2.27-2.88"/><path class="cls-12" d="M34.14,8.21l1.56.39a14.63,14.63,0,0,1,1,2l-1.56-.39a14.63,14.63,0,0,0-1-2"/><path class="cls-11" d="M35.16,10.25l1.56.39a14.72,14.72,0,0,1,.94,3.52l-1.56-.39a14.72,14.72,0,0,0-.94-3.52"/><path class="cls-10" d="M36.1,13.77l1.56.39a15,15,0,0,1,.14,2.05l-1.56-.39a15,15,0,0,0-.14-2.05"/><path class="cls-9" d="M36.24,15.83l1.56.39q0,.08,0,.15a15.2,15.2,0,0,1-.1,1.55l-1.56-.39a15.2,15.2,0,0,0,.1-1.55q0-.08,0-.15"/><path class="cls-7" d="M36.14,17.53l1.56.39a15,15,0,0,1-.25,1.51L35.89,19a15,15,0,0,0,.25-1.51"/><path class="cls-6" d="M35.89,19l1.56.39q-.16.72-.38,1.42l-1.56-.39q.22-.69.38-1.42"/><path class="cls-5" d="M35.51,20.46l1.56.39q-.23.7-.52,1.37L35,21.83q.29-.67.52-1.37"/><path class="cls-13" d="M35,21.83l1.56.39a15,15,0,0,1-.69,1.38l-1.56-.39A15,15,0,0,0,35,21.83"/><path class="cls-14" d="M34.3,23.21l1.56.39A15.05,15.05,0,0,1,34.95,25l-1.56-.39a15.05,15.05,0,0,0,.92-1.43"/><path class="cls-15" d="M33.38,24.64l1.56.39a15,15,0,0,1-1.35,1.62L32,26.26a15,15,0,0,0,1.35-1.62"/><path class="cls-16" d="M32,26.26l1.56.39a14.42,14.42,0,0,1-10.4,4.47,14.07,14.07,0,0,1-3.44-.43l-1.56-.39a14.07,14.07,0,0,0,3.44.43A14.42,14.42,0,0,0,32,26.26"/></g></g></g><g class="cls-2"><g class="cls-25"><g class="cls-2"><path d="M25.56,1.08l1.56.39.88.25-1.56-.39-.88-.25"/><path d="M26.44,1.33,28,1.73a14.58,14.58,0,0,1,1.4.53l-1.56-.39a14.58,14.58,0,0,0-1.4-.53"/><path d="M27.84,1.86l1.56.39a14.66,14.66,0,0,1,1.4.7l-1.56-.39a14.66,14.66,0,0,0-1.4-.7"/><path d="M29.24,2.56,30.8,3a14.79,14.79,0,0,1,1.44.94L30.68,3.5a14.79,14.79,0,0,0-1.44-.94"/><path d="M30.68,3.5l1.56.39a14.94,14.94,0,0,1,1.61,1.38l-1.56-.39A14.94,14.94,0,0,0,30.68,3.5"/><path d="M32.29,4.88l1.56.39a15.12,15.12,0,0,1,2.36,3l-1.56-.39a15.12,15.12,0,0,0-2.36-3"/><path d="M34.65,7.88l1.56.39a15.21,15.21,0,0,1,1.06,2.12L35.71,10a15.21,15.21,0,0,0-1.06-2.12"/><path d="M35.71,10l1.56.39a15.34,15.34,0,0,1,1,3.68l-1.56-.39a15.34,15.34,0,0,0-1-3.68"/><path d="M36.68,13.67l1.56.39a15.72,15.72,0,0,1,.14,2.14l-1.56-.39a15.72,15.72,0,0,0-.14-2.14"/><path d="M36.83,15.82l1.56.39q0,.08,0,.16a15.86,15.86,0,0,1-.1,1.62l-1.56-.39a15.86,15.86,0,0,0,.1-1.62q0-.08,0-.16"/><path d="M36.73,17.6l1.56.39A15.69,15.69,0,0,1,38,19.57l-1.56-.39a15.69,15.69,0,0,0,.26-1.58"/><path d="M36.47,19.17l1.56.39q-.16.75-.4,1.48l-1.56-.39q.23-.72.4-1.48"/><path d="M36.07,20.65l1.56.39q-.24.73-.54,1.43l-1.56-.39q.3-.7.54-1.43"/><path d="M35.53,22.08l1.56.39a15.63,15.63,0,0,1-.72,1.44l-1.56-.39a15.63,15.63,0,0,0,.72-1.44"/><path d="M34.81,23.52l1.56.39a15.64,15.64,0,0,1-1,1.49L33.86,25a15.64,15.64,0,0,0,1-1.49"/><path d="M33.86,25l1.56.39A15.61,15.61,0,0,1,34,27.08l-1.56-.39A15.61,15.61,0,0,0,33.86,25"/><path d="M32.45,26.68l1.56.39a15,15,0,0,1-10.83,4.65,14.7,14.7,0,0,1-3.6-.44L18,30.89a14.7,14.7,0,0,0,3.6.44,15,15,0,0,0,10.83-4.65"/></g></g></g><path d="M22,.64A15,15,0,0,1,36.83,16a15.4,15.4,0,0,1-15.2,15.35A15,15,0,0,1,6.76,16,15.39,15.39,0,0,1,22,.64Zm-.33,30.09A14.81,14.81,0,0,0,36.24,16,14.42,14.42,0,0,0,22,1.24,14.8,14.8,0,0,0,7.35,16,14.42,14.42,0,0,0,21.63,30.73"/><path class="cls-18" d="M22,1.24A14.42,14.42,0,0,1,36.24,16,14.81,14.81,0,0,1,21.63,30.73,14.42,14.42,0,0,1,7.35,16,14.8,14.8,0,0,1,22,1.24Z"/></g><path class="cls-19" d="M21,31.23A15.06,15.06,0,1,1,36.09,16.16,15.08,15.08,0,0,1,21,31.23Z"/><path d="M21,1.4A14.76,14.76,0,1,1,6.26,16.16,14.78,14.78,0,0,1,21,1.4m0-.6A15.37,15.37,0,1,0,36.39,16.16,15.37,15.37,0,0,0,21,.79Z"/><g class="cls-2"><g class="cls-2"><g class="cls-26"><g class="cls-2"><path d="M20.51,1.06l1.63.41A14.68,14.68,0,0,0,18.55,1,15,15,0,0,0,7.73,5.68L6.1,5.27A15,15,0,0,1,16.92.62a14.68,14.68,0,0,1,3.59.44"/><path d="M6.1,5.27l1.63.41A15.64,15.64,0,0,0,6.32,7.36L4.69,7A15.64,15.64,0,0,1,6.1,5.27"/><path d="M4.69,7l1.63.41a15.67,15.67,0,0,0-1,1.49L3.74,8.44A15.67,15.67,0,0,1,4.69,7"/><path d="M3.74,8.44l1.63.41a15.64,15.64,0,0,0-.72,1.44L3,9.88a15.64,15.64,0,0,1,.72-1.44"/><path d="M3,9.88l1.63.41q-.3.7-.54,1.43l-1.63-.41q.24-.73.54-1.43"/><path d="M2.48,11.31l1.63.41q-.23.72-.4,1.47l-1.63-.41q.16-.75.4-1.47"/><path d="M2.08,12.78l1.63.41a15.66,15.66,0,0,0-.26,1.58l-1.63-.41a15.66,15.66,0,0,1,.26-1.58"/><path d="M1.82,14.36l1.63.41a15.82,15.82,0,0,0-.1,1.61q0,.08,0,.16l-1.63-.41q0-.08,0-.16a15.82,15.82,0,0,1,.1-1.61"/><path d="M1.72,16.13l1.63.41a15.69,15.69,0,0,0,.14,2.14l-1.63-.41a15.69,15.69,0,0,1-.14-2.14"/><path d="M1.86,18.27l1.63.41a15.34,15.34,0,0,0,1,3.67l-1.63-.41a15.34,15.34,0,0,1-1-3.67"/><path d="M2.84,21.94l1.63.41a15.24,15.24,0,0,0,1.06,2.13L3.9,24.07a15.24,15.24,0,0,1-1.06-2.13"/><path d="M3.9,24.07l1.63.41a15.16,15.16,0,0,0,2.36,3l-1.63-.41a15.16,15.16,0,0,1-2.36-3"/><path d="M6.26,27.08l1.63.41A15,15,0,0,0,9.5,28.87l-1.63-.41a15,15,0,0,1-1.62-1.38"/><path d="M7.88,28.46l1.63.41a14.81,14.81,0,0,0,1.45.94L9.32,29.4a14.81,14.81,0,0,1-1.45-.94"/><path d="M9.32,29.4l1.63.41a14.67,14.67,0,0,0,1.4.7l-1.63-.41a14.67,14.67,0,0,1-1.4-.7"/><path d="M10.72,30.1l1.63.41a14.57,14.57,0,0,0,1.39.53l-1.63-.41a14.57,14.57,0,0,1-1.39-.53"/><path d="M12.12,30.63l1.63.41.88.25L13,30.88l-.88-.25"/></g></g></g><g class="cls-2"><g class="cls-27"><g class="cls-2"><path class="cls-5" d="M20.51,1.06l1.63.41.88.25-1.63-.41-.88-.25"/><path class="cls-6" d="M21.39,1.31,23,1.73a14.57,14.57,0,0,1,1.39.53l-1.63-.41a14.57,14.57,0,0,0-1.39-.53"/><path class="cls-7" d="M22.79,1.84l1.63.41a14.67,14.67,0,0,1,1.4.7l-1.63-.41a14.67,14.67,0,0,0-1.4-.7"/><path class="cls-9" d="M24.19,2.55,25.82,3a14.81,14.81,0,0,1,1.45.94l-1.63-.41a14.81,14.81,0,0,0-1.45-.94"/><path class="cls-10" d="M25.63,3.49l1.63.41a15,15,0,0,1,1.62,1.38l-1.63-.41a15,15,0,0,0-1.62-1.38"/><path class="cls-11" d="M27.25,4.87l1.63.41a15.16,15.16,0,0,1,2.36,3l-1.63-.41a15.16,15.16,0,0,0-2.36-3"/></g></g></g><path class="cls-18" d="M16.92.62A15,15,0,0,1,31.79,16a15.41,15.41,0,0,1-15.2,15.35A15,15,0,0,1,1.72,16,15.41,15.41,0,0,1,16.92.62Z"/><g class="cls-2"><g class="cls-28"><g class="cls-2"><path class="cls-11" d="M27.25,4.87l1.63.41a15.16,15.16,0,0,1,2.36,3l-1.63-.41a15.16,15.16,0,0,0-2.36-3"/><path class="cls-12" d="M29.61,7.87l1.63.41a15.24,15.24,0,0,1,1.06,2.13L30.67,10a15.24,15.24,0,0,0-1.06-2.13"/><path class="cls-11" d="M30.67,10l1.63.41a15.34,15.34,0,0,1,1,3.67l-1.63-.41a15.34,15.34,0,0,0-1-3.67"/><path class="cls-10" d="M31.65,13.67l1.63.41a15.68,15.68,0,0,1,.14,2.14l-1.63-.41a15.68,15.68,0,0,0-.14-2.14"/><path class="cls-9" d="M31.79,15.81l1.63.41q0,.08,0,.16a15.82,15.82,0,0,1-.1,1.61l-1.63-.41a15.82,15.82,0,0,0,.1-1.61q0-.08,0-.16"/><path class="cls-7" d="M31.69,17.58l1.63.41a15.66,15.66,0,0,1-.26,1.58l-1.63-.41a15.66,15.66,0,0,0,.26-1.58"/><path class="cls-6" d="M31.43,19.16l1.63.41q-.16.75-.4,1.47L31,20.63q.23-.72.4-1.47"/><path class="cls-5" d="M31,20.63l1.63.41q-.24.73-.54,1.43l-1.63-.41q.3-.7.54-1.43"/><path class="cls-13" d="M30.49,22.06l1.63.41a15.64,15.64,0,0,1-.72,1.44l-1.63-.41a15.64,15.64,0,0,0,.72-1.44"/><path class="cls-14" d="M29.77,23.5l1.63.41a15.67,15.67,0,0,1-1,1.49L28.82,25a15.67,15.67,0,0,0,1-1.49"/><path class="cls-15" d="M28.82,25l1.63.41A15.64,15.64,0,0,1,29,27.08l-1.63-.41A15.64,15.64,0,0,0,28.82,25"/><path class="cls-16" d="M27.41,26.67l1.63.41a15,15,0,0,1-10.82,4.65,14.68,14.68,0,0,1-3.59-.44L13,30.88a14.68,14.68,0,0,0,3.59.44,15,15,0,0,0,10.82-4.65"/></g></g></g><g class="cls-2"><g class="cls-29"><g class="cls-2"><path d="M20.68.46l1.63.41q.46.12.92.26L21.59.72q-.45-.14-.92-.26"/><path d="M21.59.72l1.63.41a15.17,15.17,0,0,1,1.45.55L23,1.27A15.17,15.17,0,0,0,21.59.72"/><path d="M23,1.27l1.63.41a15.26,15.26,0,0,1,1.46.73L24.51,2A15.26,15.26,0,0,0,23,1.27"/><path d="M24.51,2l1.63.41a15.4,15.4,0,0,1,1.5,1L26,3a15.4,15.4,0,0,0-1.5-1"/><path d="M26,3l1.63.41a15.56,15.56,0,0,1,1.68,1.43l-1.63-.41A15.56,15.56,0,0,0,26,3"/><path d="M27.69,4.42l1.63.41a15.74,15.74,0,0,1,2.45,3.12l-1.63-.41a15.74,15.74,0,0,0-2.45-3.12"/><path d="M30.14,7.54l1.63.41a15.84,15.84,0,0,1,1.1,2.21l-1.63-.41a15.84,15.84,0,0,0-1.1-2.21"/><path d="M31.24,9.74l1.63.41a16,16,0,0,1,1,3.83l-1.63-.41a16,16,0,0,0-1-3.83"/><path d="M32.26,13.57l1.63.41A16.36,16.36,0,0,1,34,16.21l-1.63-.41a16.36,16.36,0,0,0-.15-2.23"/><path d="M32.41,15.8l1.63.41q0,.08,0,.17a16.53,16.53,0,0,1-.1,1.68l-1.63-.41a16.53,16.53,0,0,0,.1-1.68q0-.08,0-.17"/><path d="M32.3,17.65l1.63.41a16.34,16.34,0,0,1-.27,1.64L32,19.3a16.34,16.34,0,0,0,.27-1.64"/><path d="M32,19.3l1.63.41q-.17.78-.42,1.54l-1.63-.41q.24-.75.42-1.54"/><path d="M31.62,20.84l1.63.41q-.25.76-.56,1.49l-1.63-.41q.32-.73.56-1.49"/><path d="M31.05,22.32l1.63.41a16.27,16.27,0,0,1-.75,1.5l-1.63-.41a16.27,16.27,0,0,0,.75-1.5"/><path d="M30.31,23.82l1.63.41a16.28,16.28,0,0,1-1,1.55l-1.63-.41a16.28,16.28,0,0,0,1-1.55"/><path d="M29.31,25.37l1.63.41a16.25,16.25,0,0,1-1.46,1.75l-1.63-.41a16.25,16.25,0,0,0,1.46-1.75"/><path d="M27.85,27.11l1.63.41a15.63,15.63,0,0,1-11.27,4.84,15.32,15.32,0,0,1-3.75-.46l-1.63-.41a15.32,15.32,0,0,0,3.75.46,15.63,15.63,0,0,0,11.27-4.84"/></g></g></g><path d="M16.93,0A15.61,15.61,0,0,1,32.41,16,16,16,0,0,1,16.58,32,15.61,15.61,0,0,1,1.1,16,16,16,0,0,1,16.93,0Zm-.34,31.32A15.41,15.41,0,0,0,31.79,16,15,15,0,0,0,16.92.62,15.41,15.41,0,0,0,1.72,16,15,15,0,0,0,16.59,31.32"/></g><path class="cls-19" d="M16,31.55A15.38,15.38,0,1,1,31.37,16.18,15.39,15.39,0,0,1,16,31.55Z"/><path d="M16,1.43A14.75,14.75,0,1,1,1.25,16.18,14.77,14.77,0,0,1,16,1.43M16,.18a16,16,0,1,0,16,16,16,16,0,0,0-16-16Z"/><path class="cls-30" d="M16,26.58s6.58-3.07,9.24-9.86C28.19,9.28,19.94,4,16.12,12.1H16a7.09,7.09,0,0,0-3.45-3.76c-3.8-1.59-7.89,2.81-5.7,8.39,2.66,6.79,9.35,9.86,9.35,9.86"/></g></g></svg>