<svg xmlns="http://www.w3.org/2000/svg" xmlns:xlink="http://www.w3.org/1999/xlink" viewBox="0 0 39.56 38.57"><defs><style>.cls-1{fill:none;}.cls-2{clip-path:url(#clip-path);}.cls-3{fill:#262e6e;}.cls-4{fill:#283072;}.cls-5{fill:#293176;}.cls-6{fill:#2b337a;}.cls-7{fill:#2c357f;}.cls-8{fill:#2e3783;}.cls-9{fill:#2f3887;}.cls-10{fill:#313a8b;}.cls-11{fill:#323c8f;}.cls-12{fill:#343e94;}.cls-13{fill:#353f98;}.cls-14{clip-path:url(#clip-path-2);}.cls-15{fill:#999;}.cls-16{fill:#9e9e9e;}.cls-17{clip-path:url(#clip-path-3);}.cls-18{fill:#858585;}.cls-19{clip-path:url(#clip-path-4);}.cls-20{fill:#a3a3a3;}.cls-21{fill:#a8a8a8;}.cls-22{fill:#adadad;}.cls-23{fill:#b3b3b3;}.cls-24{fill:#b8b8b8;}.cls-25{fill:#949494;}.cls-26{fill:#8f8f8f;}.cls-27{fill:#8a8a8a;}.cls-28{fill:#3d48ae;}.cls-29{fill:#d2d2d2;}.cls-30{clip-path:url(#clip-path-5);}.cls-31{fill:#f9f5c5;}.cls-32{fill:#3b479b;}.cls-33{fill:#4e57ef;stroke:#4e57ef;stroke-miterlimit:10;stroke-width:0.19px;}</style><clipPath id="clip-path"><path class="cls-1" d="M23.45,1.27l1.94.49a17.67,17.67,0,0,0-4.28-.53A18.38,18.38,0,0,0,3,19.53,18,18,0,0,0,16.44,37.29L14.5,36.8A18,18,0,0,1,1,19,18.36,18.36,0,0,1,19.17.75,17.66,17.66,0,0,1,23.45,1.27Z"/></clipPath><clipPath id="clip-path-2"><path class="cls-1" d="M25.39,1.76a16.92,16.92,0,0,1,2.68.91l-.23-.06-.24-.06-.25-.06-.25-.06-.25-.06-.25-.06-.24-.06-.23-.06a16.92,16.92,0,0,0-2.68-.91Z"/></clipPath><clipPath id="clip-path-3"><path class="cls-1" d="M20.72,37.82a17.67,17.67,0,0,1-4.28-.53L14.5,36.8a17.66,17.66,0,0,0,7.89.16l1.94.49A17.55,17.55,0,0,1,20.72,37.82Z"/></clipPath><clipPath id="clip-path-4"><path class="cls-1" d="M38.83,19.53a18.48,18.48,0,0,1-14.5,17.92L22.39,37a18.47,18.47,0,0,0,14.5-18A18.08,18.08,0,0,0,26.12,2.19l1.94.49A18.09,18.09,0,0,1,38.83,19.53Z"/></clipPath><clipPath id="clip-path-5"><path class="cls-1" d="M23.65.55,25.59,1a18.71,18.71,0,0,1,14,18.48,19.1,19.1,0,0,1-18.85,19,17.94,17.94,0,0,1-4.5-.48l-1.94-.49a18.18,18.18,0,0,0,4.47.55A19.1,19.1,0,0,0,37.62,19,18.71,18.71,0,0,0,23.65.55Z"/></clipPath></defs><title>Asset 2</title><g id="Layer_2" data-name="Layer 2"><g id="Layer_1-2" data-name="Layer 1"><g id="Layer_2-2" data-name="Layer 2"><g id="Layer_1-2-2" data-name="Layer 1-2"><g class="cls-2"><path class="cls-3" d="M23.45,1.27l1.94.49a17.67,17.67,0,0,0-4.28-.53A17.9,17.9,0,0,0,8.22,6.78L6.28,6.29A17.89,17.89,0,0,1,19.17.75a17.67,17.67,0,0,1,4.28.53"/><path class="cls-4" d="M6.28,6.29l1.94.49a17.79,17.79,0,0,0-1.68,2L4.6,8.29a17.79,17.79,0,0,1,1.68-2"/><path class="cls-5" d="M4.6,8.29l1.94.49A20.51,20.51,0,0,0,5.4,10.55l-1.94-.49A20.51,20.51,0,0,1,4.6,8.29"/><path class="cls-6" d="M3.46,10.07l1.94.49a18.39,18.39,0,0,0-.86,1.72l-1.93-.5a18.39,18.39,0,0,1,.86-1.72"/><path class="cls-7" d="M2.61,11.78l1.94.49c-.24.55-.45,1.12-.64,1.7L2,13.49c.19-.58.4-1.15.64-1.7"/><path class="cls-8" d="M2,13.49,3.9,14a16.85,16.85,0,0,0-.47,1.76l-1.94-.49c.13-.59.29-1.18.47-1.76"/><path class="cls-9" d="M1.49,15.24l1.94.49a17.13,17.13,0,0,0-.31,1.88l-1.94-.49a17.13,17.13,0,0,1,.31-1.88"/><path class="cls-10" d="M1.18,17.12l1.94.49A17.65,17.65,0,0,0,3,19.53v.19l-2-.49V19q0-1,.12-1.92"/><path class="cls-11" d="M1,19.23l2,.49a19.86,19.86,0,0,0,.17,2.55l-1.94-.49A19.8,19.8,0,0,1,1,19.23"/><path class="cls-12" d="M1.23,21.78l1.94.49a17.85,17.85,0,0,0,1.16,4.37l-1.94-.49a17.85,17.85,0,0,1-1.16-4.37"/><path class="cls-13" d="M2.39,26.15l1.94.49a17.15,17.15,0,0,0,1.26,2.54l-1.94-.49a17.15,17.15,0,0,1-1.26-2.54"/><path class="cls-12" d="M3.66,28.69l1.94.49a18,18,0,0,0,2.81,3.58l-1.94-.49a18,18,0,0,1-2.81-3.58"/><path class="cls-11" d="M6.47,32.27l1.94.49a17.68,17.68,0,0,0,1.92,1.64l-1.94-.49a17.68,17.68,0,0,1-1.92-1.64"/><path class="cls-10" d="M8.4,33.91l1.94.49A17.36,17.36,0,0,0,12,35.52L10.12,35A17.46,17.46,0,0,1,8.4,33.88"/><path class="cls-9" d="M10.12,35l1.94.49a17.38,17.38,0,0,0,1.67.84l-1.94-.49A17.38,17.38,0,0,1,10.12,35"/><path class="cls-8" d="M11.79,35.87l1.94.49a16.64,16.64,0,0,0,1.66.63l-1.94-.49a16.64,16.64,0,0,1-1.66-.63"/><path class="cls-7" d="M13.45,36.5l1.94.49,1,.3-1.94-.49c-.35-.09-.69-.19-1-.3"/></g><g class="cls-14"><path class="cls-15" d="M23.45,1.27l1.94.49c.35.09.69.19,1,.3l-1.94-.49-1-.3"/><path class="cls-16" d="M24.5,1.57l1.94.49a16.64,16.64,0,0,1,1.66.63L26.16,2.2a16.64,16.64,0,0,0-1.66-.63"/></g><g class="cls-17"><path class="cls-18" d="M31.67,31.78l1.94.49a17.87,17.87,0,0,1-12.9,5.54,17.67,17.67,0,0,1-4.28-.53l-1.94-.49a17.67,17.67,0,0,0,4.28.53,17.87,17.87,0,0,0,12.9-5.54"/></g><g class="cls-19"><path class="cls-16" d="M24.5,1.57l1.94.49a16.64,16.64,0,0,1,1.66.63L26.16,2.2a16.64,16.64,0,0,0-1.66-.63"/><path class="cls-20" d="M26.16,2.2l1.94.49a17.38,17.38,0,0,1,1.67.84L27.83,3a17.38,17.38,0,0,0-1.67-.84"/><path class="cls-21" d="M27.83,3l1.94.49a17.46,17.46,0,0,1,1.72,1.12l-1.94-.49A17.46,17.46,0,0,0,27.83,3"/><path class="cls-22" d="M29.55,4.16l1.94.49A16.81,16.81,0,0,1,33.42,6.3l-1.94-.49a17.78,17.78,0,0,0-1.93-1.64"/><path class="cls-23" d="M31.48,5.81l1.94.49a18.09,18.09,0,0,1,2.82,3.58L34.3,9.39a18.09,18.09,0,0,0-2.82-3.58"/><path class="cls-24" d="M34.29,9.39l1.94.49a17.15,17.15,0,0,1,1.26,2.54l-1.94-.49a17.15,17.15,0,0,0-1.26-2.54"/><path class="cls-23" d="M35.56,11.92l1.94.49a17.85,17.85,0,0,1,1.16,4.37l-1.94-.49a17.85,17.85,0,0,0-1.16-4.37"/><path class="cls-22" d="M36.72,16.3l1.94.49a19.86,19.86,0,0,1,.17,2.55l-1.94-.49a19.86,19.86,0,0,0-.17-2.55"/><path class="cls-21" d="M36.89,18.84l1.94.49v.19q0,1-.12,1.92L36.77,21a16.65,16.65,0,0,0,.12-2v-.19"/><path class="cls-20" d="M36.77,21l1.94.49a17.13,17.13,0,0,1-.31,1.88l-1.94-.49A17.13,17.13,0,0,0,36.77,21"/><path class="cls-16" d="M36.46,22.83l1.94.49c-.13.6-.29,1.19-.47,1.76L36,24.59a16.85,16.85,0,0,0,.47-1.76"/><path class="cls-15" d="M36,24.59l1.94.49c-.19.58-.4,1.15-.64,1.7l-1.94-.49c.24-.55.45-1.12.64-1.7"/><path class="cls-25" d="M35.34,26.29l1.94.49a18.3,18.3,0,0,1-.85,1.72L34.49,28a18.3,18.3,0,0,0,.85-1.72"/><path class="cls-26" d="M34.49,28l1.94.49a20.51,20.51,0,0,1-1.14,1.77l-1.94-.49A20.51,20.51,0,0,0,34.49,28"/><path class="cls-27" d="M33.35,29.78l1.94.49a17.79,17.79,0,0,1-1.68,2l-1.94-.49a17.79,17.79,0,0,0,1.68-2"/><path class="cls-18" d="M31.67,31.78l1.94.49a17.87,17.87,0,0,1-12.9,5.54,17.67,17.67,0,0,1-4.28-.53l-1.94-.49a17.67,17.67,0,0,0,4.28.53,17.87,17.87,0,0,0,12.9-5.54"/></g><path class="cls-28" d="M19.18,0A18.6,18.6,0,0,1,37.62,18.76V19A19.1,19.1,0,0,1,18.77,38,18.6,18.6,0,0,1,.33,19.24V19A19.09,19.09,0,0,1,19.18,0Zm-.41,37.33A18.36,18.36,0,0,0,36.89,19,17.89,17.89,0,0,0,19.36.75h-.19A18.36,18.36,0,0,0,1,19,17.87,17.87,0,0,0,18.43,37.32h.35"/><path class="cls-29" d="M19.17.75A17.89,17.89,0,0,1,36.89,18.81V19A18.37,18.37,0,0,1,18.78,37.33a17.89,17.89,0,0,1-17.73-18c0-.1,0-.2,0-.3A18.36,18.36,0,0,1,19.17.75Z"/><g class="cls-30"><path class="cls-7" d="M23.65.55,25.59,1c.37.09.73.2,1.09.31L24.74.86C24.38.75,24,.64,23.65.55"/><path class="cls-8" d="M24.74.86l1.94.49A18,18,0,0,1,28.41,2l-1.94-.49A18,18,0,0,0,24.74.86"/><path class="cls-9" d="M26.47,1.52,28.41,2a17.64,17.64,0,0,1,1.74.87l-1.94-.48a17.64,17.64,0,0,0-1.74-.87"/><path class="cls-10" d="M28.21,2.39l1.94.49A17.32,17.32,0,0,1,31.94,4L30,3.55a19,19,0,0,0-1.8-1.16"/><path class="cls-11" d="M30,3.55,31.94,4a18.06,18.06,0,0,1,2,1.71L32,5.26a18.06,18.06,0,0,0-2-1.71"/><path class="cls-12" d="M32,5.26,34,5.75a18.43,18.43,0,0,1,2.92,3.72L34.92,9A19.17,19.17,0,0,0,32,5.26"/><path class="cls-13" d="M34.92,9l1.94.49a19.41,19.41,0,0,1,1.31,2.62l-1.94-.49A19.41,19.41,0,0,0,34.92,9"/><path class="cls-12" d="M36.23,11.6l1.94.49a19.53,19.53,0,0,1,1.22,4.57l-1.94-.49a19.53,19.53,0,0,0-1.22-4.57"/><path class="cls-11" d="M37.44,16.17l1.94.49a19.7,19.7,0,0,1,.18,2.66l-1.94-.49a19.7,19.7,0,0,0-.18-2.66"/><path class="cls-10" d="M37.62,18.84l1.94.49v.2c0,.67-.05,1.34-.12,2L37.5,21c.07-.66.11-1.33.12-2v-.2"/><path class="cls-9" d="M37.5,21l1.94.49a19.35,19.35,0,0,1-.32,2L37.17,23a19.35,19.35,0,0,0,.32-2"/><path class="cls-8" d="M37.17,23l1.94.49a16.49,16.49,0,0,1-.5,1.83l-1.94-.49c.19-.6.36-1.21.5-1.83"/><path class="cls-7" d="M36.68,24.84l1.94.49A18.08,18.08,0,0,1,38,27.11L36,26.61a18.08,18.08,0,0,0,.67-1.78"/><path class="cls-6" d="M36,26.61,38,27.1c-.28.61-.6,1.2-.94,1.78l-1.9-.48a20,20,0,0,0,.9-1.79"/><path class="cls-5" d="M35.11,28.4l1.94.49a18.55,18.55,0,0,1-1.18,1.84l-1.94-.49a18.55,18.55,0,0,0,1.18-1.84"/><path class="cls-4" d="M33.93,30.24l1.94.49a19.17,19.17,0,0,1-1.74,2.08l-1.94-.49a19.17,19.17,0,0,0,1.74-2.08"/><path class="cls-3" d="M32.19,32.32l1.94.49a18.6,18.6,0,0,1-13.42,5.76A18.2,18.2,0,0,1,16.24,38l-1.94-.49a18.18,18.18,0,0,0,4.47.55A18.6,18.6,0,0,0,32.19,32.3"/></g><path class="cls-31" d="M19.08,38A18.69,18.69,0,1,1,37.77,19.28,18.69,18.69,0,0,1,19.08,38Z"/><path class="cls-32" d="M19.08,1A18.32,18.32,0,1,1,.76,19.32v0A18.33,18.33,0,0,1,19.08,1m0-.75A19.07,19.07,0,1,0,38.14,19.33v0A19.08,19.08,0,0,0,19.08.22Z"/><path class="cls-33" d="M34.4,9.54l.38-.91-4.12-4.3-5-2.62-.35.49-.49-.39L9.7,20.1a.57.57,0,0,0-.18.47.53.53,0,0,0,.18.31.69.69,0,0,0,.24.1.73.73,0,0,0,.36,0l8.16-.7.9,7.84a.62.62,0,0,0,.09.32.64.64,0,0,0,.24.22.79.79,0,0,0,.45-.05.84.84,0,0,0,.31-.29L35.24,10.22Z"/><path class="cls-32" d="M19.08,1.47A17.82,17.82,0,1,1,1.26,19.29h0A17.85,17.85,0,0,1,19.08,1.47m0-1.25A19.07,19.07,0,1,0,38.14,19.3v0A19.08,19.08,0,0,0,19.08.22Z"/></g></g></g></g></svg>