<?xml version="1.0" encoding="iso-8859-1"?>
<!-- Generator: Adobe Illustrator 19.0.0, SVG Export Plug-In . SVG Version: 6.00 Build 0)  -->
<svg version="1.1" id="Layer_1" xmlns="http://www.w3.org/2000/svg" xmlns:xlink="http://www.w3.org/1999/xlink" x="0px" y="0px"
	 viewBox="0 0 512 512" style="enable-background:new 0 0 512 512;" xml:space="preserve">
<circle style="fill:#FE5022;" cx="256" cy="256" r="256"/>
<path style="fill:#FF3501;" d="M256,0c-11.317,0-22.461,0.744-33.391,2.167C348.216,18.53,445.217,125.933,445.217,256
	s-97.002,237.47-222.609,253.833C233.539,511.256,244.683,512,256,512c141.385,0,256-114.616,256-256S397.385,0,256,0z"/>
<g>
	<path style="fill:#ECE5DD;" d="M322.783,122.991c-18.719,0-33.948-15.229-33.948-33.948s15.229-33.948,33.948-33.948
		s33.948,15.229,33.948,33.948S341.502,122.991,322.783,122.991z"/>
	<path style="fill:#ECE5DD;" d="M256,456.904c-96.049,0-174.191-65.16-174.191-145.252S159.951,166.4,256,166.4
		s174.191,65.16,174.191,145.252S352.049,456.904,256,456.904z"/>
	<path style="fill:#ECE5DD;" d="M424.432,278.477c-7.866-27.651-25.328-52.607-50.498-72.169l-8.19-6.365l7.533-7.131
		c10.409-9.854,24.099-15.281,38.548-15.281c30.994,0,56.209,25.215,56.209,56.209c0,21.051-12.183,40.777-31.038,50.256
		l-9.618,4.836L424.432,278.477z"/>
	<path style="fill:#ECE5DD;" d="M75.002,283.995c-18.854-9.48-31.037-29.206-31.037-50.256c0-30.994,25.215-56.209,56.209-56.209
		c14.453,0,28.144,5.426,38.55,15.28l7.532,7.131l-8.19,6.364c-25.17,19.562-42.633,44.518-50.499,72.17l-2.946,10.355
		L75.002,283.995z"/>
</g>
<g>
	<path style="fill:#FE5022;" d="M178.087,312.209c-18.719,0-33.948-15.229-33.948-33.948c0-18.719,15.229-33.948,33.948-33.948
		s33.948,15.229,33.948,33.948C212.035,296.98,196.806,312.209,178.087,312.209z"/>
	<path style="fill:#FE5022;" d="M333.913,312.209c-18.719,0-33.948-15.229-33.948-33.948c0-18.719,15.229-33.948,33.948-33.948
		s33.948,15.229,33.948,33.948C367.861,296.98,352.632,312.209,333.913,312.209z"/>
	<path style="fill:#FE5022;" d="M342.794,370.786c-22.714,18.928-53.539,29.353-86.794,29.353s-64.08-10.425-86.794-29.353
		c-3.542-2.95-8.804-2.473-11.757,1.069c-2.952,3.542-2.473,8.805,1.069,11.757c25.709,21.425,60.328,33.223,97.483,33.223
		s71.774-11.798,97.483-33.222c3.542-2.952,4.02-8.215,1.069-11.757C351.599,368.313,346.335,367.835,342.794,370.786z"/>
</g>
<path style="fill:#ECE5DD;" d="M264.348,178.087v-71.896l18.201-6.067c4.867,17.653,21.055,30.659,40.234,30.659
	c23.016,0,41.739-18.724,41.739-41.739s-18.724-41.739-41.739-41.739c-20.919,0-38.289,15.469-41.281,35.57l-28.142,9.381
	c-3.409,1.136-5.708,4.326-5.708,7.919v77.913H264.348z M322.783,64c13.81,0,25.043,11.234,25.043,25.043
	s-11.234,25.043-25.043,25.043s-25.043-11.234-25.043-25.043S308.973,64,322.783,64z"/>
<g>
</g>
<g>
</g>
<g>
</g>
<g>
</g>
<g>
</g>
<g>
</g>
<g>
</g>
<g>
</g>
<g>
</g>
<g>
</g>
<g>
</g>
<g>
</g>
<g>
</g>
<g>
</g>
<g>
</g>
</svg>
