<?xml version="1.0" encoding="iso-8859-1"?>
<!-- Generator: Adobe Illustrator 19.0.0, SVG Export Plug-In . SVG Version: 6.00 Build 0)  -->
<svg version="1.1" xmlns="http://www.w3.org/2000/svg" xmlns:xlink="http://www.w3.org/1999/xlink" x="0px" y="0px"
	 viewBox="0 0 512 512" style="enable-background:new 0 0 512 512;" xml:space="preserve">
<g>
	<g>
		<path d="M509.861,408.064l-92.864-161.216c9.6-21.728,15.008-45.664,15.008-70.848c0-97.056-78.944-176-176-176
			s-176,78.944-176,176c0,25.184,5.408,49.12,15.008,70.816L2.149,408c-3.232,5.632-2.784,12.64,1.184,17.76
			s10.592,7.424,16.832,5.696l93.952-25.28l24.992,93.92c1.664,6.272,6.944,10.912,13.344,11.744c0.736,0.128,1.44,0.16,2.112,0.16
			c5.664,0,10.976-3.008,13.856-8l87.584-151.616L343.589,504c2.88,4.992,8.192,8,13.856,8c0.672,0,1.408-0.032,2.112-0.128
			c6.4-0.832,11.68-5.472,13.344-11.744l24.992-93.92l93.952,25.28c6.24,1.728,12.896-0.576,16.832-5.696
			C512.613,420.672,513.093,413.664,509.861,408.064z M160.069,454.496l-19.168-72.032c-1.088-4.096-3.776-7.616-7.456-9.76
			c-3.68-2.112-8.096-2.656-12.16-1.6l-72.128,19.392l64.32-111.648c25.504,35.264,63.616,60.8,107.808,69.696L160.069,454.496z
			 M112.005,176c0-79.392,64.608-144,144-144s144,64.608,144,144s-64.608,144-144,144S112.005,255.392,112.005,176z
			 M390.725,371.136c-4.096-1.088-8.48-0.512-12.16,1.6s-6.368,5.632-7.456,9.76l-19.168,72.032l-61.216-105.952
			c44.16-8.864,82.304-34.432,107.808-69.696l64.32,111.648L390.725,371.136z"/>
	</g>
</g>
<g>
	<g>
		<path d="M351.173,136.064c-1.696-5.152-5.888-9.056-11.136-10.432l-45.376-11.872l-24.896-41.92c-5.76-9.728-21.76-9.728-27.488,0
			l-24.896,41.92l-45.408,11.872c-5.28,1.376-9.44,5.28-11.168,10.432c-1.728,5.152-0.704,10.784,2.688,15.04l30.432,38.08
			l-3.328,49.76c-0.352,5.536,2.176,10.88,6.72,14.112s10.432,3.84,15.52,1.664l43.168-18.336l43.168,18.336
			c2.016,0.864,4.16,1.28,6.272,1.28c3.264,0,6.528-0.992,9.28-2.944c4.544-3.232,7.072-8.576,6.688-14.112l-3.328-49.76l30.4-38.08
			C351.877,146.88,352.869,141.216,351.173,136.064z M289.221,174.08c-2.496,3.136-3.744,7.072-3.456,11.04l2.016,29.984
			l-25.504-10.848c-2.016-0.864-4.16-1.28-6.272-1.28s-4.256,0.416-6.272,1.28l-25.472,10.848l1.984-29.984
			c0.288-3.968-0.96-7.904-3.456-11.04l-18.912-23.712l27.936-7.328c4.064-1.056,7.552-3.712,9.696-7.296l14.496-24.416
			l14.496,24.416c2.144,3.584,5.632,6.24,9.696,7.296l27.936,7.328L289.221,174.08z"/>
	</g>
</g>
</svg>
