<svg xmlns="http://www.w3.org/2000/svg" viewBox="0 0 512 512"><path d="M509.861 408.064l-92.864-161.216c9.6-21.728 15.008-45.664 15.008-70.848 0-97.056-78.944-176-176-176s-176 78.944-176 176c0 25.184 5.408 49.12 15.008 70.816L2.149 408c-3.232 5.632-2.784 12.64 1.184 17.76s10.592 7.424 16.832 5.696l93.952-25.28 24.992 93.92c1.664 6.272 6.944 10.912 13.344 11.744.736.128 1.44.16 2.112.16a16.002 16.002 0 0013.856-8l87.584-151.616L343.589 504c2.88 4.992 8.192 8 13.856 8 .672 0 1.408-.032 2.112-.128 6.4-.832 11.68-5.472 13.344-11.744l24.992-93.92 93.952 25.28c6.24 1.728 12.896-.576 16.832-5.696s4.416-12.128 1.184-17.728zm-349.792 46.432l-19.168-72.032a16.105 16.105 0 00-7.456-9.76c-3.68-2.112-8.096-2.656-12.16-1.6l-72.128 19.392 64.32-111.648c25.504 35.264 63.616 60.8 107.808 69.696l-61.216 105.952zM112.005 176c0-79.392 64.608-144 144-144s144 64.608 144 144-64.608 144-144 144-144-64.608-144-144zm278.72 195.136c-4.096-1.088-8.48-.512-12.16 1.6s-6.368 5.632-7.456 9.76l-19.168 72.032-61.216-105.952c44.16-8.864 82.304-34.432 107.808-69.696l64.32 111.648-72.128-19.392z"/><path d="M351.173 136.064c-1.696-5.152-5.888-9.056-11.136-10.432l-45.376-11.872-24.896-41.92c-5.76-9.728-21.76-9.728-27.488 0l-24.896 41.92-45.408 11.872a15.99 15.99 0 00-11.168 10.432c-1.728 5.152-.704 10.784 2.688 15.04l30.432 38.08-3.328 49.76c-.352 5.536 2.176 10.88 6.72 14.112s10.432 3.84 15.52 1.664l43.168-18.336 43.168 18.336c2.016.864 4.16 1.28 6.272 1.28 3.264 0 6.528-.992 9.28-2.944a15.964 15.964 0 006.688-14.112l-3.328-49.76 30.4-38.08c3.392-4.224 4.384-9.888 2.688-15.04zm-61.952 38.016c-2.496 3.136-3.744 7.072-3.456 11.04l2.016 29.984-25.504-10.848c-2.016-.864-4.16-1.28-6.272-1.28s-4.256.416-6.272 1.28l-25.472 10.848 1.984-29.984c.288-3.968-.96-7.904-3.456-11.04l-18.912-23.712 27.936-7.328c4.064-1.056 7.552-3.712 9.696-7.296l14.496-24.416 14.496 24.416c2.144 3.584 5.632 6.24 9.696 7.296l27.936 7.328-18.912 23.712z"/></svg>