<?xml version="1.0" encoding="iso-8859-1"?>
<!-- Generator: Adobe Illustrator 16.0.0, SVG Export Plug-In . SVG Version: 6.00 Build 0)  -->
<!DOCTYPE svg PUBLIC "-//W3C//DTD SVG 1.1//EN" "http://www.w3.org/Graphics/SVG/1.1/DTD/svg11.dtd">
<svg version="1.1" id="Capa_1" xmlns="http://www.w3.org/2000/svg" xmlns:xlink="http://www.w3.org/1999/xlink" x="0px" y="0px"
	 width="31.424px" height="31.423px" viewBox="0 0 31.424 31.423" style="enable-background:new 0 0 31.424 31.423;"
	 xml:space="preserve">
<g>
	<path d="M29.415,16.271l1.911-4.874c0.198-0.505,0.09-1.063-0.275-1.428l-9.495-9.494c-0.256-0.257-0.602-0.383-0.955-0.373
		c-0.26,0.008-0.523,0.09-0.759,0.248l-4.129,2.796l-4.13-2.796c-0.235-0.158-0.5-0.239-0.759-0.248
		c-0.354-0.01-0.699,0.116-0.955,0.373L0.373,9.969c-0.365,0.366-0.473,0.923-0.275,1.428l1.911,4.874l-0.768,0.768
		c-1.497,1.497-1.663,3.767-0.37,5.059c0.59,0.59,1.404,0.9,2.295,0.873c-0.024,0.859,0.261,1.685,0.869,2.292
		c0.59,0.59,1.406,0.899,2.296,0.873c0.182-0.004,0.363-0.023,0.543-0.057c0.073,0.686,0.355,1.328,0.852,1.824
		c0.589,0.589,1.405,0.898,2.295,0.873c0.216-0.006,0.433-0.033,0.647-0.078c0.085,0.658,0.364,1.271,0.843,1.75
		c0.589,0.588,1.405,0.897,2.297,0.873c0.656-0.021,1.31-0.237,1.901-0.592c0.592,0.354,1.248,0.572,1.904,0.592
		c0.891,0.025,1.707-0.284,2.296-0.873c0.479-0.479,0.757-1.092,0.843-1.75c0.214,0.045,0.431,0.072,0.647,0.078
		c0.891,0.025,1.705-0.284,2.295-0.873c0.497-0.497,0.777-1.14,0.852-1.824c0.181,0.033,0.361,0.053,0.543,0.057
		c0.891,0.026,1.707-0.282,2.296-0.873c0.608-0.608,0.895-1.433,0.869-2.292c0.891,0.027,1.705-0.283,2.295-0.873
		c1.293-1.292,1.127-3.562-0.37-5.059L29.415,16.271z M29.558,21.103c-0.353,0.353-0.833,0.516-1.343,0.501
		c-0.613-0.019-1.264-0.294-1.783-0.814l-2.681-2.679c-0.092-0.092-0.244-0.089-0.341,0.008c-0.098,0.097-0.103,0.25-0.009,0.342
		l2.68,2.681c0.95,0.949,1.089,2.35,0.312,3.126c-0.352,0.353-0.833,0.517-1.342,0.501c-0.613-0.019-1.265-0.294-1.784-0.813
		l-2.68-2.68c-0.092-0.092-0.245-0.088-0.342,0.009s-0.102,0.25-0.009,0.342l2.153,2.154c0.95,0.95,1.089,2.349,0.312,3.125
		c-0.353,0.353-0.833,0.516-1.342,0.502c-0.613-0.02-1.266-0.294-1.785-0.814l-2.153-2.153c-0.044-0.044-0.104-0.068-0.169-0.067
		c-0.065,0.002-0.126,0.029-0.173,0.076c-0.097,0.096-0.101,0.25-0.009,0.342l1.533,1.534c0.95,0.949,1.09,2.349,0.312,3.126
		c-0.353,0.352-0.833,0.517-1.342,0.501c-0.613-0.018-1.266-0.294-1.784-0.813l-1.701-1.7l-4.982-4.979l-5.319-5.319l-2.42-6.173
		l9.495-9.495l5.807,3.931l5.894,5.894L26.4,15.13l2.846,2.847C30.196,18.925,30.335,20.326,29.558,21.103z"/>
</g>
</svg>
