<svg width="24" height="24" viewBox="0 0 24 24" xmlns="http://www.w3.org/2000/svg"><path d="M12 5.5c3.987 0 7.304 2.802 8 6.5-.695 3.698-4.013 6.5-8 6.5S4.696 15.698 4 12c.695-3.698 4.013-6.5 8-6.5zm0 11.556a6.76 6.76 0 004.15-1.42A6.486 6.486 0 0018.49 12a6.487 6.487 0 00-2.341-3.633A6.76 6.76 0 0012 6.951c-1.507 0-2.97.499-4.149 1.416A6.487 6.487 0 005.51 12a6.486 6.486 0 002.34 3.636 6.76 6.76 0 004.15 1.42zm0-1.806a3.368 3.368 0 01-2.353-.952A3.212 3.212 0 018.673 12c0-.862.35-1.689.974-2.298A3.368 3.368 0 0112 8.75c.883 0 1.729.342 2.353.952.624.61.975 1.436.975 2.298 0 .862-.351 1.689-.975 2.298-.624.61-1.47.952-2.353.952zm0-1.444c.49 0 .96-.19 1.307-.53.347-.338.542-.797.542-1.276s-.195-.938-.542-1.277A1.871 1.871 0 0012 10.194c-.49 0-.96.19-1.307.53A1.785 1.785 0 0010.15 12c0 .479.195.938.542 1.277.347.338.817.529 1.307.529z"/></svg>
