<svg width="24" height="24" viewBox="0 0 24 24" xmlns="http://www.w3.org/2000/svg"><path d="M11.2 17.444V9.667H5.6v7.777h5.6zm0-9.333V5.778c0-.206.084-.404.234-.55A.812.812 0 0112 5h7.2c.212 0 .416.082.566.228.15.146.234.344.234.55v12.444a.767.767 0 01-.234.55.812.812 0 01-.566.228H4.8a.812.812 0 01-.566-.228.767.767 0 01-.234-.55V8.89c0-.206.084-.404.234-.55A.812.812 0 014.8 8.11h6.4zm1.6-1.555v10.888h5.6V6.556h-5.6zM6.4 15.11h4v1.556h-4V15.11zm7.2 0h4v1.556h-4V15.11zm0-2.333h4v1.555h-4v-1.555zm0-2.334h4V12h-4v-1.556zm-7.2 2.334h4v1.555h-4v-1.555z"/></svg>
