<svg width="24" height="24" viewBox="0 0 24 24" xmlns="http://www.w3.org/2000/svg">
    <path d="M12 2C6.477 2 2 6.477 2 12s4.477 10 10 10 10-4.477 10-10S17.523 2 12 2zm4.586 14.424a.623.623 0 0 1-.857.207c-2.348-1.435-5.304-1.76-8.785-.964a.623.623 0 0 1-.277-1.216c3.809-.87 7.076-.496 9.712 1.115a.623.623 0 0 1 .207.858zm1.223-2.722a.78.78 0 0 1-1.072.257c-2.687-1.652-6.786-2.131-9.965-1.166a.78.78 0 0 1-.973-.519.781.781 0 0 1 .52-.972c3.632-1.102 8.147-.568 11.234 1.328a.78.78 0 0 1 .256 1.072zm.105-2.835C14.692 8.95 9.375 8.775 6.297 9.71a.936.936 0 0 1-1.166-.623.937.937 0 0 1 .624-1.167c3.532-1.073 9.404-.866 13.115 1.338a.936.936 0 0 1 .324 1.285.937.937 0 0 1-1.28.324z"/>
</svg>
