<svg xmlns="http://www.w3.org/2000/svg" viewBox="0 0 512 512"><path d="M398.044 29.719C359.712 10.555 309.267 0 256.001 0c-53.271 0-103.719 10.555-142.05 29.721-43.457 21.73-67.39 52.497-67.39 86.635v279.288c0 34.138 23.933 64.906 67.392 86.636C152.285 501.446 202.732 512 256.002 512c53.266 0 103.711-10.555 142.043-29.721 43.46-21.732 67.393-52.498 67.393-86.636V116.355c.001-34.138-23.934-64.904-67.394-86.636zM256.001 46.548c93.229 0 162.889 36.855 162.889 69.808 0 32.953-69.66 69.809-162.889 69.809-93.23 0-162.892-36.857-162.892-69.809 0-32.953 69.661-69.808 162.892-69.808zm162.89 349.095c0 32.953-69.662 69.809-162.891 69.809-93.23 0-162.892-36.856-162.892-69.809v-18.58c6.348 4.292 13.294 8.346 20.844 12.121 38.332 19.167 88.779 29.721 142.05 29.721 53.266 0 103.711-10.555 142.043-29.721 7.552-3.777 14.498-7.829 20.846-12.121v18.58zm.002-93.095h-.002c0 32.953-69.66 69.809-162.889 69.809-93.23 0-162.892-36.857-162.892-69.809v-18.58c6.348 4.292 13.294 8.343 20.844 12.119 38.332 19.168 88.779 29.722 142.05 29.722 53.266 0 103.711-10.555 142.043-29.722 7.552-3.777 14.498-7.829 20.846-12.123v18.584zm0-93.097h-.002c0 32.954-69.66 69.811-162.889 69.811-93.23 0-162.892-36.856-162.892-69.811v-18.579c6.348 4.292 13.294 8.343 20.844 12.118 38.331 19.167 88.779 29.721 142.05 29.721 53.266 0 103.711-10.555 142.043-29.721 7.552-3.777 14.498-7.829 20.846-12.121v18.582z"/></svg>