<svg height="24" viewBox="0 0 24 24" width="24" xmlns="http://www.w3.org/2000/svg">
    <path d="M17.154 14c.23.516.346 1.09.346 1.72 0 1.342-.524 2.392-1.571 3.147C14.88 19.622 13.433 20 11.586 20c-1.64 0-3.263-.381-4.87-1.144V16.6c1.52.877 3.075 1.316 4.666 1.316 2.551 0 3.83-.732 3.839-2.197a2.21 2.21 0 0 0-.648-1.603l-.12-.117H3v-2h18v2h-3.846zm-4.078-3H7.629a4.087 4.087 0 0 1-.481-.522C6.716 9.92 6.5 9.246 6.5 8.452c0-1.236.466-2.287 1.397-3.153C8.83 4.433 10.271 4 12.222 4c1.471 0 2.879.328 4.222.984v2.152c-1.2-.687-2.515-1.03-3.946-1.03-2.48 0-3.719.782-3.719 2.346 0 .42.218.786.654 1.099s.974.562 1.613.75c.62.18 1.297.414 2.03.699z"/>
</svg>
