<?xml version="1.0" encoding="UTF-8"?>
<svg xmlns="http://www.w3.org/2000/svg" xmlns:xlink="http://www.w3.org/1999/xlink" width="24px" height="24px" viewBox="0 0 24 24" version="1.1">
<g id="surface1">
<path style=" stroke:none;fill-rule:nonzero;fill:rgb(0%,0%,0%);fill-opacity:1;" d="M 12 4 C 10.417969 4 8.871094 4.46875 7.554688 5.347656 C 6.238281 6.226562 5.214844 7.476562 4.609375 8.9375 C 4.003906 10.398438 3.84375 12.007812 4.152344 13.5625 C 4.460938 15.113281 5.222656 16.539062 6.34375 17.65625 C 7.460938 18.777344 8.886719 19.539062 10.4375 19.847656 C 11.992188 20.15625 13.601562 19.996094 15.0625 19.390625 C 16.523438 18.785156 17.773438 17.761719 18.652344 16.445312 C 19.53125 15.128906 20 13.582031 20 12 C 20 9.878906 19.15625 7.84375 17.65625 6.34375 C 16.15625 4.84375 14.121094 4 12 4 Z M 15.929688 9.480469 L 14.621094 15.671875 C 14.519531 16.109375 14.261719 16.210938 13.890625 16.011719 L 11.890625 14.53125 L 10.890625 15.460938 C 10.84375 15.523438 10.78125 15.570312 10.714844 15.605469 C 10.644531 15.640625 10.566406 15.660156 10.488281 15.660156 L 10.628906 13.660156 L 14.328125 10.308594 C 14.5 10.171875 14.328125 10.089844 14.089844 10.230469 L 9.550781 13.078125 L 7.550781 12.460938 C 7.121094 12.328125 7.109375 12.03125 7.640625 11.828125 L 15.351562 8.828125 C 15.730469 8.71875 16.050781 8.941406 15.929688 9.480469 Z M 15.929688 9.480469 "/>
</g>
</svg>
