<?xml version="1.0" encoding="UTF-8"?>
<svg xmlns="http://www.w3.org/2000/svg" xmlns:xlink="http://www.w3.org/1999/xlink" width="24px" height="24px" viewBox="0 0 24 24" version="1.1">
<g id="surface1">
<path style=" stroke:none;fill-rule:nonzero;fill:rgb(0%,0%,0%);fill-opacity:1;" d="M 16.589844 7.53125 C 16.597656 7.53125 16.601562 7.53125 16.609375 7.53125 C 16.765625 7.53125 16.910156 7.578125 17.03125 7.664062 L 17.027344 7.660156 C 17.113281 7.738281 17.171875 7.84375 17.1875 7.964844 C 17.203125 8.058594 17.210938 8.164062 17.210938 8.269531 C 17.210938 8.316406 17.207031 8.367188 17.203125 8.414062 L 17.203125 8.40625 C 17.035156 10.183594 16.304688 14.492188 15.933594 16.480469 C 15.773438 17.324219 15.464844 17.605469 15.164062 17.632812 C 14.511719 17.695312 14.019531 17.203125 13.386719 16.789062 C 12.398438 16.140625 11.839844 15.738281 10.878906 15.105469 C 9.769531 14.375 10.492188 13.972656 11.121094 13.316406 C 11.289062 13.144531 14.160156 10.53125 14.21875 10.292969 C 14.21875 10.277344 14.222656 10.261719 14.222656 10.246094 C 14.222656 10.1875 14.199219 10.132812 14.164062 10.09375 C 14.125 10.070312 14.078125 10.054688 14.027344 10.054688 C 13.992188 10.054688 13.960938 10.0625 13.929688 10.074219 L 13.929688 10.070312 C 13.832031 10.09375 12.253906 11.136719 9.195312 13.203125 C 8.859375 13.464844 8.4375 13.632812 7.980469 13.652344 L 7.976562 13.652344 C 7.324219 13.574219 6.734375 13.429688 6.175781 13.222656 L 6.230469 13.238281 C 5.527344 13.011719 4.96875 12.890625 5.015625 12.5 C 5.042969 12.300781 5.320312 12.09375 5.851562 11.878906 C 9.125 10.453125 11.308594 9.515625 12.402344 9.058594 C 13.605469 8.421875 15.003906 7.894531 16.472656 7.550781 L 16.589844 7.527344 Z M 11.949219 0.769531 C 5.722656 0.785156 0.679688 5.835938 0.679688 12.0625 C 0.679688 18.300781 5.734375 23.359375 11.972656 23.359375 C 18.210938 23.359375 23.269531 18.300781 23.269531 12.0625 C 23.269531 5.835938 18.226562 0.785156 12 0.769531 C 11.984375 0.769531 11.964844 0.769531 11.949219 0.769531 Z M 11.949219 0.769531 "/>
</g>
</svg>
