<?xml version="1.0" encoding="iso-8859-1"?>
<!-- Generator: Adobe Illustrator 16.0.0, SVG Export Plug-In . SVG Version: 6.00 Build 0)  -->
<!DOCTYPE svg PUBLIC "-//W3C//DTD SVG 1.1//EN" "http://www.w3.org/Graphics/SVG/1.1/DTD/svg11.dtd">
<svg version="1.1" id="Capa_1" xmlns="http://www.w3.org/2000/svg" xmlns:xlink="http://www.w3.org/1999/xlink" x="0px" y="0px"
	 width="95px" height="95px" viewBox="0 0 95 95" style="enable-background:new 0 0 95 95;" xml:space="preserve">
<g>
	<g>
		<path d="M23,35H2c-1.104,0-2,0.896-2,2v21c0,1.104,0.896,2,2,2h21c1.104,0,2-0.896,2-2V37C25,35.896,24.105,35,23,35z"/>
		<path d="M58,35H37c-1.104,0-2,0.896-2,2v21c0,1.104,0.896,2,2,2h21c1.104,0,2-0.896,2-2V37C60,35.896,59.105,35,58,35z"/>
		<path d="M93,35H72c-1.104,0-2,0.896-2,2v21c0,1.104,0.896,2,2,2h21c1.104,0,2-0.896,2-2V37C95,35.896,94.105,35,93,35z"/>
	</g>
</g>
<g>
</g>
<g>
</g>
<g>
</g>
<g>
</g>
<g>
</g>
<g>
</g>
<g>
</g>
<g>
</g>
<g>
</g>
<g>
</g>
<g>
</g>
<g>
</g>
<g>
</g>
<g>
</g>
<g>
</g>
</svg>
