<?xml version="1.0" encoding="iso-8859-1"?>
<!-- Generator: Adobe Illustrator 19.0.0, SVG Export Plug-In . SVG Version: 6.00 Build 0)  -->
<svg version="1.1" id="Layer_1" xmlns="http://www.w3.org/2000/svg" xmlns:xlink="http://www.w3.org/1999/xlink" x="0px" y="0px"
	 viewBox="0 0 511.537 511.537" style="enable-background:new 0 0 511.537 511.537;" xml:space="preserve">
<path style="fill:#65BBF2;" d="M357.038,49.172c-59.284,0.898-105.993,52.098-105.993,111.382v14.372
	C145.052,156.063,92.954,127.319,35.466,67.137c-34.133,66.47,3.593,122.161,44.912,152.702c-27.846,0-51.2-3.593-69.165-19.761
	c-1.796-0.898-3.593,0-2.695,1.797c15.27,55.691,67.368,96.112,107.789,107.789c-36.828,0-61.081,5.389-87.13-10.779
	c-1.796-0.898-3.593,0-2.695,1.796c19.761,54.793,59.284,71.86,116.772,71.86c-28.744,21.558-67.368,43.116-140.126,44.912
	c-2.695,0-4.491,3.593-1.796,5.389c26.947,22.456,93.418,39.523,186.835,39.523c153.6,0,278.456-136.533,278.456-305.404v-8.982
	c24.253-8.982,37.726-30.54,44.912-52.098c0-0.898-0.898-1.796-1.797-1.796l-51.2,17.965c-0.898,0-1.796-1.796-0.898-2.695
	C479.2,92.288,495.368,70.73,502.554,50.07c0,0-0.898-0.898-1.797-0.898c-24.253,9.881-47.607,19.761-65.572,25.151
	c-2.695,0.898-6.288,0.898-8.982-0.898C414.526,67.137,379.494,49.172,357.038,49.172"/>
<g>
</g>
<g>
</g>
<g>
</g>
<g>
</g>
<g>
</g>
<g>
</g>
<g>
</g>
<g>
</g>
<g>
</g>
<g>
</g>
<g>
</g>
<g>
</g>
<g>
</g>
<g>
</g>
<g>
</g>
</svg>
