<?xml version="1.0" encoding="UTF-8"?>
<svg width="24" height="24" viewBox="0 0 24 24" xmlns="http://www.w3.org/2000/svg" style="padding-bottom:2px;">
<g id="surface1">
<path style=" stroke:none;fill-rule:evenodd;fill-opacity:1;" d="M 12 0 C 18.628906 0 24 5.371094 24 12 C 24 18.628906 18.628906 24 12 24 C 5.371094 24 0 18.628906 0 12 C 0 5.371094 5.371094 0 12 0 Z M 12 0 "/>
<path style=" stroke:none;fill-rule:nonzero;fill:rgb(100%,100%,100%);fill-opacity:1;" d="M 14.9375 7.386719 L 16.5 7.386719 L 13.082031 11.292969 L 17.105469 16.613281 L 13.953125 16.613281 L 11.488281 13.386719 L 8.664062 16.613281 L 7.097656 16.613281 L 10.753906 12.433594 L 6.894531 7.386719 L 10.125 7.386719 L 12.355469 10.335938 Z M 14.386719 15.675781 L 15.253906 15.675781 L 9.652344 8.273438 L 8.722656 8.273438 Z M 14.386719 15.675781 "/>
</g>
</svg>
