<svg width="24" height="24" viewBox="0 0 24 24" xmlns="http://www.w3.org/2000/svg">
    <path d="M22.162 5.656a8.383 8.383 0 01-2.402.658A4.196 4.196 0 0021.6 4c-.82.488-1.719.83-2.656 1.015a4.182 4.182 0 00-7.126 3.814 11.874 11.874 0 01-8.62-4.37 4.168 4.168 0 00-.566 2.103c0 1.45.738 2.731 1.86 3.481a4.168 4.168 0 01-1.894-.523v.052a4.185 4.185 0 003.355 4.101 4.211 4.211 0 01-1.89.072A4.185 4.185 0 007.97 16.65a8.395 8.395 0 01-6.191 1.732 11.83 11.83 0 006.41 1.88c7.693 0 11.9-6.373 11.9-11.9 0-.18-.005-.362-.013-.54a8.495 8.495 0 002.087-2.165l-.001-.001z" fill="#65bbf2"/>
</svg>
