<svg width="24" height="24" viewBox="0 0 24 24" xmlns="http://www.w3.org/2000/svg">
    <path d="M5.645 8.013c.013-.265-.261-.323-.4-.183-1.16 1.17-1.822 3.865-.344 7.32.294.961 1.938 3.19.84 6.131l-.003.006c-.094.255.206.404.366.263 1.395-1.226 1.933-3.593 1.1-6.375-.488-1.657-1.955-4.226-1.559-7.162zm-3.22 2.738c.05-.137-.124-.417-.326-.225-.939.893-1.316 2.863-.976 4.605.547 2.878 2.374 3.526 2.066 6.629-.028.102.176.38.348.154 1.546-2.033.409-4.453-.241-6.006-1.005-2.386-1.087-4.118-.871-5.157zM22.2 3.543l-8.579 3.68c-.332-.343-.615-.63-.76-.773-.527-.517.313-4.224-.409-4.439-.933-.277-5.042 4.624-4.696 7.953.224 2.735 2.193 4.89 1.72 8.412 3.446-.644 4.841 1.697 5.83 2.45 1.752 1.335 5.155-.551 3.807-3.582-.193-.435-2.05-4.732-2.931-6.775l6.619-5.94c.486-.44-.003-1.242-.601-.986zm-9.418 9.535a.828.828 0 01-.74-.9.825.825 0 01.81-.76c.479 0 .85.42.81.903a.824.824 0 01-.88.757z"/>
</svg>
