<svg xmlns="http://www.w3.org/2000/svg" viewBox="0 0 477.869 477.869">
    <path d="M387.415 233.496c48.976-44.03 52.987-119.424 8.958-168.4C355.99 20.177 288.4 12.546 239.02 47.332c-53.83-38-128.264-25.15-166.254 28.68-34.86 49.393-27.26 117.054 17.69 157.483C34.606 262.935-.25 320.976.002 384.108v51.2a17.07 17.07 0 0017.067 17.067h443.733a17.07 17.07 0 0017.067-17.067v-51.2c.252-63.132-34.605-121.173-90.454-150.612zM307.2 59.842c47.062-.052 85.256 38.057 85.31 85.12.037 33.564-19.63 64.023-50.237 77.8-1.314.597-2.628 1.143-3.96 1.707a83.66 83.66 0 01-12.988 4.045c-.853.188-1.707.3-2.577.46a85.369 85.369 0 01-15.02 1.52c-2.27 0-4.557-.17-6.827-.375-.853 0-1.707 0-2.56-.17a86.22 86.22 0 01-27.904-8.226c-.324-.154-.7-.137-1.024-.273-1.707-.82-3.413-1.536-4.932-2.458.137-.17.222-.358.358-.53a119.72 119.72 0 0018.278-33.297l.53-1.434a120.38 120.38 0 004.523-17.562c.154-.87.273-1.707.4-2.645.987-6.067 1.506-12.2 1.553-18.347a120.04 120.04 0 00-1.553-18.313l-.4-2.645a120.381 120.381 0 00-4.523-17.562l-.53-1.434a119.775 119.775 0 00-18.278-33.297c-.137-.17-.222-.358-.358-.53A84.81 84.81 0 01307.2 59.842zM85.335 145.176c-.12-47.006 37.886-85.2 84.892-85.33a85.11 85.11 0 0159.134 23.686l2.918 2.9a87.75 87.75 0 018.09 9.813c.75 1.058 1.434 2.185 2.133 3.277a83.95 83.95 0 016.263 11.52c.427.973.75 1.963 1.126 2.935a83.42 83.42 0 014.233 13.653c.12.512.154 1.024.256 1.553a80.34 80.34 0 010 32.119c-.102.53-.137 1.04-.256 1.553a83.23 83.23 0 01-4.233 13.653c-.375.973-.7 1.963-1.126 2.935a84.25 84.25 0 01-6.263 11.503c-.7 1.092-1.382 2.22-2.133 3.277a87.55 87.55 0 01-8.09 9.813 117.37 117.37 0 01-2.918 2.901 85.03 85.03 0 01-23.57 15.906 49.35 49.35 0 01-4.198 1.707 85.84 85.84 0 01-12.663 3.925c-1.075.24-2.185.375-3.277.563a84.67 84.67 0 01-14.046 1.417h-1.877a84.563 84.563 0 01-14.046-1.417c-1.092-.188-2.202-.324-3.277-.563a85.8 85.8 0 01-12.663-3.925l-4.198-1.707c-30.534-13.786-50.173-44.166-50.212-77.667zM307.2 418.242H34.135V384.11c-.25-57.833 36.188-109.468 90.76-128.614a119.092 119.092 0 0091.546 0 137.14 137.14 0 0116.623 7.356c3.55 1.826 6.827 3.908 10.24 6.007 2.22 1.382 4.47 2.73 6.605 4.25 3.294 2.338 6.4 4.88 9.455 7.492l5.75 5.12c2.816 2.662 5.46 5.478 8.004 8.363 1.826 2.082 3.6 4.198 5.29 6.383 2.236 2.867 4.37 5.803 6.35 8.823 1.707 2.56 3.226 5.222 4.727 7.885 1.707 2.935 3.277 5.87 4.7 8.926s2.697 6.4 3.925 9.66c1.075 2.833 2.22 5.65 3.106 8.533 1.195 3.96 2.03 8.055 2.867 12.15.512 2.423 1.178 4.796 1.553 7.253 1.01 6.757 1.53 13.58 1.553 20.412v34.133zm136.534 0h-102.4V384.11c0-5.342-.307-10.633-.785-15.872-.137-1.536-.375-3.055-.546-4.59-.46-3.772-1-7.51-1.707-11.213l-.973-4.762c-.82-3.8-1.77-7.566-2.85-11.298l-1.058-3.686a169.138 169.138 0 00-20.565-43.127l-.666-.973a168.96 168.96 0 00-9.404-12.646l-.12-.154a154.895 154.895 0 00-11.008-12.237h.7a120.8 120.8 0 0014.524 1.024h.94c4.496-.04 8.985-.33 13.45-.87 1.4-.17 2.782-.427 4.18-.65a117.43 117.43 0 0010.752-2.167l3.055-.785a116.21 116.21 0 0013.653-4.642c54.612 19.127 91.083 70.785 90.83 128.65v34.132z"/>
</svg>
