<?xml version="1.0" encoding="iso-8859-1"?>
<!-- Generator: Adobe Illustrator 19.1.0, SVG Export Plug-In . SVG Version: 6.00 Build 0)  -->
<svg version="1.1" xmlns="http://www.w3.org/2000/svg" xmlns:xlink="http://www.w3.org/1999/xlink" x="0px" y="0px"
	 viewBox="0 0 491.858 491.858" style="enable-background:new 0 0 491.858 491.858;" xml:space="preserve" fill="white">
<g>
	<g>
		<g>
			<path d="M357.714,423.331c0,9.328-10.676,16.891-23.847,16.891H23.847C10.676,440.222,0,432.659,0,423.331V203.735
				c0-9.33,10.676-16.892,23.847-16.892h310.02c13.171,0,23.847,7.564,23.847,16.892V423.331L357.714,423.331z"  fill="white" fill-opacity="1.0" />
			<circle cx="89.428" cy="118.706" r="59.619"  fill="white" fill-opacity="1.0" />
			<circle cx="253.381" cy="103.801" r="74.524"  fill="white" fill-opacity="1.0" />
			<path d="M491.858,447.677c0,0-1.986,14.904-15.899,14.904c-13.912,0-103.34-83.42-103.34-94.397V258.882
				c0-10.976,87.443-94.398,103.34-94.398c15.899,0,15.899,14.905,15.899,14.905V447.677z"  fill-opacity="1.0"  fill="white"/>
		</g>
	</g>
</g>
</svg>
