<svg xmlns="http://www.w3.org/2000/svg" width="512" height="512" viewBox="0 0 41.169 41.169"><g fill="#00c673"><path d="M19.814 22.442c-.344 0-.676-.14-.918-.39-.28-.29-.41-.696-.342-1.097l.6-3.612c.044-.262.17-.505.357-.693L35.79.374c.498-.5 1.307-.5 1.805 0l3.115 3.116c.24.24.374.563.374.903 0 .34-.134.663-.374.903L24.433 21.57c-.197.2-.457.327-.732.364l-3.715.497c-.06.008-.115.012-.17.012zm1.792-4.276l-.25 1.505 1.576-.21 15.07-15.067-1.312-1.31-15.084 15.083z"/><path d="M35.84 37.338H3.917V5.415H25.84l3.83-3.83H2.002c-.51 0-.995.2-1.354.56-.358.36-.56.848-.56 1.355v35.753c0 .53.213 1.008.56 1.354.347.347.826.562 1.354.562h35.754c.508 0 .996-.203 1.354-.563s.562-.848.562-1.354V11.666l-3.83 3.83-.002 21.842z"/></g></svg>