<svg width="24" height="24" viewBox="0 0 24 24" fill="none" xmlns="http://www.w3.org/2000/svg">
    <path d="M13.178 11.2a1.125 1.125 0 1 1 0-2.25 1.125 1.125 0 0 1 0 2.25Z" fill="url(#a)"/>
    <path d="M17.518 17.126c-.07.384.106.737.391.788.286.052.574-.216.644-.6.07-.385-.106-.738-.391-.79-.286-.052-.574.217-.644.602Z" fill="url(#b)"/>
    <path fill-rule="evenodd" clip-rule="evenodd" d="m18.394 14.92-.214-.461c-1.296.094-2.863.67-3.127 1.992-.112.557-.469 1.028-.924 1.413.028.06.053.117.078.174.113.256.218.492.5.788 1.334 1.4 3.325.74 4.093-.619.62-1.098.196-2.003-.406-3.288Zm-.485 2.996c-.285-.052-.46-.405-.39-.789.069-.385.357-.653.643-.602.285.052.46.405.391.79-.07.383-.358.652-.644.6Z" fill="url(#c)"/>
    <path fill-rule="evenodd" clip-rule="evenodd" d="m14.475 6.186.002.001c-.298.265-.288.796.038 1.213.322.412.825.556 1.155.345l-.005.01.027-.023a.112.112 0 0 1 .01-.006.081.081 0 0 0 .014-.008.022.022 0 0 0 .006-.007.027.027 0 0 1 .005-.007l.316-.256.006-.003c.178.195.335.395.46.598h.002c.648 1.22.82 2.491.98 3.66.12.893.234 1.727.545 2.433a37.68 37.68 0 0 0 .144.322c-1.296.094-2.863.67-3.127 1.991-.112.558-.469 1.029-.924 1.414-.17-.364-.433-.795-1.25-1.49-1.588-.317-2.563-1.045-2.563-2.552 0 0-.464-.223-1.065 3.505-.156.965-.098 1.93-.036 2.934l.017.294c.063 1.057-.796 1.895-1.855 1.895H3.521a1.969 1.969 0 0 1-1.969-1.969v-7.45 3.902c.464-1.023 1-2.468 1.464-3.714.371-.998.694-1.868.894-2.29 1.643-3.476 4.557-6.5 9.001-5.482a7.492 7.492 0 0 1 1.565.739Zm-1.297 5.012a1.125 1.125 0 1 1 0-2.25 1.125 1.125 0 0 1 0 2.25Z" fill="url(#d)"/>
    <path d="m16.686 4.673.034-.064.031-.057c.422-.782-.161-.511-.532-.255-.178.124-.855.382-1.522.621.24.148.49.35.75.57.35-.237.775-.516 1.239-.815Z" fill="url(#e)"/>
    <path d="M13.878 3.958c.292-.127.524-.227.63-.374.678-.928.487.27.415.617a3.887 3.887 0 0 1-.225.717 5.45 5.45 0 0 1-.597 1.05 7.02 7.02 0 0 0-1.19-.522 8.125 8.125 0 0 0-.804-.143c.534-.81 1.249-1.12 1.771-1.345Z" fill="url(#f)"/>
    <path d="M16.049 7.444c.178.195.335.396.46.599 0 0 1.298.328 1.971-.786.067-.11-.043-.236-.17-.222-.458.052-.9-.097-1.322-.344-.5.406-.852.687-.94.753Z" fill="url(#g)"/>
    <path d="M15.447 5.487c-.469.316-.805.554-.93.66-.003.003-.006.004-.01.006l-.009.005-.005.007c-.002.003-.003.006-.006.008l-.009.008-.002.003a8.712 8.712 0 0 0-.375-.217 5.44 5.44 0 0 0 .596-1.049c.24.147.49.349.75.57Z" fill="url(#h)"/>
    <path d="M13.263 4.25a3.192 3.192 0 0 0-1.156 1.053c-3.995-.5-6.655 2.363-8.197 5.625-.2.422-.523 1.292-.894 2.29-.463 1.245-1 2.69-1.463 3.714V9.779c0-1.26.24-2.596 1.032-3.577a5.7 5.7 0 0 1 .96-.933c.117-.09.282.035.244.178-.213.786-.317 1.869-.195 2.64.087-2.288 1.86-3.839 2.552-4.196 1.208-.623 2.4-.58 3.715-.471.113.01.184.142.146.25-.06.171-.11.413-.081.673.28-.51.935-.828 1.36-.741.77.156 1.45.38 1.977.648Z" fill="url(#i)"/>
    <path d="M13.646 5.738c.152-.238.27-.483.37-.693.118-.247.214-.446.316-.532.202-.168-.068-.17-.068-.17-.44.265-.972.662-1.278 1.129.21.07.432.16.66.266Z" fill="url(#j)"/>
    <path d="M14.475 6.187h.002c-.298.266-.288.796.038 1.213.322.412.825.556 1.155.346l-.005.01.027-.023a.115.115 0 0 1 .01-.006.081.081 0 0 0 .014-.008.022.022 0 0 0 .006-.007.027.027 0 0 1 .005-.007l.316-.256.006-.004c.11-.084.654-.517 1.38-1.113a2.647 2.647 0 0 1-.634-.613 2.576 2.576 0 0 1-.428-.838l.528-.342c.014.173.1.473.368.831.24.323.479.494.642.57.35-.29.728-.605 1.11-.929a2.775 2.775 0 0 1-.518-.531 2.71 2.71 0 0 1-.385-.707c.17-.106.34-.21.511-.314.044.174.144.408.342.672.18.243.357.397.503.492.36-.309.717-.62 1.05-.92a2.92 2.92 0 0 1-.694-.942l-.005-.014c.176-.101.347-.199.512-.291l.01.027.014.037a2.386 2.386 0 0 0 .566.764l.017.014a.21.21 0 0 1 .015.011c.952-.877 1.619-1.586 1.472-1.733-.417-.416-7.235 4.002-7.909 4.573l-.008.005-.01.006-.005.007-.006.007-.009.008-.003.005Z" fill="url(#k)"/>
    <path d="m19.824 2.761-.005-.014c.176-.102.347-.2.512-.292.01.022.013.04.024.064a2.357 2.357 0 0 0 .566.765l.033.025-.435.394a2.92 2.92 0 0 1-.695-.942ZM18.497 4.48a2.71 2.71 0 0 1-.385-.707l.511-.314c.044.174.144.408.342.672.18.244.358.398.504.493l-.454.388a2.775 2.775 0 0 1-.518-.532Zm-1.702 1.24a2.576 2.576 0 0 1-.428-.838l.528-.342c.014.172.1.472.368.831.24.323.48.494.642.57l-.475.392a2.646 2.646 0 0 1-.635-.613Z" fill="#EF5E3E"/>
    <defs>
        <linearGradient id="a" x1="13.178" y1="8.949" x2="13.178" y2="11.199" gradientUnits="userSpaceOnUse">
            <stop stop-color="#3A6481"/>
            <stop offset="1" stop-color="#1E445E"/>
        </linearGradient>
        <linearGradient id="b" x1="18.036" y1="16.518" x2="18.036" y2="17.921" gradientUnits="userSpaceOnUse">
            <stop stop-color="#061722"/>
            <stop offset="1" stop-color="#051622"/>
        </linearGradient>
        <linearGradient id="c" x1="16.617" y1="14.459" x2="16.617" y2="19.605" gradientUnits="userSpaceOnUse">
            <stop stop-color="#4F46E5"/>
            <stop offset="1" stop-color="#60379A"/>
        </linearGradient>
        <linearGradient id="d" x1="10.329" y1="4.035" x2="10.329" y2="22.449" gradientUnits="userSpaceOnUse">
            <stop stop-color="#E3F3FF"/>
            <stop offset="1" stop-color="#749CC4"/>
        </linearGradient>
        <linearGradient id="e" x1="10.329" y1="4.035" x2="10.329" y2="22.449" gradientUnits="userSpaceOnUse">
            <stop stop-color="#E3F3FF"/>
            <stop offset="1" stop-color="#749CC4"/>
        </linearGradient>
        <linearGradient id="f" x1="13.322" y1="3.238" x2="13.322" y2="7.148" gradientUnits="userSpaceOnUse">
            <stop stop-color="#DBEBF7"/>
            <stop offset="1" stop-color="#9AB5C8"/>
        </linearGradient>
        <linearGradient id="g" x1="10.09" y1="3.355" x2="10.09" y2="16.931" gradientUnits="userSpaceOnUse">
            <stop stop-color="#4F46E5"/>
            <stop offset="1" stop-color="#60379A"/>
        </linearGradient>
        <linearGradient id="h" x1="10.09" y1="3.355" x2="10.09" y2="16.931" gradientUnits="userSpaceOnUse">
            <stop stop-color="#4F46E5"/>
            <stop offset="1" stop-color="#60379A"/>
        </linearGradient>
        <linearGradient id="i" x1="10.09" y1="3.355" x2="10.09" y2="16.932" gradientUnits="userSpaceOnUse">
            <stop stop-color="#4F46E5"/>
            <stop offset="1" stop-color="#60379A"/>
        </linearGradient>
        <linearGradient id="j" x1="13.581" y1="4.344" x2="13.581" y2="6.288" gradientUnits="userSpaceOnUse">
            <stop stop-color="#3A6481"/>
            <stop offset="1" stop-color="#1E445E"/>
        </linearGradient>
        <linearGradient id="k" x1="18.353" y1="1.549" x2="18.353" y2="7.842" gradientUnits="userSpaceOnUse">
            <stop stop-color="#FFA271"/>
            <stop offset="1" stop-color="#F36C24"/>
        </linearGradient>
    </defs>
</svg>
