<svg id="310c3e5b-d44f-464b-a9f2-e9edade79978" data-name="Layer 1" xmlns="http://www.w3.org/2000/svg" xmlns:xlink="http://www.w3.org/1999/xlink" width="1140.21" height="776" viewBox="0 0 1140.21 776"><defs><linearGradient id="1dd6dc0b-ad1e-451b-b90e-ab2e972949f2" x1="623.53" y1="767.89" x2="623.53" y2="127.97" gradientUnits="userSpaceOnUse"><stop offset="0" stop-color="gray" stop-opacity="0.25"/><stop offset="0.54" stop-color="gray" stop-opacity="0.12"/><stop offset="1" stop-color="gray" stop-opacity="0.1"/></linearGradient></defs><title>podcast</title><path d="M498.49,826.57c77.07-42.65,165.11-56.28,251.15-38,121.92,25.92,275.15,15.76,304.83-184.21,50.69-341.52-161.73-431.66-161.73-431.66s-141.26-11.83-224.79-56.87c-118.65-64-254.27-72.15-373.52-18-76.26,34.6-139.06,82.78-149.79,148.93-30,185,19.27,286.93-72.9,347.32S58.34,820.27,129,814.53s230.33-68.71,292.55,4.23C443.65,844.63,471.61,841.45,498.49,826.57Z" transform="translate(-29.89 -62)" fill="#6c63ff" opacity="0.1"/><rect x="516.27" y="150.21" width="318" height="22" fill="#6c63ff" opacity="0.1"/><rect x="516.27" y="245.21" width="318" height="22" fill="#6c63ff" opacity="0.1"/><rect x="516.27" y="344.21" width="318" height="22" fill="#6c63ff" opacity="0.1"/><rect x="544.27" y="93.21" width="20" height="57" fill="#6c63ff" opacity="0.1"/><rect x="544.27" y="102.21" width="20" height="4" fill="#6c63ff" opacity="0.1"/><rect x="544.27" y="133.21" width="20" height="4" fill="#6c63ff" opacity="0.1"/><rect x="574.27" y="93.21" width="20" height="57" fill="#6c63ff" opacity="0.1"/><rect x="574.27" y="102.21" width="20" height="4" fill="#6c63ff" opacity="0.1"/><rect x="574.27" y="133.21" width="20" height="4" fill="#6c63ff" opacity="0.1"/><rect x="604.27" y="93.21" width="20" height="57" fill="#6c63ff" opacity="0.1"/><rect x="604.27" y="102.21" width="20" height="4" fill="#6c63ff" opacity="0.1"/><rect x="604.27" y="133.21" width="20" height="4" fill="#6c63ff" opacity="0.1"/><rect x="634.27" y="93.21" width="20" height="57" fill="#6c63ff" opacity="0.1"/><rect x="634.27" y="102.21" width="20" height="4" fill="#6c63ff" opacity="0.1"/><rect x="634.27" y="133.21" width="20" height="4" fill="#6c63ff" opacity="0.1"/><rect x="664.27" y="93.21" width="20" height="57" fill="#6c63ff" opacity="0.1"/><rect x="664.27" y="102.21" width="20" height="4" fill="#6c63ff" opacity="0.1"/><rect x="664.27" y="133.21" width="20" height="4" fill="#6c63ff" opacity="0.1"/><rect x="694.27" y="93.21" width="20" height="57" fill="#6c63ff" opacity="0.1"/><rect x="694.27" y="102.21" width="20" height="4" fill="#6c63ff" opacity="0.1"/><rect x="694.27" y="133.21" width="20" height="4" fill="#6c63ff" opacity="0.1"/><rect x="724.27" y="93.21" width="20" height="57" fill="#6c63ff" opacity="0.1"/><rect x="724.27" y="102.21" width="20" height="4" fill="#6c63ff" opacity="0.1"/><rect x="724.27" y="133.21" width="20" height="4" fill="#6c63ff" opacity="0.1"/><rect x="756.16" y="349.21" width="20" height="57" transform="translate(-117.92 321.44) rotate(-26.63)" fill="#6c63ff" opacity="0.1"/><rect x="748.32" y="360.07" width="20" height="4" transform="translate(-111.74 316.27) rotate(-26.63)" fill="#6c63ff" opacity="0.1"/><rect x="762.21" y="387.78" width="20" height="4" transform="translate(-122.69 325.44) rotate(-26.63)" fill="#6c63ff" opacity="0.1"/><rect x="544.27" y="189.21" width="20" height="57" fill="#6c63ff" opacity="0.1"/><rect x="544.27" y="198.21" width="20" height="4" fill="#6c63ff" opacity="0.1"/><rect x="544.27" y="229.21" width="20" height="4" fill="#6c63ff" opacity="0.1"/><rect x="574.27" y="189.21" width="20" height="57" fill="#6c63ff" opacity="0.1"/><rect x="574.27" y="198.21" width="20" height="4" fill="#6c63ff" opacity="0.1"/><rect x="574.27" y="229.21" width="20" height="4" fill="#6c63ff" opacity="0.1"/><rect x="604.27" y="189.21" width="20" height="57" fill="#6c63ff" opacity="0.1"/><rect x="604.27" y="198.21" width="20" height="4" fill="#6c63ff" opacity="0.1"/><rect x="604.27" y="229.21" width="20" height="4" fill="#6c63ff" opacity="0.1"/><rect x="729.27" y="189.21" width="20" height="57" fill="#6c63ff" opacity="0.1"/><rect x="729.27" y="198.21" width="20" height="4" fill="#6c63ff" opacity="0.1"/><rect x="729.27" y="229.21" width="20" height="4" fill="#6c63ff" opacity="0.1"/><rect x="759.27" y="189.21" width="20" height="57" fill="#6c63ff" opacity="0.1"/><rect x="759.27" y="198.21" width="20" height="4" fill="#6c63ff" opacity="0.1"/><rect x="759.27" y="229.21" width="20" height="4" fill="#6c63ff" opacity="0.1"/><rect x="789.27" y="189.21" width="20" height="57" fill="#6c63ff" opacity="0.1"/><rect x="789.27" y="198.21" width="20" height="4" fill="#6c63ff" opacity="0.1"/><rect x="789.27" y="229.21" width="20" height="4" fill="#6c63ff" opacity="0.1"/><rect x="544.27" y="287.21" width="20" height="57" fill="#6c63ff" opacity="0.1"/><rect x="544.27" y="296.21" width="20" height="4" fill="#6c63ff" opacity="0.1"/><rect x="544.27" y="327.21" width="20" height="4" fill="#6c63ff" opacity="0.1"/><rect x="574.27" y="287.21" width="20" height="57" fill="#6c63ff" opacity="0.1"/><rect x="574.27" y="296.21" width="20" height="4" fill="#6c63ff" opacity="0.1"/><rect x="574.27" y="327.21" width="20" height="4" fill="#6c63ff" opacity="0.1"/><rect x="604.27" y="287.21" width="20" height="57" fill="#6c63ff" opacity="0.1"/><rect x="604.27" y="296.21" width="20" height="4" fill="#6c63ff" opacity="0.1"/><rect x="604.27" y="327.21" width="20" height="4" fill="#6c63ff" opacity="0.1"/><rect x="634.27" y="287.21" width="20" height="57" fill="#6c63ff" opacity="0.1"/><rect x="634.27" y="296.21" width="20" height="4" fill="#6c63ff" opacity="0.1"/><rect x="634.27" y="327.21" width="20" height="4" fill="#6c63ff" opacity="0.1"/><rect x="664.27" y="287.21" width="20" height="57" fill="#6c63ff" opacity="0.1"/><rect x="664.27" y="296.21" width="20" height="4" fill="#6c63ff" opacity="0.1"/><rect x="664.27" y="327.21" width="20" height="4" fill="#6c63ff" opacity="0.1"/><rect x="694.27" y="287.21" width="20" height="57" fill="#6c63ff" opacity="0.1"/><rect x="694.27" y="296.21" width="20" height="4" fill="#6c63ff" opacity="0.1"/><rect x="694.27" y="327.21" width="20" height="4" fill="#6c63ff" opacity="0.1"/><path d="M804.16,160.29v51.92h-20V156.48Q794.2,158.25,804.16,160.29Z" transform="translate(-29.89 -62)" fill="#6c63ff" opacity="0.1"/><rect x="754.27" y="102.21" width="20" height="4" fill="#6c63ff" opacity="0.1"/><rect x="754.27" y="133.21" width="20" height="4" fill="#6c63ff" opacity="0.1"/><path d="M834.16,167.23v45h-20V162.43c2.6.57,5.19,1.17,7.78,1.78Q828.08,165.65,834.16,167.23Z" transform="translate(-29.89 -62)" fill="#6c63ff" opacity="0.1"/><path d="M834.16,167.23v1h-20v-4h7.78Q828.08,165.65,834.16,167.23Z" transform="translate(-29.89 -62)" fill="#6c63ff" opacity="0.1"/><rect x="784.27" y="133.21" width="20" height="4" fill="#6c63ff" opacity="0.1"/><g opacity="0.1"><path d="M694.55,287.49s-6.06-2.06-9,3.29a9.75,9.75,0,0,0,.13,9.38c1.92,3.46,5.87,8,13.35,7.56,6.35-.34,8.46-5.18,9-9.69a10,10,0,0,0-13.22-10.66Z" transform="translate(-29.89 -62)" fill="#6c63ff"/><path d="M687,300.65a9.75,9.75,0,0,1-.13-9.38c2.92-5.34,9-3.29,9-3.29l.31-.11a9.87,9.87,0,0,1,7.13.16,9.87,9.87,0,0,0-8.41-.8l-.31.11s-6.06-2.06-9,3.29a9.75,9.75,0,0,0,.13,9.38,14.57,14.57,0,0,0,6.86,6.49A15,15,0,0,1,687,300.65Z" transform="translate(-29.89 -62)" fill="#6c63ff" opacity="0.1"/><path d="M691.42,290.06s2.25,1.77,7.71,0" transform="translate(-29.89 -62)" fill="#6c63ff" opacity="0.2"/><path d="M690.93,277.21s3.85,10.44,3.53,13.17l3.05-.32s-5.14-9.15-3.85-12.85Z" transform="translate(-29.89 -62)" fill="#6c63ff"/><path d="M690.93,277.21s3.85,10.44,3.53,13.17l3.05-.32s-5.14-9.15-3.85-12.85Z" transform="translate(-29.89 -62)" fill="#6c63ff" opacity="0.2"/><path d="M706.67,278.09s-6.07-3.1-8.78-.54-3.13,9.11-3.13,9.11S704.65,288,706.67,278.09Z" transform="translate(-29.89 -62)" fill="#6c63ff"/><path d="M706.67,278.09s-6.07-3.1-8.78-.54-3.13,9.11-3.13,9.11S704.65,288,706.67,278.09Z" transform="translate(-29.89 -62)" fill="#6c63ff" opacity="0.1"/><path d="M694.75,286.66s1.59-7.6,11.91-8.58" transform="translate(-29.89 -62)" fill="#6c63ff"/></g><g opacity="0.1"><path d="M822.55,386.49s-6.06-2.06-9,3.29a9.75,9.75,0,0,0,.13,9.38c1.92,3.46,5.87,8,13.35,7.56,6.35-.34,8.46-5.18,9-9.69a10,10,0,0,0-13.22-10.66Z" transform="translate(-29.89 -62)" fill="#6c63ff"/><path d="M815,399.65a9.75,9.75,0,0,1-.13-9.38c2.92-5.34,9-3.29,9-3.29l.31-.11a9.87,9.87,0,0,1,7.13.16,9.87,9.87,0,0,0-8.41-.8l-.31.11s-6.06-2.06-9,3.29a9.75,9.75,0,0,0,.13,9.38,14.57,14.57,0,0,0,6.86,6.49A15,15,0,0,1,815,399.65Z" transform="translate(-29.89 -62)" fill="#6c63ff" opacity="0.1"/><path d="M819.42,389.06s2.25,1.77,7.71,0" transform="translate(-29.89 -62)" fill="#6c63ff" opacity="0.2"/><path d="M818.93,376.21s3.85,10.44,3.53,13.17l3.05-.32s-5.14-9.15-3.85-12.85Z" transform="translate(-29.89 -62)" fill="#6c63ff"/><path d="M818.93,376.21s3.85,10.44,3.53,13.17l3.05-.32s-5.14-9.15-3.85-12.85Z" transform="translate(-29.89 -62)" fill="#6c63ff" opacity="0.2"/><path d="M834.67,377.09s-6.07-3.1-8.78-.54-3.13,9.11-3.13,9.11S832.65,387,834.67,377.09Z" transform="translate(-29.89 -62)" fill="#6c63ff"/><path d="M834.67,377.09s-6.07-3.1-8.78-.54-3.13,9.11-3.13,9.11S832.65,387,834.67,377.09Z" transform="translate(-29.89 -62)" fill="#6c63ff" opacity="0.1"/><path d="M822.75,385.66s1.59-7.6,11.91-8.58" transform="translate(-29.89 -62)" fill="#6c63ff"/></g><ellipse cx="995.02" cy="610.84" rx="54" ry="19.2" opacity="0.1"/><path d="M1024.95,673s30.81-104.59-5.78-181.58c-15.35-32.31-20.45-68.58-13.36-103.64a277.84,277.84,0,0,1,14.67-48.65" transform="translate(-29.89 -62)" fill="none" stroke="#535461" stroke-miterlimit="10" stroke-width="2"/><path d="M997.72,290.47c0,12.82,23.21,50,23.21,50s23.21-37.17,23.21-50a23.21,23.21,0,1,0-46.42,0Z" transform="translate(-29.89 -62)" fill="#6c63ff"/><path d="M959.35,361.47c7,10.76,46.65,29.35,46.65,29.35s-.72-43.82-7.69-54.58a23.21,23.21,0,1,0-39,25.23Z" transform="translate(-29.89 -62)" fill="#6c63ff"/><path d="M961,482.81c11.45,5.77,55.09,1.78,55.09,1.78s-22.74-37.46-34.19-43.23A23.21,23.21,0,1,0,961,482.81Z" transform="translate(-29.89 -62)" fill="#6c63ff"/><path d="M983,574.33c10.31,7.62,54,11.07,54,11.07s-16.08-40.77-26.39-48.39A23.21,23.21,0,1,0,983,574.33Z" transform="translate(-29.89 -62)" fill="#6c63ff"/><path d="M1054.74,393.3c-9.19,8.93-52,18.18-52,18.18s10.49-42.55,19.68-51.48a23.21,23.21,0,1,1,32.34,33.3Z" transform="translate(-29.89 -62)" fill="#6c63ff"/><path d="M1079,500.66c-11.45,5.77-55.09,1.78-55.09,1.78s22.74-37.46,34.19-43.23a23.21,23.21,0,1,1,20.9,41.45Z" transform="translate(-29.89 -62)" fill="#6c63ff"/><path d="M1088.34,608.25c-10.31,7.62-54,11.07-54,11.07s16.08-40.77,26.39-48.39a23.21,23.21,0,1,1,27.6,37.32Z" transform="translate(-29.89 -62)" fill="#6c63ff"/><ellipse cx="860.62" cy="555.64" rx="54" ry="19.2" opacity="0.1"/><path d="M888.32,620.37s14.43-49-2.71-85.07a77.4,77.4,0,0,1-6.26-48.56,130.18,130.18,0,0,1,6.88-22.79" transform="translate(-29.89 -62)" fill="none" stroke="#535461" stroke-miterlimit="10" stroke-width="2"/><path d="M875.56,441.15c0,6,10.87,23.42,10.87,23.42s10.87-17.42,10.87-23.42a10.87,10.87,0,0,0-21.75,0Z" transform="translate(-29.89 -62)" fill="#6c63ff"/><path d="M857.59,474.41c3.26,5,21.86,13.75,21.86,13.75s-.34-20.53-3.6-25.57a10.87,10.87,0,1,0-18.26,11.82Z" transform="translate(-29.89 -62)" fill="#6c63ff"/><path d="M858.37,531.26c5.36,2.7,25.81.84,25.81.84s-10.65-17.55-16-20.26a10.87,10.87,0,1,0-9.79,19.42Z" transform="translate(-29.89 -62)" fill="#6c63ff"/><path d="M868.65,574.14c4.83,3.57,25.3,5.19,25.3,5.19s-7.54-19.1-12.36-22.67a10.87,10.87,0,1,0-12.93,17.49Z" transform="translate(-29.89 -62)" fill="#6c63ff"/><path d="M902.28,489.33c-4.31,4.18-24.38,8.52-24.38,8.52s4.92-19.94,9.22-24.12a10.87,10.87,0,0,1,15.15,15.6Z" transform="translate(-29.89 -62)" fill="#6c63ff"/><path d="M913.67,539.63c-5.36,2.7-25.81.84-25.81.84s10.65-17.55,16-20.26a10.87,10.87,0,0,1,9.79,19.42Z" transform="translate(-29.89 -62)" fill="#6c63ff"/><path d="M918,590c-4.83,3.57-25.3,5.19-25.3,5.19s7.54-19.1,12.36-22.67A10.87,10.87,0,1,1,918,590Z" transform="translate(-29.89 -62)" fill="#6c63ff"/><path d="M1168.22,717.85,858.58,553.6H793.65l16.8-139.84a23.18,23.18,0,0,0-20.71-25.83L788,388l-.17,0-236.21,3.59A25.49,25.49,0,0,0,525,411.22l-11,80.36-1.59-2.43-.77-1.17c5.81-3.78-5.65-26.25-15.36-43l-.88-1.52c6.16-2.57,13-5,13-5L493.25,429s-13.94-20.18-28.78-36.55c10-62.62-11.12-135-11.37-136l-.56.15A29.9,29.9,0,0,0,457,240.8h0a30,30,0,0,0-10.12-22.48c-.59-5.36-1.44-10.88-2.66-16.69h0c-.22-1-.45-2.11-.7-3.17-1.14-5-2.29-10-3.8-14.9a75,75,0,0,0-3.89-10.21c-7.89-16.67-24.12-28.59-41.9-32.79-9.15-2.16-18.53,1.19-27.07-.41-4.3-.79-8.15-4.92-12.34-6.59-5.31-2.12-11.06-3.11-16.68-4-7-1.17-14.27-2.33-21.24-.81-11.5,2.5-20.27,11.82-26.72,21.66s-11.46,20.74-19.43,29.4c-5.33,5.8-11.89,10.46-16.64,16.74-7,9.24-9.43,21-11.68,32.42-2.78,14.05-5.56,28.3-5.5,42.57,0,3.31.05,6.63.34,9.95.73,8.52,2.67,16.92,3.13,25.45,0,.92.07,1.84.09,2.76-.1,15.61-4.71,31-9.29,46-1.46,4.77-2.94,9.58-4.67,14.28-9.2.78-18,2.62-24.71,6.24C177,389.34,158.13,418.6,158.13,418.6l-35.87,33s14.16,6.61,20.77,17.94a8,8,0,0,0,.81,1.13l-.52,1.2-21.06,48.64s13.22,9.44,33,7.55a24.56,24.56,0,0,1,9.6.7c0,.6-.06,1.21-.08,1.85-1.21,27.83-1.85,88.81,12.55,130l-32.54,38-65,19.25-2.83,50H1170.11ZM230.73,531.4a39.82,39.82,0,0,1,8.11,2.58v34.76c-1.72-12.28-4.11-24.86-7.44-35.32C231.19,532.74,231,532.07,230.73,531.4Zm187.69,66.89q0-.18,0-.36a17.74,17.74,0,0,1,.49-3.6,10.18,10.18,0,0,1,2.61-4.86c2.41-2.41,4.9-5,7.39-7.81a36.39,36.39,0,0,0,6.54,10.81c3.2,3.57,10.35,6.78,20.39,9.68A367.91,367.91,0,0,0,418.42,598.29Zm81.61-4.8-32.68,9.67c-15.45-3.46-26.44-7.42-30.51-12A35,35,0,0,1,430.32,580c11.66-13.52,23-31.71,25.6-56.55.07-.65.12-1.32.18-2a65.1,65.1,0,0,0,10-7l.59,1.38a175.9,175.9,0,0,0,36.65,53.58ZM451.59,258.06c2.57,9.27,20,74.9,11.26,132.61-5.44-5.86-10.93-11.1-15.85-14.55a30.78,30.78,0,0,0-3.65-2.17c-1.09-10.58-1.59-21.55-1.67-32.42.1-13.46.9-26.81,2-39.51,1.19-13.46,2.59-26.3,3.46-38.93A30.21,30.21,0,0,0,451.59,258.06Z" transform="translate(-29.89 -62)" fill="url(#1dd6dc0b-ad1e-451b-b90e-ab2e972949f2)"/><path d="M451.68,215.27h8.53a0,0,0,0,1,0,0v59a0,0,0,0,1,0,0h-8.53a24.56,24.56,0,0,1-24.56-24.56v-9.82A24.56,24.56,0,0,1,451.68,215.27Z" transform="translate(857.43 427.49) rotate(-180)" fill="#dfe6f5"/><rect x="419.88" y="215.27" width="14.48" height="58.95" rx="6.03" ry="6.03" transform="translate(824.34 427.49) rotate(-180)" fill="#535461"/><g opacity="0.1"><path d="M451.68,215.27h8.53a0,0,0,0,1,0,0v59a0,0,0,0,1,0,0h-8.53a24.56,24.56,0,0,1-24.56-24.56v-9.82A24.56,24.56,0,0,1,451.68,215.27Z" transform="translate(857.43 427.49) rotate(-180)"/><rect x="419.88" y="215.27" width="14.48" height="58.95" rx="6.03" ry="6.03" transform="translate(824.34 427.49) rotate(-180)"/></g><rect x="260.72" y="184.45" width="149.09" height="154.65" fill="#865a61"/><rect x="260.72" y="163.15" width="149.09" height="154.65" opacity="0.1"/><path d="M434.61,374.71l-9,65.4-4.24,30.74-1.56,11.29-13.07,25.48-24,46.76-46.3,5.56L255,445.09S212.36,363.6,277.19,371c36.35,4.16,45-28.38,45.65-57.77a218.52,218.52,0,0,0-4-44.1l64.82,31.49q-2.26,10.53-3.4,19.35c-3.16,24.06-.54,39.06,4.94,48.15C399.79,392.33,434.61,374.71,434.61,374.71Z" transform="translate(-29.89 -62)" fill="#fdc2cc"/><path d="M383.68,300.63q-2.26,10.53-3.4,19.35a75.41,75.41,0,0,1-20.68,2.88,74.64,74.64,0,0,1-36.76-9.61,218.52,218.52,0,0,0-4-44.1Z" transform="translate(-29.89 -62)" opacity="0.1"/><circle cx="329.71" cy="183.99" r="75.01" fill="#fdc2cc"/><path d="M459.62,672.9,151.24,697l50-58.34c53.65-32.78,53.19-77.84,46.06-105.79a108.76,108.76,0,0,0-9.95-25.71l106.59.5h.9l8.76,19.91.4.9,6.52,14.81,22.22-39.82L390.47,491l4.32-7s63.9-14.82,64.82,23.15a101.5,101.5,0,0,1-.51,13.06c-3.18,30.56-19.9,50.88-33.75,64.73C409.61,600.67,459.62,672.9,459.62,672.9Z" transform="translate(-29.89 -62)" fill="#ec7580"/><path d="M422.79,591.54c-2.26,9,3.44,24.47,11,39.66-36.25,3.9-76,1.87-76,1.87L317,644.19,202.18,677.53c-5-6.47-9-14.6-12.31-23.76l11.38-13.28c35.81-21.88,47.51-49.23,49.22-73.31a103,103,0,0,0-3.16-32.49A108.76,108.76,0,0,0,237.37,509l106.59.5h.9l8.76,19.91.4.9,6.52,14.81,22.22-39.82,7.71-12.46,4.32-7S458.69,471,459.62,509a101.5,101.5,0,0,1-.51,13.06c-3.18,30.56-19.9,50.88-33.75,64.73A10,10,0,0,0,422.79,591.54Z" transform="translate(-29.89 -62)" fill="#ec7580"/><path d="M663.35,639.56c-1.85,22.22-55.56-7.41-55.56-7.41s-16.67-5.56-73.16-41.67a172.48,172.48,0,0,1-65-75.89,109,109,0,0,1-5.41-14.86L503.14,471l11.35,17.35L552.22,546l55.56,37S665.2,617.34,663.35,639.56Z" transform="translate(-29.89 -62)" fill="#fdc2cc"/><polygon points="1127.96 650.72 60.23 650.72 167.12 619.09 434.34 540.01 604.74 489.58 824.22 489.58 1127.96 650.72" fill="#cbcdda"/><polygon points="60.23 650.72 57.45 699.8 1129.81 699.8 1127.96 650.72 60.23 650.72" fill="#cbcdda"/><polygon points="60.23 650.72 57.45 699.8 1129.81 699.8 1127.96 650.72 60.23 650.72" opacity="0.1"/><path d="M370.05,643.31l225.69-23.19,2.78,44.45L495.36,674.8a67.38,67.38,0,0,1-21.22-1.65L369.86,646.21A1.48,1.48,0,0,1,370.05,643.31Z" transform="translate(-29.89 -62)" fill="#535461"/><path d="M370.05,643.31l225.69-23.19,2.78,44.45L495.36,674.8a67.38,67.38,0,0,1-21.22-1.65L369.86,646.21A1.48,1.48,0,0,1,370.05,643.31Z" transform="translate(-29.89 -62)" opacity="0.2"/><path d="M370.05,642.38,597.6,619.19l2.78,44.45L497.21,672A67.38,67.38,0,0,1,476,670.38L369.86,645.29A1.48,1.48,0,0,1,370.05,642.38Z" transform="translate(-29.89 -62)" fill="#535461"/><path d="M424,644l120.32-12.26,1.47,23.5-54.55,4.43a35.63,35.63,0,0,1-11.22-.87l-56.12-13.27A.78.78,0,0,1,424,644Z" transform="translate(-29.89 -62)" fill="#fff" opacity="0.3"/><path d="M514.49,488.37c-.73,1-2,1.45-3.94,1.17-18.52-2.78-39.82,24.08-39.82,24.08s-.38.36-1.07,1a109,109,0,0,1-5.41-14.86L503.14,471Z" transform="translate(-29.89 -62)" opacity="0.1"/><path d="M459.11,522c-8.71,4.85-20.7,8.33-30.05-1-16.15-16.15-44.46-14-46.22-13.9,2.89-.4,5.45-6.34,7.63-14.3l4.32-7S458.69,471,459.62,509A101.5,101.5,0,0,1,459.11,522Z" transform="translate(-29.89 -62)" opacity="0.1"/><path d="M425.59,440.11l-5.8,42-13.07,25.48a79.68,79.68,0,0,0-24.82-2.33c9.21-1.27,15.16-58.82,15.16-58.82l.53-.12Z" transform="translate(-29.89 -62)" opacity="0.1"/><path d="M510.55,487.69c-18.52-2.78-39.82,24.08-39.82,24.08s-25,24.08-41.67,7.41c-16.15-16.15-44.46-14-46.22-13.9C392.05,504,398,446.45,398,446.45l.53-.12,88.87-19.76s5.3,8.12,11.28,18.46C509.47,463.66,522.47,489.48,510.55,487.69Z" transform="translate(-29.89 -62)" fill="#ec7580"/><path d="M488.32,450.65c.93,1.85-14.82,11.11-22.22,8.33s-25.93,12-27.78,13.89-43.52-2.78-43.52-2.78a195.82,195.82,0,0,0,3.73-23.76l88.87-19.76s5.3,8.12,11.28,18.46C493.15,447.3,487.87,449.74,488.32,450.65Z" transform="translate(-29.89 -62)" opacity="0.1"/><path d="M434.61,374.71l-9,65.4-4.24,30.74c-12.42-.93-27.48-2.6-27.48-2.6s15.74-65.75-10.19-100c0,0,.55,0,1.54-.1C399.79,392.33,434.61,374.71,434.61,374.71Z" transform="translate(-29.89 -62)" opacity="0.1"/><path d="M384.61,368.23s47.23-3.7,65.75,9.26,45.38,51.86,45.38,51.86l14.82,9.26s-23.15,8.33-22.22,10.19-14.82,11.11-22.22,8.33-25.93,12-27.78,13.89-43.52-2.78-43.52-2.78S410.54,402.49,384.61,368.23Z" transform="translate(-29.89 -62)" fill="#ec7580"/><path d="M725.83,623.35c-10.72-.26-262.75-6.8-286.81-33.64-25.62-28.58-.75-110.93,20.19-170.39,22.79-64.73-4.38-157.68-4.65-158.74l1.79-.47c.28,1.07,27.59,94.56,4.61,159.82-32.57,92.51-39.3,147.64-20.56,168.54,23.54,26.25,282.86,33,285.48,33Z" transform="translate(-29.89 -62)" fill="#dfe6f5"/><path d="M551.59,392.61l233.14-3.54A22.74,22.74,0,0,1,805,414.41l-26.45,220.2a22.74,22.74,0,0,1-21.21,20L519.05,669.36a22.74,22.74,0,0,1-23.86-26l31.64-231.42A22.74,22.74,0,0,1,551.59,392.61Z" transform="translate(-29.89 -62)" fill="#535461"/><path d="M551.59,392.61l233.14-3.54A22.74,22.74,0,0,1,805,414.41l-26.45,220.2a22.74,22.74,0,0,1-21.21,20L519.05,669.36a22.74,22.74,0,0,1-23.86-26l31.64-231.42A22.74,22.74,0,0,1,551.59,392.61Z" transform="translate(-29.89 -62)" opacity="0.2"/><path d="M553.44,392.61l233.14-3.54a22.74,22.74,0,0,1,20.31,25.34l-26.45,220.2a22.74,22.74,0,0,1-21.21,20L520.91,669.36a22.74,22.74,0,0,1-23.86-26l31.64-231.42A22.74,22.74,0,0,1,553.44,392.61Z" transform="translate(-29.89 -62)" fill="#535461"/><circle cx="637.62" cy="455.78" r="11.11" fill="#fff" opacity="0.3"/><path d="M433.79,631.21c-36.25,3.9-76,1.87-76,1.87L317,644.19,202.18,677.53c-5-6.47-9-14.6-12.31-23.76l11.38-13.28c35.81-21.88,47.51-49.23,49.22-73.31,3.06,23.95,3.57,45.52,3.57,45.52l46.3-4.63,67.27-16a60.74,60.74,0,0,1,14.14-1.65c8.76,0,24.35.19,41,1.09C420.53,600.52,426.23,616,433.79,631.21Z" transform="translate(-29.89 -62)" opacity="0.1"/><path d="M484.62,619.19c-21.3,25-130.57,19.45-130.57,19.45L313.3,649.75,198.47,683.08c-.5-.65-1-1.31-1.46-2L464.24,602C481.3,605.44,491.77,610.8,484.62,619.19Z" transform="translate(-29.89 -62)" opacity="0.1"/><path d="M484.62,617.34c-21.3,25-130.57,19.45-130.57,19.45L313.3,647.89,198.47,681.23c-27-35-26.4-118.41-24.93-152.15.4-9.06.85-14.54.85-14.54s38.89-24.08,56.49,0c3.14,4.29,5.77,10.29,8,17.25,10.21,32.09,11.46,84.61,11.46,84.61l46.3-4.63,67.27-16a60.78,60.78,0,0,1,14.15-1.65C405.94,594.2,502.9,595.88,484.62,617.34Z" transform="translate(-29.89 -62)" fill="#fdc2cc"/><path d="M238.87,531.8c-5.91-1.28-13.08-1-22.8,3.12-19.45,8.33-34.26,6.48-34.26,6.48s1.19-9.45-8.26-12.32c.4-9.06.85-14.54.85-14.54s38.89-24.08,56.49,0C234,518.83,236.65,524.83,238.87,531.8Z" transform="translate(-29.89 -62)" opacity="0.1"/><path d="M354,530.29h0c-.62.13-8.95,1.7-25-1.86-16.67-3.7-23.15,3.7-32.41,7.41S263.3,541.4,254,537.7c-2.19-.88-4.39-2-6.72-3A108.76,108.76,0,0,0,237.37,509l106.59.5,9.66,19.91Z" transform="translate(-29.89 -62)" opacity="0.1"/><path d="M354,528.44s-8.33,1.85-25-1.85-23.15,3.7-32.41,7.41-33.34,5.56-42.6,1.85-18.52-11.11-38-2.78-34.26,6.48-34.26,6.48,1.85-14.82-17.59-13-32.41-7.41-32.41-7.41l20.66-47.72,6.2-14.33L313.53,446.5l.74,0Z" transform="translate(-29.89 -62)" fill="#ec7580"/><path d="M329,484c-10.19-16.67-63.9-1.85-63.9-1.85s-25.93,7.41-31.49-6.48S188.29,471,188.29,471s-28.85,10.82-35.83.44l6.2-14.33L313.53,446.5Z" transform="translate(-29.89 -62)" opacity="0.1"/><path d="M284.59,374.71s-50.93-10.19-75,2.78S167,419.16,167,419.16L131.8,451.57s13.89,6.48,20.37,17.59,36.12,0,36.12,0,39.82-9.26,45.38,4.63,31.49,6.48,31.49,6.48,53.71-14.82,63.9,1.85Z" transform="translate(-29.89 -62)" fill="#ec7580"/><path d="M343.3,137.43c-6.9-1.16-14-2.29-20.84-.8-11.28,2.45-19.88,11.6-26.21,21.24S285,178.21,277.19,186.7c-5.23,5.69-11.66,10.26-16.32,16.42-6.86,9.07-9.25,20.64-11.46,31.8-3.24,16.38-6.49,33-5.06,49.67.72,8.36,2.62,16.59,3.07,25,.91,16.89-4.08,33.47-9,49.65-3.41,11.18-6.93,22.57-13.67,32.12-4.47,6.33-10.2,11.63-15.66,17.12a9.61,9.61,0,0,0-2.87,4.21c-1.18,4.78,4.59,8,9,10.16,13.49,6.73,22.34,19.86,32.83,30.68s25.5,20.11,39.93,15.77c4.28-1.29,8.34-3.74,12.8-3.66,3,.05,5.88,1.27,8.73,2.27a65.53,65.53,0,0,0,22.07,3.7,8.53,8.53,0,0,0,4.79-1c2.23-1.51,2.66-4.55,2.88-7.23,1.41-16.82,2.81-33.7,1.86-50.55-2.15-38.16-37.41-82.3-24-118.11,5.83-15.62,16.49-29.06,22.39-44.65,6.22-16.43,28.15-29.77,32.5-46.8.49-1.92,1.16-4,2.84-5,2.31-1.42,5.32-.18,7.55,1.36,12.62,8.7,16.73,25.06,21.32,39.68a245.14,245.14,0,0,0,13.71,34.34c3,6,9.44,12.95,15.08,9.31-2.84,25.28-19.24,47.36-22.95,72.52-3.62,24.52,5.15,49.58,1.75,74.12a76,76,0,0,1-20.45,42,101.68,101.68,0,0,0,37.83.34c12.69-2.29,26.27-8.3,30.85-20.36,5-13.27-2.73-27.51-6.66-41.15-9.43-32.79-8.7-71.57-5.71-105.56,3.08-34.95,7.7-65.55-.13-99.75-1.92-8.39-3.87-16.85-7.55-24.63-7.74-16.35-23.66-28.05-41.11-32.17-9-2.12-18.18,1.17-26.56-.39-4.22-.79-8-4.83-12.1-6.47C354.45,139.31,348.81,138.35,343.3,137.43Z" transform="translate(-29.89 -62)" opacity="0.1"/><path d="M459.48,449.66c-4.58,12.06-18.16,18.07-30.86,20.36a101.89,101.89,0,0,1-37.83-.34,76.06,76.06,0,0,0,20.45-42c3.41-24.55-5.36-49.61-1.75-74.12,3.71-25.17,20.11-47.25,22.95-72.53-5.64,3.64-12.13-3.28-15.09-9.31a245.69,245.69,0,0,1-13.71-34.34c-4.59-14.62-8.7-31-21.32-39.68-2.23-1.54-5.24-2.78-7.55-1.35-1.69,1-2.35,3.11-2.84,5-4.34,17-26.28,30.36-32.49,46.79-5.91,15.59-16.57,29-22.4,44.65-13.36,35.8,21.9,79.94,24,118.1.94,16.85-.46,33.74-1.86,50.55-.23,2.69-.66,5.73-2.89,7.24a8.51,8.51,0,0,1-4.78,1A65.31,65.31,0,0,1,309.5,466c-2.85-1-5.71-2.22-8.73-2.27-4.46-.07-8.52,2.38-12.8,3.66-14.43,4.34-29.45-4.95-39.93-15.77S228.68,427.69,215.2,421c-4.41-2.2-10.18-5.38-9-10.17a9.68,9.68,0,0,1,2.87-4.2c5.46-5.49,11.2-10.8,15.67-17.12,6.74-9.55,10.25-20.94,13.67-32.12,4.94-16.18,9.93-32.76,9-49.65-.44-8.37-2.34-16.6-3.07-25-1.44-16.64,1.82-33.28,5.06-49.66,2.2-11.16,4.59-22.73,11.46-31.8,4.67-6.16,11.09-10.73,16.33-16.42,7.82-8.49,12.72-19.19,19.06-28.84s14.94-18.79,26.22-21.24c6.83-1.49,13.94-.35,20.84.8,5.51.93,11.15,1.89,16.36,4,4.11,1.64,7.89,5.69,12.1,6.46,8.38,1.57,17.59-1.72,26.56.4,17.45,4.11,33.37,15.81,41.11,32.16a73.61,73.61,0,0,1,3.82,10c1.48,4.8,2.61,9.71,3.73,14.61.24,1,.47,2.08.69,3.11h0c6.85,32.56,2.43,56.27-.56,90.14s-3.72,79.25,5.7,112C456.75,422.14,464.52,436.39,459.48,449.66Z" transform="translate(-29.89 -62)" fill="#865a61"/><path d="M352.66,508.53s7.41,12,7.41,20.37c0,0,5.56-20.37,10.19-20.37" transform="translate(-29.89 -62)" opacity="0.05"/><path d="M335.06,511.3v61.12a44.25,44.25,0,0,1-9.54,27.51,45.65,45.65,0,0,1-3.39,3.82,44.45,44.45,0,0,1-63,0,45.66,45.66,0,0,1-3.39-3.82,44.25,44.25,0,0,1-9.54-27.51V511.3a44.21,44.21,0,0,1,10.27-28.42,42.24,42.24,0,0,1,3.81-4,44.41,44.41,0,0,1,60.75,0c.36.32.71.67,1.06,1,1,1,1.87,2,2.75,3A44.21,44.21,0,0,1,335.06,511.3Z" transform="translate(-29.89 -62)" fill="#dfe6f5"/><path d="M335.06,511.3v61.12a44.25,44.25,0,0,1-9.54,27.51,45.65,45.65,0,0,1-3.39,3.82,44.45,44.45,0,0,1-63,0,45.66,45.66,0,0,1-3.39-3.82,44.25,44.25,0,0,1-9.54-27.51V511.3a44.21,44.21,0,0,1,10.27-28.42,42.24,42.24,0,0,1,3.81-4,44.41,44.41,0,0,1,60.75,0c.36.32.71.67,1.06,1,1,1,1.87,2,2.75,3A44.21,44.21,0,0,1,335.06,511.3Z" transform="translate(-29.89 -62)" opacity="0.1"/><path d="M336.92,511.3v61.12a44.25,44.25,0,0,1-9.54,27.51,45.65,45.65,0,0,1-3.39,3.82,44.45,44.45,0,0,1-63,0,45.66,45.66,0,0,1-3.39-3.82A44.25,44.25,0,0,1,248,572.42V511.3a44.21,44.21,0,0,1,10.27-28.42,42.24,42.24,0,0,1,3.81-4,44.41,44.41,0,0,1,60.75,0c.36.32.71.67,1.06,1,1,1,1.87,2,2.75,3A44.21,44.21,0,0,1,336.92,511.3Z" transform="translate(-29.89 -62)" fill="#dfe6f5"/><circle cx="243.12" cy="418.74" r="2.78" opacity="0.1"/><circle cx="243.12" cy="428" r="2.78" opacity="0.1"/><circle cx="243.12" cy="437.26" r="2.78" opacity="0.1"/><circle cx="243.12" cy="446.52" r="2.78" opacity="0.1"/><circle cx="243.12" cy="455.78" r="2.78" opacity="0.1"/><circle cx="243.12" cy="465.04" r="2.78" opacity="0.1"/><circle cx="243.12" cy="474.3" r="2.78" opacity="0.1"/><circle cx="243.12" cy="483.57" r="2.78" opacity="0.1"/><circle cx="243.12" cy="492.83" r="2.78" opacity="0.1"/><circle cx="243.12" cy="502.09" r="2.78" opacity="0.1"/><circle cx="243.12" cy="511.35" r="2.78" opacity="0.1"/><circle cx="243.12" cy="520.61" r="2.78" opacity="0.1"/><circle cx="243.12" cy="529.87" r="2.78" opacity="0.1"/><circle cx="243.12" cy="539.13" r="2.78" opacity="0.1"/><path d="M262.83,480.74a2.78,2.78,0,0,1-4.55,2.14,42.24,42.24,0,0,1,3.81-4A2.72,2.72,0,0,1,262.83,480.74Z" transform="translate(-29.89 -62)" opacity="0.1"/><circle cx="230.16" cy="428" r="2.78" opacity="0.1"/><circle cx="230.16" cy="437.26" r="2.78" opacity="0.1"/><circle cx="230.16" cy="446.52" r="2.78" opacity="0.1"/><circle cx="230.16" cy="455.78" r="2.78" opacity="0.1"/><circle cx="230.16" cy="465.04" r="2.78" opacity="0.1"/><circle cx="230.16" cy="474.3" r="2.78" opacity="0.1"/><circle cx="230.16" cy="483.57" r="2.78" opacity="0.1"/><circle cx="230.16" cy="492.83" r="2.78" opacity="0.1"/><circle cx="230.16" cy="502.09" r="2.78" opacity="0.1"/><circle cx="230.16" cy="511.35" r="2.78" opacity="0.1"/><circle cx="230.16" cy="520.61" r="2.78" opacity="0.1"/><circle cx="230.16" cy="529.87" r="2.78" opacity="0.1"/><path d="M262.83,601.13a2.77,2.77,0,0,1-1.89,2.63,45.66,45.66,0,0,1-3.39-3.82,2.77,2.77,0,0,1,5.28,1.19Z" transform="translate(-29.89 -62)" opacity="0.1"/><circle cx="256.09" cy="418.74" r="2.78" opacity="0.1"/><circle cx="256.09" cy="428" r="2.78" opacity="0.1"/><circle cx="256.09" cy="437.26" r="2.78" opacity="0.1"/><circle cx="256.09" cy="446.52" r="2.78" opacity="0.1"/><circle cx="256.09" cy="455.78" r="2.78" opacity="0.1"/><circle cx="256.09" cy="465.04" r="2.78" opacity="0.1"/><circle cx="256.09" cy="474.3" r="2.78" opacity="0.1"/><circle cx="256.09" cy="483.57" r="2.78" opacity="0.1"/><circle cx="256.09" cy="492.83" r="2.78" opacity="0.1"/><circle cx="256.09" cy="502.09" r="2.78" opacity="0.1"/><circle cx="256.09" cy="511.35" r="2.78" opacity="0.1"/><circle cx="256.09" cy="520.61" r="2.78" opacity="0.1"/><circle cx="256.09" cy="529.87" r="2.78" opacity="0.1"/><circle cx="256.09" cy="539.13" r="2.78" opacity="0.1"/><circle cx="269.05" cy="418.74" r="2.78" opacity="0.1"/><circle cx="269.05" cy="428" r="2.78" opacity="0.1"/><circle cx="269.05" cy="437.26" r="2.78" opacity="0.1"/><circle cx="269.05" cy="446.52" r="2.78" opacity="0.1"/><circle cx="269.05" cy="455.78" r="2.78" opacity="0.1"/><circle cx="269.05" cy="465.04" r="2.78" opacity="0.1"/><circle cx="269.05" cy="474.3" r="2.78" opacity="0.1"/><circle cx="269.05" cy="483.57" r="2.78" opacity="0.1"/><circle cx="269.05" cy="492.83" r="2.78" opacity="0.1"/><circle cx="269.05" cy="502.09" r="2.78" opacity="0.1"/><circle cx="269.05" cy="511.35" r="2.78" opacity="0.1"/><circle cx="269.05" cy="520.61" r="2.78" opacity="0.1"/><circle cx="269.05" cy="529.87" r="2.78" opacity="0.1"/><circle cx="269.05" cy="539.13" r="2.78" opacity="0.1"/><circle cx="282.02" cy="418.74" r="2.78" opacity="0.1"/><circle cx="282.02" cy="428" r="2.78" opacity="0.1"/><circle cx="282.02" cy="437.26" r="2.78" opacity="0.1"/><circle cx="282.02" cy="446.52" r="2.78" opacity="0.1"/><circle cx="282.02" cy="455.78" r="2.78" opacity="0.1"/><circle cx="282.02" cy="465.04" r="2.78" opacity="0.1"/><circle cx="282.02" cy="474.3" r="2.78" opacity="0.1"/><circle cx="282.02" cy="483.57" r="2.78" opacity="0.1"/><circle cx="282.02" cy="492.83" r="2.78" opacity="0.1"/><circle cx="282.02" cy="502.09" r="2.78" opacity="0.1"/><circle cx="282.02" cy="511.35" r="2.78" opacity="0.1"/><circle cx="282.02" cy="520.61" r="2.78" opacity="0.1"/><circle cx="282.02" cy="529.87" r="2.78" opacity="0.1"/><circle cx="282.02" cy="539.13" r="2.78" opacity="0.1"/><path d="M326.65,482.88a2.78,2.78,0,0,1-4.55-2.14,2.72,2.72,0,0,1,.74-1.88c.36.32.71.67,1.06,1C324.86,480.84,325.77,481.84,326.65,482.88Z" transform="translate(-29.89 -62)" opacity="0.1"/><circle cx="294.98" cy="428" r="2.78" opacity="0.1"/><circle cx="294.98" cy="437.26" r="2.78" opacity="0.1"/><circle cx="294.98" cy="446.52" r="2.78" opacity="0.1"/><circle cx="294.98" cy="455.78" r="2.78" opacity="0.1"/><circle cx="294.98" cy="465.04" r="2.78" opacity="0.1"/><circle cx="294.98" cy="474.3" r="2.78" opacity="0.1"/><circle cx="294.98" cy="483.57" r="2.78" opacity="0.1"/><circle cx="294.98" cy="492.83" r="2.78" opacity="0.1"/><circle cx="294.98" cy="502.09" r="2.78" opacity="0.1"/><circle cx="294.98" cy="511.35" r="2.78" opacity="0.1"/><circle cx="294.98" cy="520.61" r="2.78" opacity="0.1"/><circle cx="294.98" cy="529.87" r="2.78" opacity="0.1"/><path d="M327.38,599.93a45.65,45.65,0,0,1-3.39,3.82,2.78,2.78,0,1,1,3.39-3.82Z" transform="translate(-29.89 -62)" opacity="0.1"/><rect x="254.24" y="505.79" width="12.96" height="124.09" rx="5.4" ry="5.4" fill="#54576b"/><rect x="216.27" y="613.21" width="88.9" height="16.67" rx="6.95" ry="6.95" fill="#54576b"/><rect x="254.24" y="505.79" width="12.96" height="124.09" rx="5.4" ry="5.4" opacity="0.1"/><rect x="216.27" y="613.21" width="88.9" height="16.67" rx="6.95" ry="6.95" opacity="0.1"/><rect x="256.09" y="505.79" width="12.96" height="124.09" rx="5.4" ry="5.4" fill="#54576b"/><rect x="218.12" y="613.21" width="88.9" height="16.67" rx="6.95" ry="6.95" fill="#54576b"/><path d="M369.66,578.29a87,87,0,0,1-158.1,0c-9.21-13.21-17.26-39.55-17.26-36.42a96.31,96.31,0,1,0,192.62,0C386.92,538.74,378.87,565.08,369.66,578.29Z" transform="translate(-29.89 -62)" fill="#54576b"/><path d="M290.61,445.55a96.27,96.27,0,0,0-79.05,41.36,86.53,86.53,0,0,0-8,36.42,87.62,87.62,0,0,0,.49,9.26,87,87,0,0,1,173.11,0,87.6,87.6,0,0,0,.49-9.26,86.53,86.53,0,0,0-8-36.42A96.27,96.27,0,0,0,290.61,445.55Z" transform="translate(-29.89 -62)" fill="#54576b"/><circle cx="262.57" cy="517.83" r="3.7" opacity="0.1"/><circle cx="436.2" cy="608.12" r="1.39" opacity="0.2"/><path d="M413.65,698.08a37.16,37.16,0,0,1-16-3.51c-18.66-8.78-27.86-7.67-41.78-6A196.08,196.08,0,0,1,316.49,690a24.65,24.65,0,0,1-18.7-10c-20.64-26.8-6.83-97.36-6.23-100.35a.93.93,0,0,1,1.82.36c-.14.72-14.25,72.72,5.88,98.85a22.87,22.87,0,0,0,17.35,9.31,194.08,194.08,0,0,0,39-1.43c14.24-1.72,23.65-2.86,42.79,6.15,30.53,14.37,66.31-22.18,66.66-22.55a.93.93,0,0,1,1.33,1.29C466.12,671.95,440.53,698.08,413.65,698.08Z" transform="translate(-29.89 -62)" fill="#dfe6f5"/><path d="M447.67,206.31c-15.29-27.55-46.33-46.44-82-46.44-50.8,0-92.14,38.22-92.14,85.2H267c0-50.55,44.25-91.68,98.62-91.68,31.48,0,59.56,13.78,77.63,35.2,1.48,4.8,2.61,9.71,3.73,14.61C447.23,204.25,447.46,205.28,447.67,206.31Z" transform="translate(-29.89 -62)" fill="#535461"/><path d="M250.89,156h8.53a0,0,0,0,1,0,0v59a0,0,0,0,1,0,0h-8.53a24.56,24.56,0,0,1-24.56-24.56v-9.82A24.56,24.56,0,0,1,250.89,156Z" fill="#dfe6f5"/><rect x="252.18" y="156.05" width="14.48" height="58.95" rx="6.03" ry="6.03" fill="#535461"/><path d="M831.72,641.91s-15.88-5.38-23.52,8.61a25.52,25.52,0,0,0,.34,24.57c5,9.07,15.36,20.85,35,19.8,16.62-.89,22.15-13.57,23.65-25.37a26.06,26.06,0,0,0-34.61-27.9Z" transform="translate(-29.89 -62)" fill="#6c63ff"/><path d="M811.9,676.35a25.52,25.52,0,0,1-.34-24.57c7.64-14,23.52-8.61,23.52-8.61l.81-.29a25.83,25.83,0,0,1,18.66.42,25.84,25.84,0,0,0-22-2.1l-.81.29s-15.88-5.38-23.52,8.61a25.52,25.52,0,0,0,.34,24.57c3.31,6,8.92,13.11,18,17A39.35,39.35,0,0,1,811.9,676.35Z" transform="translate(-29.89 -62)" fill="#fff" opacity="0.1"/><path d="M823.52,648.64s5.89,4.63,20.18,0" transform="translate(-29.89 -62)" opacity="0.2"/><path d="M822.26,615s10.09,27.33,9.25,34.48l8-.84S826,624.67,829.41,615Z" transform="translate(-29.89 -62)" fill="#6c63ff"/><path d="M822.26,615s10.09,27.33,9.25,34.48l8-.84S826,624.67,829.41,615Z" transform="translate(-29.89 -62)" opacity="0.2"/><path d="M863.45,617.28s-15.88-8.12-23-1.41-8.2,23.86-8.2,23.86S858.16,643.3,863.45,617.28Z" transform="translate(-29.89 -62)" fill="#6c63ff"/><path d="M863.45,617.28s-15.88-8.12-23-1.41-8.2,23.86-8.2,23.86S858.16,643.3,863.45,617.28Z" transform="translate(-29.89 -62)" fill="#fff" opacity="0.1"/><path d="M832.26,639.73s4.17-19.91,31.19-22.45" transform="translate(-29.89 -62)" fill="none" stroke="#6c63ff" stroke-miterlimit="10"/></svg>